<?xml version="1.0" encoding="utf-8"?>
<!-- Generator: Adobe Illustrator 21.0.2, SVG Export Plug-In . SVG Version: 6.00 Build 0)  -->
<svg version="1.1" id="Calque_1" xmlns="http://www.w3.org/2000/svg" xmlns:xlink="http://www.w3.org/1999/xlink" x="0px" y="0px"
	 viewBox="0 0 85 49.8" style="enable-background:new 0 0 85 49.8;" xml:space="preserve">
<style type="text/css">
	.st0{fill:#FFFFFF;}
	.st1{fill:#024290;}
	.st2{fill:#E0051B;}
	.st3{fill:#9B9B9B;}
	.st4{fill:#1A181B;}
</style>
<g>
	<g>
		<g>
			<g>
				<g>
					<rect x="0.6" y="0" class="st0" width="84.2" height="28.5"/>
					<path class="st1" d="M25.7,17.6c-0.8,0.2-1.5,0.3-2.2,0.6c1.7-0.1,3.3,0.2,5,0.7c0.6,0.2,1.1,0.4,1.6,0.8
						c0.3,0.2,0.4,0.4,0.6,0.5c0.3,0.2,0.8,0.2,1.1,0.1H32c1-0.3,2-0.5,2.6-1.2c0,0.1,0.1,0.1,0.1,0.1c-0.2,0.5-0.2,1.1-0.6,1.5
						c0,0.1-0.1,0.2,0.1,0.3h0.1c-0.1,0-0.1,0-0.1,0.1c0,0.1,0.2,0,0.3,0.1c-0.3,0.1-0.6,0.1-0.8,0.4c0,0.1,0.1,0.1,0.2,0.1
						c-0.1,0.1-0.3,0.1-0.4,0.2c0,0,0.1,0.1,0.1,0.1c-0.1,0-0.1,0-0.1,0.1v0.2c-0.2,0-0.3,0.1-0.4,0.2c0.3,0.2,0.5,0,0.7,0
						c-0.7,0.3-1.3,0.6-2,0.8c-0.1,0,0,0.2-0.1,0.2c0.2,0.1,0.3-0.1,0.5-0.1c-0.9,0.5-1.8,1-2.8,1.6c0,0-0.1,0.1-0.1,0.3h-0.3
						c-0.1,0.1-0.1,0.3-0.2,0.4c0.3,0.2,0.7-0.2,0.9,0c0.1,0-0.1,0.1-0.3,0.1c-0.1,0-0.1,0.1-0.1,0.1h-0.2C29.1,25.8,29,25.8,29,26
						c-0.1,0-0.3,0-0.3,0.1c1.4-0.2,2.9-0.1,4.2-0.8c1-0.5,2-1.2,2.8-2.1c0,0,0.1,0.1,0.1,0.1c-0.2,0.6-0.6,1.1-1.1,1.5
						c-0.4,0.2-0.6,0.5-1,0.7c-0.2,0.1-0.4,0.3-0.6,0.4c-2.4,0.8-5.2,0.5-7.3,2.1c0-0.1-0.1-0.1-0.1-0.1c-0.1,0.1-0.3,0.2-0.4,0.3
						c0,0.1,0.2,0.1,0.3,0.1c0.4-0.3,0.8-0.5,1.2-0.6c-0.5,0.3-1,0.8-1.5,0.8h-3.2c0.6-0.4,1.3-0.8,2-1.2c-0.2-0.1-0.4-0.1-0.6-0.1
						c-0.3,0.1-0.7-0.1-1,0c-1,0.4-2.3,0.3-2.8,1.3H0.6V0h38.2c-0.8,0.4-1.5,0.6-2,1.3c-0.5,0.7-1,1.3-1.2,2.1
						c-0.8,0.5-1.4,1.3-1.8,2.1c-0.6,1.1-1.4,2.1-1.3,3.3c0.1,1,0.4,2,0.6,3.1c0.1,0.4,0.1,0.7,0.3,1.1c0.1,0.4,0,0.8,0.2,1.2
						c0.1,0.2,0.1,0.4,0.3,0.6v0.3C33.8,15,33.8,15,34,15v0.3c0.5,0.6,1.2,1.2,1.5,1.9c0.1,0.4-0.6,0.2-1,0.1
						c-0.6-0.3-1-0.8-1.5-1.3c0,0-0.1,0.1-0.1,0.1c0.3,0.4,1.2,1,0.7,1.3c-0.3,0.1-0.6-0.2-0.8,0.1c-0.1,0.1,0,0.3,0,0.4
						c-0.4-0.3-0.8-0.1-1.2-0.3c-0.3-0.1-0.3-0.6-0.6-0.6c-0.8-0.2-1.6-0.4-2.5-0.4c-1.1-0.1-2.2-0.3-3.4-0.1
						c-1,0.1-1.8,0.8-2.4,1.6v0.2c0.5,0.1,0.6-0.3,1-0.5c0.6-0.1,1.2-0.4,1.9-0.5c1-0.2,1.9-0.4,2.8-0.4c0.2,0,0.5-0.1,0.7,0
						C27.8,16.9,26.8,17.3,25.7,17.6"/>
					<path class="st0" d="M22.1,20.6c-0.2,0.1-0.4,0.2-0.3,0.3c0.2,0.3,0.6-0.1,0.9-0.1c-0.4,0.1-0.8,0.1-1.2,0.4
						c0.3,0.2,0.5,0.1,0.8,0.1c0,0.1,0.1,0.1,0.2,0.2c-0.3,0.1-0.6,0.4-0.6,0.6c-0.1,0.3-0.5,0.4-0.6,0.7V23c-0.6,0.6-1.3,1-1.9,1.7
						c0.1,0,0.1,0.1,0.1,0.1c-0.1,0.2-0.4,0.3-0.5,0.4c0,0.1,0,0.1,0.1,0.1c0.8-0.2,1.4-0.8,2.1-1.1c0.5-0.1,0.9-0.4,1.4-0.6
						c0.3-0.1,0.7-0.2,1-0.3c0,0.1,0,0.1,0.1,0.1H24c-0.1,0.1-0.3,0.1-0.3,0.1c0.2,0.2,0.6,0.1,0.8,0c0.2-0.1,0.4-0.1,0.6-0.1
						c0.1,0,0.1-0.1,0.1-0.2c0.2,0.1,0.3,0.1,0.5,0.1c1.6-0.3,3-0.6,4.4-1.3c-1.7-1.3-3.8-1.7-5.8-2.3c0.2,0,0.4,0.2,0.6,0
						c-0.3-0.2-0.7-0.1-1-0.3c0.1,0,0.2,0.1,0.3-0.1c-0.5-0.3-1-0.3-1.5-0.4c0.3-0.1,0.5-0.3,0.5-0.6c0-0.1-0.1-0.1-0.2-0.1
						c-0.8,0.4-1.3,1.1-1.6,1.9c0.4,0.3,1,0.1,1.4,0.1C22.7,20.6,22.3,20.6,22.1,20.6"/>
					<path class="st0" d="M19.4,18.1c-0.7,0.7-1.3,1.4-2.2,1.8c-0.6,1.2-1.2,2.2-2.1,3.3c0,0.1,0.1,0.1,0.1,0.1
						c1.5-1.7,3-3.2,4.9-4.4c0.1-0.1-0.2,0.2,0.1,0.1c0.8-0.2,1.1-1,1.5-1.7c0.5-0.8,1.4-1.2,2.1-1.9c0,0.1,0,0.1-0.1,0.2
						c0.1,0.1,0.1,0.1,0.2,0.1c0.3-0.2,0.6-0.1,0.8-0.4c-0.5-0.2-1.2-0.3-1.7-0.1C21.7,15.9,20.5,17,19.4,18.1"/>
					<path class="st0" d="M20.4,19.4c0.1-0.1,0.1-0.1,0.2-0.3c0-0.1,0-0.1-0.1-0.1c-0.3,0.1-0.5,0.3-0.5,0.6c0,0.1,0.1,0.1,0.1,0.1
						C20.3,19.6,20.3,19.5,20.4,19.4"/>
					<path class="st0" d="M25.6,24.2c-0.3,0.1-0.7,0.1-0.8,0.4c-0.1,0.1,0.2,0.1,0.3,0.1c0.4-0.2,1,0,1.3-0.4
						c-0.1-0.1-0.3-0.1-0.4-0.3C25.9,24.1,25.7,24.2,25.6,24.2"/>
					<path class="st1" d="M32.5,27.7c0.4-0.1,0.8-0.3,1.2-0.4v0.1c1-0.4,1.7-1.2,2.6-1.5c0.1,0,0.2,0.1,0.3,0.1
						c0.6-0.5,1.2-1.1,2.1-1c0,0.1,0,0.1,0.1,0.1c0.1,0,0.1,0,0.1-0.1c-0.3,0.2-0.5,0.4-0.8,0.6c-0.1,0.1,0,0.1,0.1,0.1
						c0.3-0.1,0.5-0.4,0.8-0.5c-0.1,0.1-0.1,0.2-0.1,0.3c-1.2,0.9-3.1,3.1-3.1,3.1H27c1.3-0.2,2.6-0.6,3.9-0.8
						C31.4,27.7,31.9,27.8,32.5,27.7"/>
					<path class="st2" d="M57.9,24.4c0.2-0.5,0.3-1,0.1-1.4c-0.4-0.6,0.4-0.8,0.6-1.1c0.2-0.3-0.1-0.5-0.2-0.8
						c-0.1-0.1-0.3-0.1-0.4-0.3c0.4-0.2,1.2-0.6,0.8-1.2c-0.2-0.3-0.5-0.8-0.1-1.2c0.4-0.3,1.2-0.2,1.3-0.6c0.3-0.8-0.4-1.4-0.8-2.1
						c-0.2-0.4-0.4-0.6-0.7-1c-0.3-0.4-0.6-0.8-0.7-1.3c-0.2-0.5,0.1-1,0.1-1.5c0.1-1-0.2-1.9-0.4-2.9c-0.2-0.5-0.3-1-0.5-1.4
						c-0.1-0.3-0.1-0.5-0.3-0.8c-0.1-0.1-0.1-0.3,0-0.5c0.3-0.2,0.5-0.4,0.8-0.6c0.2-0.3,0.1-0.8-0.3-1c-0.5-0.2-0.4,0.5-0.7,0.6
						h-0.2c-0.1-0.2,0.1-0.3,0.2-0.4c0-0.1,0-0.2-0.1-0.2c-0.3,0-0.5-0.1-0.6-0.2c-0.6-0.9-1.5-1.3-2.5-1.7C53.6,2.9,53.8,3,54.1,3
						c0.4,0.1,1,0.1,1.3-0.1c0.3-0.1,0.4-0.6,0.5-1c0.1-0.3-0.1-0.6-0.2-0.8c-0.3-0.5-1.3-1-1.3-1h30.3l0,28.5H48.7
						c0.4-1.3,1.1-2.5,2.3-3.3c0.3-0.1,0.6-0.2,0.9-0.3c1.1,0,2.2,0.3,3.3,0.4c0.1,0,0.3,0.1,0.4,0.1c0.4,0.1,0.8,0.1,1.2-0.1
						C57.2,25.3,57.7,25,57.9,24.4"/>
					<path class="st3" d="M55.5,11.8c-0.4-0.1-0.7,0-1.1,0c-0.5,0.1-1,0.2-1.4,0.4c0.4-0.3,0.8-0.5,1.2-0.6c0.3-0.1,0.6-0.3,1-0.3
						c0.4-0.1,0.8-0.2,1.1-0.1c0.3,0.1,0.8,0.1,0.9,0.3c0.1,0.4-0.2,0.8-0.6,1c-0.1,0.1,0.2,0.2,0.2,0.3C56.7,13,56.5,13,56.4,13
						c-0.1,0.1-0.3,0.3-0.4,0.4c0.1,0,0,0.2,0.1,0.2c-0.3,0.3,0.1,1-0.3,1.1c-0.4,0.1-1,0.1-1.5,0c0.3-0.1,0.6,0.1,0.8-0.2v-0.3
						c0-0.1-0.1-0.1-0.1-0.1c-0.1,0.1-0.1,0.1-0.1,0.1c0-0.1-0.1-0.3-0.2-0.3c-0.4,0.1-0.7-0.1-1-0.4c0.2-0.1,0.4-0.1,0.6-0.1
						c0.2,0,0.1-0.3,0.3-0.4h0.2c0.4-0.5,1.2-0.6,1.3-1.2C56.1,11.8,55.7,11.8,55.5,11.8"/>
				</g>
				<g>
					<path class="st4" d="M4.9,48.5c-0.3,0-0.5,0-0.7-0.2c-0.3-0.2-0.6-0.7-0.7-1c-0.3-0.5-0.6-1-0.9-1.5c-0.1,0-0.1,0-0.1,0
						c-0.1,0-0.1,0-0.2,0v0.4c0,0.2,0,0.5,0,0.7c0,0.5,0,0.7,0.1,0.8c0.1,0.2,0.2,0.3,0.5,0.3v0.2l-0.2,0c-0.2,0-0.5,0-0.9,0
						c-0.4,0-0.7,0-0.9,0l-0.2,0v-0.2c0.2,0,0.3-0.1,0.4-0.2c0.1-0.1,0.2-0.3,0.2-0.5c0-0.3,0-0.4,0-1.2v-1.4c0-1,0-1.3-0.1-1.5
						c-0.1-0.2-0.2-0.3-0.5-0.4v-0.2c0.2,0,0.3,0,0.5,0c0.4,0,0.6,0,1.1,0c0.5,0,0.7,0,0.9,0c0.6,0,0.9,0.1,1.2,0.3
						c0.3,0.2,0.5,0.7,0.5,1.1c0,0.7-0.5,1.3-1.2,1.5c0.3,0.4,0.6,0.8,0.9,1.3c0.3,0.4,0.5,0.8,0.7,1c0.1,0.1,0.2,0.2,0.4,0.2v0.2
						C5.3,48.5,5.1,48.5,4.9,48.5 M2.7,43.2c-0.2,0-0.3,0-0.5,0.1c0,0.5,0,1.4,0,2.1c0.1,0,0.3,0,0.4,0c0.7,0,1.2-0.4,1.2-1.1
						C3.7,43.7,3.3,43.2,2.7,43.2"/>
					<path class="st4" d="M7.6,43.3l-0.3-0.2l0.7-1l0.8,0.1L7.6,43.3z M9.2,48.3c-0.1,0.1-0.1,0.1-0.5,0.1c-0.2,0-0.5,0-0.7,0
						c-0.3,0-0.7,0-1,0c-0.3,0-0.7,0-1,0v-0.2c0.3,0,0.5-0.2,0.5-0.5c0-0.2,0-0.4,0-0.8v-2c0-0.4,0-0.5-0.1-0.7
						C6.3,44.1,6.2,44,6,44v-0.2h3.2c0,0.2,0,0.4,0,0.6c0,0.2,0,0.3,0,0.5H9c0-0.5-0.3-0.7-1.1-0.7c-0.1,0-0.4,0-0.5,0
						c0,0.3,0,0.4,0,0.8v0.8c0.1,0,0.2,0,0.3,0c0.7,0,0.9-0.1,1-0.5h0.3c0,0.1,0,0.3,0,0.7c0,0.4,0,0.6,0,0.7H8.6
						c0-0.4-0.2-0.5-0.9-0.5c-0.1,0-0.3,0-0.4,0c0,0.4,0,0.9,0,1.3c0,0.3,0,0.4,0.2,0.4c0.1,0,0.3,0,0.5,0c0.8,0,1-0.2,1.2-0.7
						l0.3,0.1C9.4,47.8,9.2,48.2,9.2,48.3"/>
					<path class="st4" d="M12.1,46.4c-0.1,0-0.1,0-0.2,0L11.7,46c0.7,0,1-0.4,1-0.9c0-0.5-0.4-0.9-0.9-0.9c-0.1,0-0.1,0-0.3,0
						c0,0.4,0,0.9,0,1.3v1.2c0,0.9,0,1.1,0.1,1.3c0.1,0.2,0.2,0.3,0.4,0.3v0.2l-0.2,0c-0.2,0-0.4,0-0.8,0c-0.3,0-0.6,0-0.8,0l-0.2,0
						v-0.2c0.3,0,0.5-0.2,0.5-0.5c0-0.2,0-0.3,0-1V45c0-0.4,0-0.5-0.1-0.7c-0.1-0.2-0.2-0.3-0.4-0.3v-0.2c0.1,0,0,0,0.3,0
						c0.1,0,0.3,0,0.5,0c0.4,0,0.7,0,1.1,0c1,0,1.6,0.5,1.6,1.3C13.6,45.8,13,46.4,12.1,46.4"/>
					<path class="st4" d="M18.4,44.1c-0.1,0.1-0.1,0.2-0.1,0.5c0,0.3,0,0.5,0,1c0,0.2,0,0.6,0,1.1c0,0.5-0.1,0.8-0.3,1.1
						c-0.3,0.5-0.8,0.7-1.5,0.7c-0.4,0-0.8-0.1-1.1-0.3c-0.5-0.3-0.7-0.7-0.7-1.5c0-0.7,0-1.1,0-1.3c0-0.4,0-0.7,0-1.1
						c0-0.2-0.2-0.4-0.5-0.4v-0.2h0.2c0.2,0,0.4,0,0.8,0c0.3,0,0.6,0,0.8,0H16V44c-0.2,0-0.3,0.1-0.4,0.2c-0.1,0.1-0.1,0.2-0.1,0.5
						c0,0.4,0,0.9,0,1.3c0,1.2,0,1.4,0.2,1.7c0.2,0.2,0.5,0.3,0.8,0.3c0.5,0,0.9-0.2,1.1-0.7c0.1-0.3,0.1-0.5,0.1-1.3v-0.7
						c0-0.8,0-1-0.1-1.2c-0.1-0.1-0.2-0.2-0.4-0.2v-0.2c0.3,0,0.4,0,0.7,0c0.4,0,0.5,0,0.7,0V44C18.5,44,18.4,44.1,18.4,44.1"/>
					<path class="st4" d="M22.6,48.1c-0.3,0.2-0.7,0.3-1.4,0.3c-0.4,0-0.8,0-1.1,0c-0.2,0-0.4,0-0.6,0l-0.1,0v-0.2
						c0.3,0,0.4-0.2,0.5-0.5c0-0.2,0-0.3,0-1v-1.3c0-0.6,0-0.9-0.1-1.1c-0.1-0.2-0.2-0.3-0.4-0.3v-0.2c0.3,0,0.5,0,1,0
						c0.4,0,1,0,1.4,0c0.6,0,1.2,0.3,1.2,1c0,0.5-0.3,0.9-1,1.1c0.7,0.2,1.1,0.6,1.1,1.2C23.1,47.6,22.9,47.9,22.6,48.1 M21.1,44.2
						c-0.1,0-0.2,0-0.4,0c0,0.5,0,1.2,0,1.5c0.1,0,0.2,0,0.3,0c0.7,0,1.1-0.3,1.1-0.8C22.1,44.4,21.7,44.2,21.1,44.2 M21.1,46.1
						c-0.1,0-0.2,0-0.4,0c0,0.2,0,0.2,0,0.5v0.4c0,0.4,0,0.6,0.1,0.7c0.1,0.2,0.2,0.3,0.5,0.3c0.6,0,0.9-0.3,0.9-0.9
						C22.2,46.5,21.8,46.1,21.1,46.1"/>
					<path class="st4" d="M27,48.3c-0.1,0.1-0.1,0.1-0.5,0.1c-0.2,0-0.4,0-0.5,0c-0.4,0-0.8,0-1.3,0c-0.3,0-0.6,0-0.8,0v-0.2
						c0.2,0,0.3,0,0.3-0.1c0.1-0.1,0.2-0.3,0.2-0.8v-1v-0.7c0-0.9,0-1.1-0.1-1.2c-0.1-0.2-0.2-0.3-0.4-0.3v-0.2l0.2,0
						c0.2,0,0.4,0,0.8,0c0.3,0,0.6,0,0.8,0l0.2,0V44c-0.4,0-0.5,0.2-0.5,0.5c0,0.1,0,0.2,0,1v1.2c0,1,0,1.1,0.1,1.2
						c0.1,0.1,0.2,0.1,0.5,0.1c0.4,0,0.6,0,0.8-0.1c0.2-0.1,0.3-0.3,0.4-0.6l0.3,0.1C27.2,47.7,27.1,48.2,27,48.3"/>
					<path class="st4" d="M29.4,48.4c-0.2,0-0.4,0-0.8,0c-0.3,0-0.6,0-0.8,0l-0.2,0v-0.2c0.3,0,0.5-0.2,0.5-0.5c0-0.2,0-0.3,0-1
						v-1.2c0-0.2,0-0.4,0-0.6c0-0.4,0-0.5-0.1-0.7C28.1,44.1,28,44,27.7,44v-0.2l0.2,0c0.2,0,0.4,0,0.8,0c0.3,0,0.6,0,0.8,0l0.2,0
						V44c-0.3,0-0.4,0.2-0.5,0.5c0,0.2,0,0.4,0,1v1.2c0,0.9,0,1.1,0.1,1.3c0.1,0.2,0.2,0.3,0.4,0.3v0.2L29.4,48.4z"/>
					<path class="st4" d="M35.9,49.7c-0.5,0-1.1-0.2-1.7-0.5c-0.3-0.2-0.7-0.5-1.1-0.7c-0.2,0-0.3,0-0.5,0c-1.4,0-2.3-0.9-2.3-2.3
						c0-1.5,1-2.5,2.5-2.5c1.4,0,2.4,0.9,2.4,2.3c0,1-0.5,1.8-1.3,2.2c0.3,0.1,0.5,0.3,0.8,0.4c0.7,0.4,1.2,0.6,1.6,0.6
						c0.3,0,0.5-0.1,0.8-0.2l0.1,0.2C36.8,49.6,36.4,49.7,35.9,49.7 M32.6,44.2c-0.8,0-1.5,0.7-1.5,1.7c0,1.2,0.7,2.1,1.6,2.1
						c0.9,0,1.5-0.7,1.5-1.7C34.2,45.1,33.5,44.2,32.6,44.2"/>
					<path class="st4" d="M39.9,44.1c-0.1,0.1-0.1,0.2-0.1,0.5c0,0.3,0,0.5,0,1c0,0.2,0,0.6,0,1.1c0,0.5-0.1,0.8-0.3,1.1
						c-0.3,0.5-0.8,0.7-1.5,0.7c-0.4,0-0.8-0.1-1.1-0.3c-0.5-0.3-0.7-0.7-0.7-1.5c0-0.7,0-1.1,0-1.3c0-0.4,0-0.7,0-1.1
						c0-0.2-0.2-0.4-0.5-0.4v-0.2h0.2c0.2,0,0.4,0,0.8,0c0.3,0,0.6,0,0.8,0h0.2V44c-0.2,0-0.3,0.1-0.4,0.2c-0.1,0.1-0.1,0.2-0.1,0.5
						c0,0.4,0,0.9,0,1.3c0,1.2,0,1.4,0.2,1.7c0.2,0.2,0.4,0.3,0.8,0.3c0.5,0,0.9-0.2,1.1-0.7c0.1-0.3,0.1-0.5,0.1-1.3v-0.7
						c0-0.8,0-1-0.1-1.2C39.1,44.1,39,44,38.8,44v-0.2c0.3,0,0.4,0,0.7,0c0.3,0,0.4,0,0.7,0V44C40.1,44,40,44.1,39.9,44.1"/>
					<path class="st4" d="M44.1,48.3c-0.1,0.1-0.1,0.1-0.5,0.1c-0.2,0-0.5,0-0.7,0c-0.3,0-0.7,0-1,0c-0.3,0-0.7,0-1,0v-0.2
						c0.3,0,0.5-0.2,0.5-0.5c0-0.2,0-0.4,0-0.8v-2c0-0.4,0-0.5-0.1-0.7c-0.1-0.2-0.2-0.3-0.4-0.3v-0.2h3.2v0.6c0,0.2,0,0.3,0,0.5
						h-0.2c0-0.5-0.3-0.7-1.1-0.7c-0.1,0-0.3,0-0.5,0c0,0.3,0,0.4,0,0.8v0.8c0.1,0,0.2,0,0.3,0c0.7,0,0.9-0.1,1-0.5h0.2
						c0,0.1,0,0.3,0,0.7c0,0.4,0,0.6,0,0.7h-0.2c0-0.4-0.2-0.5-0.9-0.5c-0.1,0-0.2,0-0.4,0c0,0.4,0,0.9,0,1.3c0,0.3,0,0.4,0.2,0.4
						c0.1,0,0.3,0,0.5,0c0.7,0,1-0.2,1.2-0.7l0.3,0.1C44.3,47.8,44.2,48.2,44.1,48.3"/>
					<path class="st4" d="M50.6,44.2c0-0.6-0.4-0.8-1.3-0.8c-0.2,0-0.4,0-0.6,0c0,0.6,0,1,0,1.9c0.2,0,0.3,0,0.4,0
						c0.8,0,1-0.1,1.1-0.6h0.3c0,0.2,0,0.5,0,0.7c0,0.3,0,0.6,0,1h-0.3c-0.1-0.5-0.3-0.6-1.1-0.6c-0.2,0-0.2,0-0.4,0v0.9
						c0,0.2,0,0.4,0,0.6c0,0.5,0.1,0.9,0.6,0.9v0.2l-0.2,0c-0.2,0-0.5,0-0.9,0c-0.4,0-0.7,0-0.9,0l-0.2,0v-0.2
						c0.4,0,0.6-0.2,0.6-0.6c0-0.3,0-0.4,0-1.2v-2.1c0-0.4,0-0.6-0.1-0.8c-0.1-0.2-0.2-0.3-0.5-0.4v-0.2h3.9c0,0.1,0,0.4,0,0.8
						c0,0.3,0,0.4,0,0.6H50.6z"/>
					<path class="st4" d="M55.2,48.5c-0.3,0-0.4,0-0.5-0.1c-0.2-0.1-0.5-0.6-0.6-0.8c-0.2-0.4-0.5-0.9-0.8-1.2c0,0-0.1,0-0.1,0
						c-0.1,0-0.1,0-0.2,0v0.4v0.6c0,0.4,0,0.5,0.1,0.7c0.1,0.2,0.2,0.3,0.4,0.3v0.2l-0.2,0c-0.2,0-0.4,0-0.8,0c-0.3,0-0.6,0-0.7,0
						l-0.2,0v-0.2c0.2,0,0.2,0,0.3-0.1c0.1-0.1,0.1-0.2,0.1-0.4c0-0.2,0-0.3,0-1v-1.2c0-0.8,0-1.1-0.1-1.2c0-0.2-0.2-0.3-0.4-0.3
						v-0.2c0.1,0,0.3,0,0.4,0c0.4,0,0.5,0,0.9,0c0.4,0,0.6,0,0.8,0c0.5,0,0.8,0.1,1,0.2c0.3,0.2,0.4,0.5,0.4,0.9c0,0.6-0.4,1-1,1.3
						c0.3,0.3,0.5,0.7,0.7,1c0.2,0.4,0.4,0.7,0.6,0.8c0.1,0.1,0.2,0.1,0.3,0.2v0.2C55.6,48.5,55.4,48.5,55.2,48.5 M53.4,44.1
						c-0.1,0-0.3,0-0.4,0.1v1.7c0.1,0,0.2,0,0.3,0c0.6,0,1-0.3,1-0.9C54.2,44.5,53.9,44.1,53.4,44.1"/>
					<path class="st4" d="M60.2,48.4c-0.2,0-0.4,0-0.7,0c-0.3,0-0.6,0-0.7,0l-0.2,0v-0.2c0.2,0,0.4-0.1,0.4-0.3c0-0.1,0-0.2-0.1-0.4
						c-0.1-0.3-0.1-0.4-0.2-0.7h-1.3l-0.1,0.4C57,47.6,57,47.8,57,47.9c0,0.2,0.1,0.3,0.3,0.3v0.2c-0.3,0-0.4,0-0.7,0
						c-0.3,0-0.4,0-0.7,0v-0.2c0.1,0,0.1,0,0.2-0.1c0.1-0.1,0.3-0.4,0.5-0.9l0.7-1.7c0.2-0.5,0.5-1.2,0.6-1.8h0.5
						c0.1,0.2,0.2,0.5,0.3,0.8l1,2.5c0.2,0.4,0.3,0.7,0.4,0.8c0.1,0.2,0.2,0.2,0.4,0.3v0.2L60.2,48.4z M58,45
						c-0.2,0.5-0.4,1.1-0.5,1.4h1L58,45z"/>
					<path class="st4" d="M65.1,44.2C65,44.3,65,44.4,65,44.8c0,0.6,0,1.6,0,2.1v1.1c0,0.2,0,0.4,0,0.5h-0.5
						c-0.5-0.6-1.4-1.7-1.4-1.7c-0.1-0.1-1-1.2-1.4-1.7c0,0.1,0,0.1,0,0.5v0.5c0,0.5,0,1,0,1.5c0,0.3,0,0.4,0.1,0.6
						c0.1,0.1,0.2,0.2,0.4,0.2v0.2c-0.2,0-0.5,0-0.7,0c-0.3,0-0.5,0-0.8,0v-0.2c0.5,0,0.5-0.4,0.5-0.8c0-0.3,0-0.5,0-1V45
						c0-0.6,0-0.7-0.1-0.9C61.1,44.1,61,44,60.8,44v-0.2c0.2,0,0.3,0,0.6,0c0.3,0,0.4,0,0.6,0c0.1,0.2,0.2,0.3,0.7,0.9
						c0.7,0.8,1.3,1.5,1.9,2.3v-1.5c0-0.7,0-0.9,0-1c0-0.2-0.2-0.3-0.4-0.4v-0.2c0.3,0,0.4,0,0.7,0c0.4,0,0.5,0,0.7,0V44
						C65.3,44,65.2,44,65.1,44.2"/>
					<path class="st4" d="M70,48.3c-0.4,0.2-0.8,0.2-1.4,0.2l-0.1,0.3c0,0,0.1,0,0.1,0c0.3,0,0.4,0.2,0.4,0.4c0,0.4-0.3,0.6-0.8,0.6
						c-0.1,0-0.3,0-0.4-0.1l0.1-0.3c0.1,0,0.2,0.1,0.2,0.1c0.2,0,0.3-0.1,0.3-0.3c0-0.1-0.1-0.2-0.2-0.2c-0.1,0-0.1,0-0.2,0.1
						l-0.1,0l0.1-0.6c-0.6-0.1-1.1-0.3-1.4-0.6c-0.4-0.4-0.7-1-0.7-1.7c0-1.5,1-2.4,2.5-2.4c0.5,0,0.9,0.1,1.3,0.2
						c0,0.2,0,0.3,0,0.5c0,0.1,0,0.4,0,0.5h-0.3c-0.1-0.5-0.5-0.8-1.1-0.8c-1,0-1.6,0.7-1.6,1.7c0,1.3,0.7,2.2,1.7,2.2
						c0.6,0,1-0.3,1.1-0.8l0.3,0C70.1,47.5,70,47.9,70,48.3"/>
					<path class="st4" d="M74.8,48.4c-0.2,0-0.4,0-0.7,0c-0.3,0-0.6,0-0.7,0l-0.2,0v-0.2c0.2,0,0.3-0.1,0.3-0.3c0-0.1,0-0.2-0.1-0.4
						c-0.1-0.3-0.1-0.4-0.2-0.7h-1.3l-0.1,0.4c-0.1,0.3-0.2,0.6-0.2,0.7c0,0.2,0.1,0.3,0.3,0.3v0.2c-0.3,0-0.4,0-0.7,0
						c-0.3,0-0.4,0-0.7,0v-0.2c0.1,0,0.1,0,0.2-0.1c0.1-0.1,0.3-0.4,0.5-0.9l0.6-1.7c0.2-0.5,0.5-1.2,0.6-1.8h0.5
						c0.1,0.2,0.2,0.5,0.3,0.8l1,2.5c0.2,0.4,0.3,0.7,0.4,0.8c0.1,0.2,0.2,0.2,0.4,0.3v0.2L74.8,48.4z M72.5,45
						c-0.2,0.5-0.4,1.1-0.5,1.4h1L72.5,45z"/>
					<path class="st4" d="M77,48.4c-0.2,0-0.4,0-0.7,0c-0.3,0-0.6,0-0.8,0l-0.2,0v-0.2c0.3,0,0.4-0.2,0.5-0.5c0-0.2,0-0.3,0-1v-1.2
						c0-0.2,0-0.4,0-0.6c0-0.4,0-0.5-0.1-0.7c-0.1-0.2-0.2-0.3-0.4-0.3v-0.2l0.2,0c0.2,0,0.4,0,0.8,0c0.3,0,0.6,0,0.7,0l0.2,0V44
						c-0.3,0-0.4,0.2-0.5,0.5c0,0.2,0,0.4,0,1v1.2c0,0.9,0,1.1,0.1,1.3c0.1,0.2,0.2,0.3,0.4,0.3v0.2L77,48.4z"/>
					<path class="st4" d="M79.2,48.5c-0.4,0-0.7-0.1-1.2-0.2c0-0.3-0.1-0.7-0.1-1l0.3,0c0.2,0.6,0.5,0.9,1.1,0.9
						c0.5,0,0.8-0.3,0.8-0.6c0-0.3-0.2-0.5-0.5-0.7l-0.7-0.5C78.3,45.9,78,45.6,78,45c0-0.8,0.6-1.3,1.5-1.3c0.4,0,0.8,0.1,1.1,0.2
						c0,0.2,0,0.2,0,0.4c0,0.3,0,0.3,0,0.5h-0.3c-0.1-0.5-0.4-0.8-0.9-0.8c-0.4,0-0.7,0.3-0.7,0.7c0,0.3,0.2,0.5,0.6,0.8l0.6,0.4
						c0.6,0.4,0.9,0.7,0.9,1.3C80.8,48,80.2,48.5,79.2,48.5"/>
					<path class="st4" d="M84.8,48.3c-0.1,0.1-0.1,0.1-0.5,0.1c-0.2,0-0.5,0-0.7,0c-0.3,0-0.7,0-1,0c-0.3,0-0.7,0-1,0v-0.2
						c0.3,0,0.4-0.2,0.5-0.5c0-0.2,0-0.4,0-0.8v-2c0-0.4,0-0.5-0.1-0.7c-0.1-0.2-0.2-0.3-0.4-0.3v-0.2h3.2c0,0.2,0,0.4,0,0.6
						c0,0.2,0,0.3,0,0.5h-0.3c-0.1-0.5-0.3-0.7-1.1-0.7c-0.1,0-0.4,0-0.5,0c0,0.3,0,0.4,0,0.8v0.8c0.1,0,0.2,0,0.3,0
						c0.7,0,0.9-0.1,1-0.5h0.2c0,0.1,0,0.3,0,0.7c0,0.4,0,0.6,0,0.7h-0.2c0-0.4-0.2-0.5-0.9-0.5c-0.1,0-0.2,0-0.4,0
						c0,0.4,0,0.9,0,1.3c0,0.3,0.1,0.4,0.2,0.4c0.1,0,0.3,0,0.5,0c0.8,0,1-0.2,1.2-0.7l0.3,0.1C84.9,47.8,84.8,48.2,84.8,48.3"/>
					<path class="st4" d="M3,36.6c-0.1,0.1-0.2,0.1-0.4,0.1c-0.3,0-0.7,0-1,0c-0.3,0-0.5,0-0.7,0c-0.2,0-0.7,0-0.8,0l-0.1,0l0-0.1
						c0.2,0,0.3-0.1,0.4-0.2c0.1-0.1,0.2-0.3,0.3-0.7C0.8,35.2,0.8,35,1,34.3l0.1-0.5c0.1-0.5,0.1-0.8,0.1-1c0-0.3-0.1-0.4-0.4-0.5
						l0-0.1c0,0,0.1,0,0.1,0h0.7h0.8c0,0,0.1,0,0.1,0l0,0.1c-0.2,0-0.3,0.1-0.4,0.2C2,32.7,1.9,33,1.6,34.3l-0.1,0.5
						c-0.1,0.5-0.1,0.7-0.2,1c0,0.1,0,0.2,0,0.2c0,0.3,0.1,0.4,0.6,0.4c0.8,0,1-0.2,1.3-0.7l0.2,0.1C3.2,36.1,3.1,36.5,3,36.6"/>
					<path class="st4" d="M5,33.3c-0.2,0-0.4-0.1-0.4-0.3c0-0.2,0.2-0.4,0.4-0.4c0.2,0,0.3,0.1,0.3,0.3C5.4,33.1,5.2,33.3,5,33.3
						 M4.2,36.7c-0.1,0-0.2-0.1-0.2-0.2c0-0.1,0-0.2,0.1-0.3c0.1-0.4,0.2-0.8,0.3-1.1c0.1-0.3,0.1-0.6,0.1-0.7c0-0.1,0-0.1-0.1-0.1
						c-0.1,0-0.1,0-0.3,0.1l0,0l0-0.2C4.4,34,4.8,34,4.9,34c0.1,0,0.1,0,0.1,0.1c0,0.1,0,0.3-0.2,0.8l-0.1,0.4
						c-0.2,0.7-0.2,0.9-0.2,1c0,0.1,0.1,0.1,0.2,0.1c0.1,0,0.2,0,0.4-0.1l0,0.2C4.8,36.6,4.4,36.7,4.2,36.7"/>
					<path class="st4" d="M7.9,36.4c-0.3,0.2-0.6,0.3-1,0.3c-0.5,0-0.8-0.1-0.8-0.2c0-0.1,0-0.1,0.1-0.4l0.3-1.5
						c0.1-0.5,0.2-0.9,0.3-1.4c0.1-0.3,0.1-0.5,0.1-0.6c0-0.1,0-0.1-0.1-0.1c0,0-0.2,0-0.3,0.1l0-0.2l0.1,0c0.4-0.1,0.7-0.2,0.8-0.2
						c0.1,0,0.1,0,0.1,0.1c0,0.1,0,0.2-0.1,0.7l-0.2,0.9c-0.1,0.3-0.1,0.4-0.1,0.5C7.5,34.1,7.8,34,8.2,34c0.4,0,0.6,0.2,0.6,0.6
						C8.8,35.2,8.4,36,7.9,36.4 M7.9,34.2c-0.1,0-0.3,0-0.5,0.1c-0.2,0.1-0.3,0.2-0.4,0.3C7,34.8,6.9,35,6.8,35.5
						c-0.1,0.4-0.2,0.7-0.2,0.8c0,0.1,0.2,0.2,0.4,0.2c0.3,0,0.5-0.1,0.7-0.4c0.3-0.4,0.5-1,0.5-1.4C8.2,34.4,8.1,34.2,7.9,34.2"/>
					<path class="st4" d="M10.3,35.6c0,0-0.1,0-0.2,0c0,0.1,0,0.2,0,0.3c0,0.4,0.1,0.5,0.4,0.5c0.2,0,0.5-0.1,0.9-0.4l0.1,0.2
						c-0.5,0.3-0.9,0.5-1.2,0.5c-0.4,0-0.6-0.3-0.6-0.7c0-1.1,0.8-2.1,1.6-2.1c0.4,0,0.7,0.2,0.7,0.5C11.8,35.1,11.1,35.6,10.3,35.6
						 M11,34.2c-0.3,0-0.7,0.4-0.8,1.1h0.1c0.6,0,1.1-0.3,1.1-0.8C11.3,34.4,11.1,34.2,11,34.2"/>
					<path class="st4" d="M14.5,34.8l-0.2,0c0-0.1,0-0.2,0-0.3c0-0.1-0.1-0.2-0.3-0.2c-0.1,0-0.2,0.1-0.3,0.2
						c-0.3,0.3-0.4,0.8-0.5,1.5l-0.1,0.7c-0.3,0-0.3,0-0.6,0c0.1-0.2,0.1-0.4,0.2-0.7l0.1-0.6c0.1-0.4,0.1-0.7,0.1-0.8
						c0-0.2,0-0.2-0.1-0.2c0,0-0.1,0-0.2,0l-0.2,0l0-0.2c0.3-0.1,0.7-0.2,0.9-0.2c0.1,0,0.1,0,0.1,0.1c0,0.1,0,0.2,0,0.3
						c0.3-0.2,0.6-0.4,0.8-0.4c0.1,0,0.3,0.1,0.4,0.2C14.6,34.4,14.5,34.6,14.5,34.8"/>
					<path class="st4" d="M16.8,34.4l-0.6,0l-0.3,1.4c-0.1,0.4-0.1,0.5-0.1,0.5c0,0.1,0,0.1,0.1,0.1c0,0,0.1,0,0.3-0.1l0.1,0l0,0.2
						c-0.3,0.2-0.7,0.2-0.9,0.2c-0.1,0-0.2-0.1-0.2-0.2c0-0.1,0-0.3,0.1-0.5c0.1-0.2,0.1-0.4,0.2-0.7l0.2-1l-0.4,0l0-0.2
						c0.5-0.1,0.6-0.4,0.8-0.8l0.3-0.1L16.3,34h0.6L16.8,34.4z"/>
					<path class="st4" d="M18.9,33.5l-0.2-0.2l0.8-0.9l0.6,0.1L18.9,33.5z M18.1,35.6c0,0-0.1,0-0.2,0c0,0.1,0,0.2,0,0.3
						c0,0.4,0.1,0.5,0.4,0.5c0.2,0,0.5-0.1,0.9-0.4l0.1,0.2c-0.5,0.3-0.9,0.5-1.2,0.5c-0.4,0-0.6-0.3-0.6-0.7c0-1.1,0.8-2.1,1.6-2.1
						c0.4,0,0.7,0.2,0.7,0.5C19.6,35.1,19,35.6,18.1,35.6 M18.8,34.2c-0.3,0-0.7,0.4-0.8,1.1H18c0.6,0,1.1-0.3,1.1-0.8
						C19.1,34.4,19,34.2,18.8,34.2"/>
					<path class="st4" d="M30.4,31.7l-0.2-0.2l0.8-0.9l0.6,0.2L30.4,31.7z M31.7,33.1h-0.2c0-0.1,0-0.1,0-0.2c0-0.4-0.2-0.5-0.9-0.5
						c-0.2,0-0.4,0-0.7,0c-0.1,0.6-0.2,1-0.3,1.6h0.2c0.4,0,0.6,0,0.8,0c0.3,0,0.4-0.2,0.5-0.5h0.2c-0.1,0.4-0.2,1-0.3,1.3h-0.2
						c0,0,0-0.1,0-0.1c0-0.3-0.2-0.4-0.7-0.4c-0.3,0-0.5,0-0.6,0c0,0.2,0,0-0.2,0.8c-0.1,0.4-0.1,0.6-0.1,0.7c0,0.2,0.1,0.3,0.6,0.3
						c0.9,0,1.1-0.1,1.4-0.7l0.2,0.1c-0.2,0.4-0.3,0.8-0.4,0.9c-0.1,0.1-0.1,0.1-0.4,0.1c-0.2,0-0.5,0-0.7,0c-0.3,0-0.6,0-0.9,0
						c-0.3,0-0.6,0-0.9,0l0-0.1c0.2,0,0.3-0.1,0.4-0.2c0.1-0.1,0.2-0.3,0.3-0.7c0.1-0.4,0.1-0.5,0.3-1.3l0.1-0.5
						c0.1-0.5,0.1-0.9,0.1-1c0-0.3-0.1-0.4-0.4-0.5l0-0.1h3.1C31.8,32.5,31.8,32.8,31.7,33.1"/>
					<path class="st4" d="M35.1,34.4l-0.5,0c0.1,0.1,0.1,0.3,0.1,0.4c0,0.6-0.5,1.1-1.2,1.1c-0.1,0-0.2,0-0.4-0.1
						c-0.2,0.1-0.2,0.1-0.2,0.2c0,0.1,0.1,0.1,0.4,0.2l0.5,0.2c0.5,0.2,0.8,0.3,0.8,0.7c0,0.7-0.7,1.3-1.6,1.3
						c-0.7,0-1.2-0.4-1.2-0.9c0-0.5,0.3-0.8,0.9-0.9c-0.3-0.1-0.4-0.2-0.4-0.3c0-0.1,0.2-0.3,0.6-0.6c-0.2-0.2-0.3-0.3-0.3-0.6
						c0-0.6,0.5-1.1,1.2-1.1c0.2,0,0.3,0,0.5,0.1h0.9L35.1,34.4z M33.8,34.2c-0.4,0-0.7,0.4-0.7,0.8c0,0.3,0.2,0.5,0.5,0.5
						c0.3,0,0.6-0.4,0.6-0.8C34.2,34.4,34,34.2,33.8,34.2 M33.9,36.9c-0.2-0.1-0.5-0.2-0.8-0.3c-0.5,0.1-0.8,0.5-0.8,0.9
						c0,0.4,0.3,0.6,0.8,0.6c0.6,0,1.1-0.4,1.1-0.8C34.2,37.1,34.1,37,33.9,36.9"/>
					<path class="st4" d="M37.6,36.7c-0.1,0-0.2-0.1-0.2-0.4c-0.5,0.3-0.9,0.4-1.2,0.4c-0.4,0-0.6-0.2-0.6-0.6
						c0-0.4,0.2-0.9,0.4-1.3c0.4-0.6,0.8-0.9,1.5-0.9c0.3,0,0.6,0.1,0.9,0.1l0,0.1c-0.2,0.8-0.4,1.6-0.4,1.9c0,0.2,0,0.3,0.1,0.3
						c0.1,0,0.2,0,0.4-0.1l0,0.2C38,36.6,37.7,36.7,37.6,36.7 M37.3,34.2c-0.3,0-0.5,0.2-0.8,0.6c-0.3,0.4-0.4,1-0.4,1.3
						c0,0.2,0.1,0.3,0.3,0.3c0.2,0,0.7-0.2,0.9-0.4c0.1-0.1,0.1-0.2,0.2-0.5c0.1-0.4,0.2-0.8,0.3-1.2C37.5,34.3,37.4,34.2,37.3,34.2
						"/>
					<path class="st4" d="M40.6,32.8c-0.2,0.9-0.4,1.9-0.7,2.8c-0.1,0.3-0.1,0.5-0.1,0.6c0,0.1,0.1,0.1,0.1,0.1c0.1,0,0.2,0,0.4-0.1
						l0,0.2c-0.3,0.1-0.8,0.3-0.9,0.3c-0.1,0-0.2-0.1-0.2-0.2c0-0.1,0-0.2,0.1-0.6c0.2-0.9,0.4-1.8,0.6-2.7c0.1-0.4,0.1-0.6,0.1-0.7
						c0-0.1,0-0.1-0.1-0.1c-0.1,0-0.2,0-0.3,0.1l0-0.2c0.3-0.1,0.7-0.2,0.9-0.2c0.1,0,0.1,0,0.1,0.1C40.7,32.3,40.7,32.4,40.6,32.8"
						/>
					<path class="st4" d="M42.2,33.3c-0.2,0-0.3-0.1-0.3-0.3c0-0.2,0.2-0.4,0.4-0.4c0.2,0,0.3,0.1,0.3,0.3
						C42.7,33.1,42.5,33.3,42.2,33.3 M41.5,36.7c-0.1,0-0.2-0.1-0.2-0.2c0-0.1,0-0.2,0.1-0.3c0.1-0.4,0.2-0.8,0.3-1.1
						c0.1-0.3,0.1-0.6,0.1-0.7c0-0.1,0-0.1-0.1-0.1c-0.1,0-0.1,0-0.3,0.1l0,0l0-0.2C41.7,34,42,34,42.2,34c0.1,0,0.1,0,0.1,0.1
						c0,0.1,0,0.3-0.2,0.8l-0.1,0.4c-0.2,0.7-0.2,0.9-0.2,1c0,0.1,0.1,0.1,0.2,0.1c0.1,0,0.2,0,0.4-0.1l0,0.2
						C42.1,36.6,41.7,36.7,41.5,36.7"/>
					<path class="st4" d="M44.9,34.4l-0.6,0l-0.3,1.4C44,36.1,44,36.2,44,36.2c0,0.1,0,0.1,0.1,0.1c0.1,0,0.2,0,0.3-0.1l0.1,0l0,0.2
						c-0.3,0.2-0.7,0.2-0.9,0.2c-0.1,0-0.2-0.1-0.2-0.2c0-0.1,0-0.3,0.1-0.5c0.1-0.2,0.1-0.4,0.2-0.7l0.2-1l-0.4,0l0-0.2
						c0.5-0.1,0.6-0.4,0.8-0.8l0.3-0.1L44.4,34H45L44.9,34.4z"/>
					<path class="st4" d="M47,33.5l-0.2-0.2l0.8-0.9l0.6,0.1L47,33.5z M46.2,35.6c-0.1,0-0.1,0-0.2,0c0,0.1,0,0.2,0,0.3
						c0,0.4,0.1,0.5,0.4,0.5c0.2,0,0.5-0.1,0.9-0.4l0.1,0.2c-0.5,0.3-0.9,0.5-1.2,0.5c-0.4,0-0.7-0.3-0.7-0.7c0-1.1,0.8-2.1,1.6-2.1
						c0.4,0,0.7,0.2,0.7,0.5C47.8,35.1,47.1,35.6,46.2,35.6 M46.9,34.2c-0.3,0-0.7,0.4-0.8,1.1h0.1c0.6,0,1.1-0.3,1.1-0.8
						C47.3,34.4,47.1,34.2,46.9,34.2"/>
					<path class="st4" d="M59.8,33.1h-0.2c0-0.1,0-0.1,0-0.2c0-0.1,0-0.2-0.1-0.3c-0.1-0.1-0.4-0.2-0.9-0.2c-0.1,0-0.3,0-0.5,0
						c-0.1,0.5-0.2,1.1-0.3,1.7c0.1,0,0.3,0,0.4,0c0.8,0,0.9-0.1,1-0.5h0.2c-0.1,0.4-0.2,0.9-0.3,1.3h-0.2c0,0,0-0.1,0-0.1
						c0-0.1,0-0.2-0.1-0.3c-0.1-0.1-0.2-0.1-0.7-0.1c-0.2,0-0.3,0-0.5,0l-0.1,0.5c-0.1,0.6-0.2,0.9-0.2,1.1c0,0.3,0.1,0.4,0.4,0.4
						l0,0.1l-0.1,0h-0.6h-0.9l-0.1,0l0-0.1c0.2,0,0.3-0.1,0.4-0.2c0.1-0.1,0.2-0.3,0.3-0.7c0.1-0.4,0.1-0.6,0.3-1.3l0.1-0.5
						c0.1-0.5,0.1-0.8,0.1-1c0-0.3-0.1-0.4-0.4-0.5l0-0.1h3C59.9,32.5,59.8,32.8,59.8,33.1"/>
					<path class="st4" d="M62.1,34.8l-0.2,0c0-0.1,0-0.2,0-0.3c0-0.1-0.1-0.2-0.3-0.2c-0.1,0-0.2,0.1-0.3,0.2
						c-0.3,0.3-0.4,0.8-0.5,1.5l-0.1,0.7c-0.3,0-0.3,0-0.6,0c0.1-0.2,0.1-0.4,0.2-0.7l0.1-0.6c0.1-0.4,0.1-0.7,0.1-0.8
						c0-0.2,0-0.2-0.1-0.2c0,0-0.1,0-0.2,0l-0.2,0l0-0.2c0.3-0.1,0.7-0.2,0.9-0.2C61,34,61,34,61,34c0,0.1,0,0.2,0,0.3
						c0.3-0.2,0.6-0.4,0.8-0.4c0.1,0,0.3,0.1,0.4,0.2C62.2,34.4,62.1,34.6,62.1,34.8"/>
					<path class="st4" d="M64.7,36.7c-0.1,0-0.2-0.1-0.2-0.4c-0.5,0.3-0.9,0.4-1.2,0.4c-0.4,0-0.6-0.2-0.6-0.6
						c0-0.4,0.2-0.9,0.4-1.3c0.4-0.6,0.8-0.9,1.5-0.9c0.3,0,0.6,0.1,0.9,0.1l0,0.1C65.2,35,65,35.8,65,36.1c0,0.2,0,0.3,0.1,0.3
						c0,0,0.2,0,0.4-0.1l0,0.2C65.2,36.6,64.8,36.7,64.7,36.7 M64.4,34.2c-0.3,0-0.5,0.2-0.8,0.6c-0.3,0.4-0.4,1-0.4,1.3
						c0,0.2,0.1,0.3,0.3,0.3c0.2,0,0.7-0.2,0.9-0.4c0.1-0.1,0.1-0.2,0.2-0.5c0.1-0.4,0.2-0.8,0.3-1.2C64.7,34.3,64.5,34.2,64.4,34.2
						"/>
					<path class="st4" d="M67.9,34.4l-0.6,0l-0.3,1.4C67,36.1,67,36.2,67,36.2c0,0.1,0.1,0.1,0.1,0.1c0,0,0.1,0,0.3-0.1l0.1,0l0,0.2
						c-0.4,0.2-0.7,0.2-0.9,0.2c-0.1,0-0.2-0.1-0.2-0.2c0-0.1,0-0.3,0.1-0.5c0.1-0.2,0.1-0.4,0.2-0.7l0.2-1l-0.4,0l0-0.2
						c0.5-0.1,0.6-0.4,0.7-0.8l0.3-0.1L67.4,34H68L67.9,34.4z"/>
					<path class="st4" d="M69.2,35.6c0,0-0.1,0-0.2,0c0,0.1,0,0.2,0,0.3c0,0.4,0.1,0.5,0.4,0.5c0.2,0,0.5-0.1,0.9-0.4l0.1,0.2
						c-0.5,0.3-0.9,0.5-1.2,0.5c-0.4,0-0.7-0.3-0.7-0.7c0-1.1,0.8-2.1,1.6-2.1c0.4,0,0.7,0.2,0.7,0.5C70.8,35.1,70.1,35.6,69.2,35.6
						 M69.9,34.2c-0.3,0-0.7,0.4-0.8,1.1h0.1c0.6,0,1.1-0.3,1.1-0.8C70.3,34.4,70.1,34.2,69.9,34.2"/>
					<path class="st4" d="M73.5,34.8l-0.2,0c0-0.1,0-0.2,0-0.3c0-0.1-0.1-0.2-0.3-0.2c-0.1,0-0.2,0.1-0.3,0.2
						c-0.3,0.3-0.4,0.8-0.5,1.5l-0.1,0.7c-0.3,0-0.3,0-0.6,0c0.1-0.2,0.1-0.4,0.2-0.7l0.2-0.6c0.1-0.4,0.1-0.7,0.1-0.8
						c0-0.2,0-0.2-0.1-0.2c0,0-0.1,0-0.2,0l-0.2,0l0-0.2c0.3-0.1,0.7-0.2,0.9-0.2c0.1,0,0.1,0,0.1,0.1c0,0.1,0,0.2,0,0.3
						c0.3-0.2,0.6-0.4,0.8-0.4c0.1,0,0.3,0.1,0.4,0.2C73.6,34.4,73.5,34.6,73.5,34.8"/>
					<path class="st4" d="M76.2,36.7c-0.1,0-0.2-0.1-0.2-0.2c0-0.1,0-0.2,0.1-0.6l0.1-0.3c0.2-0.8,0.3-1.1,0.3-1.2
						c0-0.1-0.1-0.1-0.1-0.1c-0.1,0-0.3,0.1-0.5,0.2c-0.2,0.1-0.4,0.3-0.5,0.4c-0.1,0.1-0.1,0.3-0.2,0.6c-0.1,0.5-0.2,0.8-0.2,1.2
						c-0.3,0-0.3,0-0.6,0c0.1-0.5,0.2-0.9,0.3-1.4c0.1-0.4,0.1-0.7,0.1-0.8c0-0.2,0-0.2-0.1-0.2c-0.1,0-0.2,0-0.3,0.1l0-0.2
						c0.3-0.1,0.7-0.2,0.8-0.2c0.1,0,0.2,0.1,0.2,0.4v0c0.5-0.3,1-0.5,1.4-0.5c0.2,0,0.3,0.1,0.3,0.2c0,0.1,0,0.4-0.2,0.9
						c-0.1,0.3-0.2,0.6-0.2,0.8c0,0.2-0.1,0.3-0.1,0.4c0,0.1,0,0.1,0.1,0.1c0.1,0,0.2,0,0.3-0.1l0,0.2
						C76.7,36.6,76.3,36.7,76.2,36.7"/>
					<path class="st4" d="M79,33.3c-0.2,0-0.3-0.1-0.3-0.3c0-0.2,0.2-0.4,0.4-0.4c0.2,0,0.3,0.1,0.3,0.3
						C79.4,33.1,79.2,33.3,79,33.3 M78.3,36.7c-0.1,0-0.2-0.1-0.2-0.2c0-0.1,0-0.2,0.1-0.3c0.1-0.4,0.2-0.8,0.3-1.1
						c0.1-0.3,0.1-0.6,0.1-0.7c0-0.1,0-0.1-0.1-0.1c-0.1,0-0.1,0-0.3,0.1l-0.1,0l0-0.2C78.4,34,78.8,34,79,34c0.1,0,0.1,0,0.1,0.1
						c0,0.1,0,0.3-0.2,0.8l-0.1,0.4c-0.2,0.7-0.2,0.9-0.2,1c0,0.1,0.1,0.1,0.2,0.1c0.1,0,0.2,0,0.4-0.1l0,0.2
						C78.8,36.6,78.5,36.7,78.3,36.7"/>
					<path class="st4" d="M81.7,34.4l-0.6,0l-0.3,1.4c-0.1,0.4-0.1,0.5-0.1,0.5c0,0.1,0,0.1,0.1,0.1c0.1,0,0.1,0,0.3-0.1l0.1,0
						l0,0.2c-0.3,0.2-0.7,0.2-0.9,0.2c-0.1,0-0.2-0.1-0.2-0.2c0-0.1,0-0.3,0.1-0.5c0.1-0.2,0.1-0.4,0.2-0.7l0.2-1l-0.4,0l0.1-0.2
						c0.5-0.1,0.6-0.4,0.7-0.8l0.3-0.1L81.2,34h0.6L81.7,34.4z"/>
					<path class="st4" d="M83.7,33.5l-0.2-0.2l0.8-0.9l0.6,0.1L83.7,33.5z M83,35.6c0,0-0.1,0-0.2,0c0,0.1,0,0.2,0,0.3
						c0,0.4,0.1,0.5,0.4,0.5c0.2,0,0.5-0.1,0.9-0.4l0.1,0.2c-0.5,0.3-0.9,0.5-1.2,0.5c-0.4,0-0.7-0.3-0.7-0.7c0-1.1,0.7-2.1,1.6-2.1
						c0.4,0,0.7,0.2,0.7,0.5C84.5,35.1,83.8,35.6,83,35.6 M83.7,34.2c-0.3,0-0.7,0.4-0.8,1.1h0.1c0.6,0,1.1-0.3,1.1-0.8
						C84,34.4,83.9,34.2,83.7,34.2"/>
					<path class="st4" d="M52.1,35.5c0.5,0,0.8-0.4,0.8-0.8c0-0.4-0.4-0.8-0.8-0.8c-0.4,0-0.8,0.4-0.8,0.8
						C51.3,35.1,51.7,35.5,52.1,35.5"/>
					<path class="st4" d="M24,35.5c0.4,0,0.8-0.4,0.8-0.8c0-0.4-0.4-0.8-0.8-0.8c-0.5,0-0.8,0.4-0.8,0.8
						C23.2,35.1,23.6,35.5,24,35.5"/>
					<rect x="0.4" y="39.3" class="st4" width="84.3" height="0.7"/>
				</g>
			</g>
		</g>
	</g>
</g>
</svg>
