<?xml version="1.0" encoding="utf-8"?>
<!-- Generator: Adobe Illustrator 21.0.2, SVG Export Plug-In . SVG Version: 6.00 Build 0)  -->
<svg version="1.1" id="Calque_1" xmlns="http://www.w3.org/2000/svg" xmlns:xlink="http://www.w3.org/1999/xlink" x="0px" y="0px"
	 viewBox="0 0 453.5 79.4" style="enable-background:new 0 0 453.5 79.4;" xml:space="preserve">
<style type="text/css">
	.st0{fill:#FFFFFF;}
	.st1{fill:none;stroke:#1F1E21;stroke-width:1.0103;}
	.st2{fill:#024290;}
	.st3{fill:#E0051B;}
	.st4{fill:#9A9B9C;}
	.st5{fill:#1F1E21;}
</style>
<rect x="0" class="st0" width="116.7" height="79.4"/>
<rect x="0" class="st1" width="116.7" height="79.4"/>
<rect x="116.7" class="st0" width="123.7" height="79.4"/>
<rect x="116.7" class="st1" width="123.7" height="79.4"/>
<polygon class="st0" points="99.3,16.6 99.3,44.3 17.4,44.3 17.4,16.6 "/>
<g>
	<path class="st2" d="M41.8,33.8c-0.7,0.2-1.5,0.2-2.2,0.6c1.6-0.1,3.3,0.2,4.8,0.7c0.6,0.2,1.1,0.4,1.6,0.7
		c0.2,0.2,0.4,0.4,0.6,0.5c0.3,0.2,0.8,0.2,1.1,0.1H48c0.9-0.3,1.9-0.5,2.6-1.2c0,0.1,0.1,0.1,0.1,0.1c-0.2,0.5-0.2,1.1-0.6,1.5
		c0,0.1-0.1,0.2,0.1,0.2h0.1c-0.1,0-0.1,0-0.1,0.1c0,0.1,0.2,0,0.3,0.1c-0.3,0.1-0.6,0.1-0.8,0.4c0,0.1,0.1,0.1,0.2,0.1
		c-0.1,0.1-0.3,0.1-0.4,0.2c0,0,0.1,0.1,0.1,0.1c-0.1,0-0.1,0-0.1,0.1v0.2c-0.2,0-0.2,0.1-0.4,0.2c0.3,0.2,0.4,0,0.7,0
		c-0.7,0.3-1.2,0.6-1.9,0.8c-0.1,0,0,0.2-0.1,0.2c0.2,0.1,0.3-0.1,0.5-0.1c-0.9,0.5-1.8,0.9-2.7,1.5c0,0-0.1,0.1-0.1,0.2h-0.2
		c-0.1,0.1-0.1,0.2-0.2,0.4c0.3,0.2,0.7-0.2,0.9,0c0.1,0-0.1,0.1-0.3,0.1c-0.1,0-0.1,0.1-0.1,0.1h-0.2c-0.1,0.1-0.2,0.2-0.2,0.4
		c-0.1,0-0.3,0-0.3,0.1c1.4-0.2,2.8-0.1,4.1-0.7c1-0.5,1.9-1.2,2.8-2.1c0,0,0.1,0.1,0.1,0.1c-0.2,0.6-0.6,1.1-1.1,1.4
		c-0.4,0.2-0.6,0.5-0.9,0.6c-0.2,0.1-0.4,0.2-0.6,0.4c-2.3,0.8-5.1,0.4-7.1,2c0-0.1-0.1-0.1-0.1-0.1c-0.1,0.1-0.3,0.2-0.4,0.3
		c0,0.1,0.2,0.1,0.3,0.1c0.4-0.2,0.8-0.4,1.2-0.6c-0.5,0.3-1,0.8-1.5,0.8h-3.1c0.6-0.4,1.2-0.8,1.9-1.2C40.1,43,39.9,43,39.7,43
		c-0.3,0.1-0.7-0.1-1,0c-0.9,0.4-2.2,0.3-2.7,1.3H17.4l0-27.7h37.2c-0.7,0.4-1.4,0.6-2,1.3c-0.5,0.6-1,1.2-1.2,2
		c-0.8,0.5-1.3,1.3-1.8,2c-0.6,1.1-1.4,2-1.3,3.2c0.1,1,0.4,1.9,0.6,3c0.1,0.4,0.1,0.7,0.3,1.1c0.1,0.4,0,0.8,0.2,1.1
		c0.1,0.2,0.1,0.4,0.3,0.6v0.2c0.1,0.1,0.1,0.1,0.2,0.1v0.3c0.5,0.6,1.1,1.2,1.4,1.9c0.1,0.4-0.6,0.2-0.9,0.1
		c-0.6-0.3-1-0.8-1.5-1.3c0,0-0.1,0.1-0.1,0.1c0.2,0.4,1.2,1,0.7,1.3c-0.2,0.1-0.6-0.2-0.8,0.1c-0.1,0.1,0,0.2,0,0.4
		c-0.4-0.3-0.8-0.1-1.1-0.3c-0.3-0.1-0.3-0.6-0.6-0.6c-0.8-0.2-1.6-0.4-2.4-0.4c-1.1-0.1-2.2-0.3-3.3-0.1c-1,0.1-1.8,0.8-2.4,1.6
		v0.2c0.4,0.1,0.6-0.3,1-0.4c0.6-0.1,1.2-0.4,1.8-0.5c0.9-0.2,1.8-0.4,2.7-0.4c0.2,0,0.4-0.1,0.6,0C43.9,33.1,42.9,33.4,41.8,33.8"
		/>
	<path class="st0" d="M38.3,36.7C38.1,36.7,38,36.9,38,37c0.2,0.3,0.6-0.1,0.9-0.1c-0.4,0.1-0.8,0.1-1.1,0.4
		c0.3,0.2,0.5,0.1,0.7,0.1c0,0.1,0.1,0.1,0.2,0.2c-0.3,0.1-0.6,0.4-0.6,0.6c-0.1,0.3-0.4,0.4-0.6,0.7V39c-0.6,0.6-1.3,0.9-1.8,1.6
		c0.1,0,0.1,0.1,0.1,0.1c-0.1,0.2-0.4,0.3-0.4,0.4c0,0.1,0,0.1,0.1,0.1c0.7-0.2,1.3-0.8,2-1.1c0.5-0.1,0.9-0.4,1.3-0.6
		c0.3-0.1,0.7-0.2,1-0.3c0,0.1,0,0.1,0.1,0.1h0.5c-0.1,0.1-0.3,0.1-0.3,0.1c0.2,0.2,0.6,0.1,0.8,0c0.2-0.1,0.4-0.1,0.6-0.1
		c0.1,0,0.1-0.1,0.1-0.2c0.2,0.1,0.3,0.1,0.5,0.1c1.5-0.3,2.9-0.6,4.3-1.3c-1.6-1.3-3.7-1.7-5.6-2.3c0.2,0,0.4,0.2,0.6,0
		c-0.3-0.2-0.7-0.1-1-0.3c0.1,0,0.2,0.1,0.2-0.1c-0.5-0.3-1-0.3-1.5-0.4c0.3-0.1,0.5-0.3,0.5-0.6c0-0.1-0.1-0.1-0.2-0.1
		c-0.8,0.4-1.3,1.1-1.6,1.9c0.4,0.2,0.9,0.1,1.4,0.1C38.9,36.6,38.6,36.6,38.3,36.7"/>
	<path class="st0" d="M35.8,34.2c-0.6,0.7-1.3,1.3-2.1,1.8c-0.6,1.1-1.2,2.1-2,3.2c0,0.1,0.1,0.1,0.1,0.1c1.5-1.7,2.9-3.1,4.8-4.3
		c0.1-0.1-0.2,0.2,0.1,0.1c0.8-0.2,1.1-1,1.4-1.6c0.5-0.8,1.4-1.1,2-1.8c0,0.1,0,0.1-0.1,0.2c0.1,0.1,0.1,0.1,0.2,0.1
		c0.3-0.2,0.6-0.1,0.8-0.4c-0.5-0.2-1.1-0.3-1.6-0.1C38,32.1,36.8,33.1,35.8,34.2"/>
	<path class="st0" d="M36.7,35.4c0.1-0.1,0.1-0.1,0.2-0.3c0-0.1,0-0.1-0.1-0.1c-0.2,0.1-0.4,0.3-0.5,0.6c0,0.1,0.1,0.1,0.1,0.1
		C36.6,35.6,36.6,35.6,36.7,35.4"/>
	<path class="st0" d="M41.7,40.2c-0.3,0.1-0.7,0.1-0.8,0.4c-0.1,0.1,0.2,0.1,0.3,0.1c0.4-0.2,0.9,0,1.3-0.4
		c-0.1-0.1-0.3-0.1-0.4-0.3C42,40,41.8,40.1,41.7,40.2"/>
	<path class="st2" d="M48.5,43.5c0.4-0.1,0.8-0.3,1.1-0.4v0.1c0.9-0.4,1.6-1.2,2.6-1.5c0.1,0,0.2,0.1,0.3,0.1c0.6-0.5,1.2-1.1,2-0.9
		c0,0.1,0,0.1,0.1,0.1c0.1,0,0.1,0,0.1-0.1c-0.3,0.2-0.5,0.4-0.8,0.6c-0.1,0.1,0,0.1,0.1,0.1c0.3-0.1,0.5-0.4,0.8-0.5
		c-0.1,0.1-0.1,0.2-0.1,0.3c-1.2,0.9-3,3-3,3h-8.5c1.3-0.2,2.5-0.6,3.8-0.7C47.4,43.6,47.9,43.6,48.5,43.5"/>
	<path class="st3" d="M73.2,40.4c0.1-0.5,0.3-0.9,0.1-1.4c-0.4-0.6,0.4-0.8,0.6-1.1c0.2-0.3-0.1-0.5-0.2-0.8
		c-0.1-0.1-0.3-0.1-0.4-0.3c0.4-0.2,1.1-0.6,0.8-1.1c-0.2-0.3-0.5-0.8-0.1-1.1c0.4-0.3,1.1-0.2,1.3-0.6c0.3-0.8-0.4-1.4-0.8-2
		c-0.2-0.4-0.4-0.6-0.7-1c-0.2-0.4-0.6-0.8-0.7-1.3c-0.2-0.5,0.1-0.9,0.1-1.4c0.1-0.9-0.2-1.9-0.4-2.8c-0.2-0.4-0.3-1-0.4-1.4
		c-0.1-0.2-0.1-0.5-0.3-0.7c-0.1-0.1-0.1-0.3,0-0.4c0.3-0.2,0.5-0.4,0.8-0.6c0.2-0.3,0.1-0.8-0.3-0.9c-0.4-0.2-0.4,0.4-0.7,0.6h-0.2
		c-0.1-0.2,0.1-0.2,0.2-0.4c0-0.1,0-0.2-0.1-0.2c-0.2,0-0.5-0.1-0.6-0.2c-0.6-0.9-1.5-1.3-2.4-1.7c0.2,0.1,0.5,0.1,0.8,0.1
		c0.4,0.1,0.9,0.1,1.3-0.1c0.3-0.1,0.4-0.6,0.5-0.9c0.1-0.2-0.1-0.6-0.2-0.8c-0.3-0.5-1.2-1-1.2-1h29.4l0,27.7H64.2
		c0.4-1.3,1.1-2.4,2.2-3.2c0.2-0.1,0.6-0.2,0.9-0.3c1.1,0,2.1,0.3,3.2,0.4c0.1,0,0.3,0.1,0.4,0.1c0.4,0.1,0.8,0.1,1.2-0.1
		C72.5,41.2,73,40.9,73.2,40.4"/>
	<path class="st4" d="M70.8,28.1c-0.4-0.1-0.7,0-1.1,0c-0.5,0.1-0.9,0.2-1.4,0.4c0.4-0.2,0.8-0.5,1.2-0.6c0.3-0.1,0.6-0.3,0.9-0.3
		c0.4-0.1,0.8-0.2,1.1-0.1c0.3,0.1,0.8,0.1,0.9,0.3c0.1,0.4-0.2,0.8-0.6,1c-0.1,0.1,0.2,0.2,0.2,0.3c-0.1,0.1-0.2,0.2-0.4,0.2
		c-0.1,0.1-0.3,0.3-0.4,0.4c0.1,0,0,0.2,0.1,0.2c-0.3,0.3,0.1,0.9-0.3,1.1c-0.4,0.1-0.9,0.1-1.4,0c0.3-0.1,0.6,0.1,0.7-0.2v-0.3
		c0-0.1-0.1-0.1-0.1-0.1c-0.1,0.1-0.1,0.1-0.1,0.1c0-0.1-0.1-0.3-0.2-0.3c-0.4,0.1-0.7-0.1-0.9-0.4c0.2-0.1,0.4-0.1,0.6-0.1
		c0.2,0,0.1-0.3,0.3-0.4h0.2c0.4-0.5,1.1-0.6,1.3-1.1C71.4,28.1,71.1,28.1,70.8,28.1"/>
	<path class="st5" d="M21.6,63.8c-0.3,0-0.5,0-0.6-0.2c-0.3-0.2-0.6-0.7-0.7-1c-0.3-0.5-0.6-1-0.9-1.4c0,0-0.1,0-0.1,0
		c-0.1,0-0.1,0-0.2,0v0.4c0,0.2,0,0.4,0,0.7c0,0.4,0,0.6,0.1,0.8c0.1,0.2,0.2,0.3,0.5,0.3v0.2l-0.2,0c-0.2,0-0.5,0-0.9,0
		c-0.4,0-0.7,0-0.9,0l-0.2,0v-0.2c0.2,0,0.3-0.1,0.4-0.2c0.1-0.1,0.2-0.3,0.2-0.4c0-0.2,0-0.4,0-1.2v-1.4c0-1,0-1.2-0.1-1.5
		c-0.1-0.2-0.2-0.3-0.5-0.3v-0.2c0.2,0,0.3,0,0.5,0c0.4,0,0.6,0,1.1,0c0.4,0,0.7,0,0.9,0c0.5,0,0.9,0.1,1.2,0.3
		c0.3,0.2,0.5,0.6,0.5,1.1c0,0.7-0.4,1.2-1.2,1.5c0.3,0.4,0.6,0.8,0.8,1.2c0.3,0.4,0.5,0.8,0.7,1c0.1,0.1,0.2,0.2,0.3,0.2v0.2
		C22.1,63.8,21.8,63.8,21.6,63.8 M19.5,58.7c-0.2,0-0.3,0-0.5,0.1c0,0.5,0,1.4,0,2c0.1,0,0.2,0,0.4,0c0.7,0,1.1-0.4,1.1-1.1
		C20.5,59.1,20.1,58.7,19.5,58.7"/>
	<path class="st5" d="M24.3,58.8L24,58.6l0.7-1l0.8,0.1L24.3,58.8z M25.8,63.6c-0.1,0.1-0.1,0.1-0.5,0.1c-0.2,0-0.4,0-0.7,0
		c-0.3,0-0.6,0-1,0c-0.3,0-0.7,0-1,0v-0.2c0.3,0,0.4-0.2,0.5-0.5c0-0.2,0-0.4,0-0.8v-1.9c0-0.4,0-0.5-0.1-0.7
		c-0.1-0.2-0.2-0.3-0.4-0.3v-0.2h3.2c0,0.2,0,0.4,0,0.6c0,0.2,0,0.3,0,0.5h-0.2c0-0.5-0.3-0.7-1.1-0.7c-0.1,0-0.3,0-0.5,0
		c0,0.3,0,0.4,0,0.8v0.8c0.1,0,0.2,0,0.3,0c0.7,0,0.9-0.1,1-0.5h0.2c0,0.1,0,0.3,0,0.7c0,0.3,0,0.6,0,0.7h-0.2
		c0-0.4-0.2-0.5-0.9-0.5c-0.1,0-0.2,0-0.4,0c0,0.4,0,0.8,0,1.3c0,0.3,0,0.4,0.2,0.4c0.1,0,0.3,0,0.5,0c0.7,0,1-0.2,1.1-0.7l0.3,0
		C26,63.1,25.8,63.5,25.8,63.6"/>
	<path class="st5" d="M28.6,61.7c-0.1,0-0.1,0-0.2,0l-0.1-0.3c0.6,0,1-0.4,1-0.9c0-0.5-0.4-0.9-0.9-0.9c-0.1,0-0.1,0-0.3,0
		c0,0.4,0,0.8,0,1.2V62c0,0.9,0,1,0.1,1.2c0.1,0.2,0.2,0.3,0.4,0.3v0.2l-0.2,0c-0.2,0-0.4,0-0.7,0c-0.3,0-0.6,0-0.7,0l-0.2,0v-0.2
		c0.3,0,0.4-0.2,0.5-0.5c0-0.2,0-0.3,0-1v-1.7c0-0.4,0-0.5-0.1-0.7c-0.1-0.2-0.2-0.3-0.4-0.3v-0.2c0.1,0,0,0,0.3,0
		c0.1,0,0.3,0,0.5,0c0.4,0,0.7,0,1,0c1,0,1.5,0.5,1.5,1.3C30.1,61.2,29.5,61.7,28.6,61.7"/>
	<path class="st5" d="M34.7,59.6c-0.1,0.1-0.1,0.2-0.1,0.5c0,0.3,0,0.5,0,0.9c0,0.2,0,0.6,0,1.1c0,0.5-0.1,0.8-0.3,1
		c-0.3,0.4-0.8,0.7-1.5,0.7c-0.4,0-0.8-0.1-1-0.3c-0.5-0.3-0.7-0.7-0.7-1.4c0-0.7,0-1,0-1.3c0-0.3,0-0.7,0-1c0-0.2-0.2-0.3-0.4-0.4
		v-0.2h0.1c0.2,0,0.4,0,0.7,0c0.3,0,0.6,0,0.7,0h0.2v0.2c-0.2,0-0.3,0.1-0.4,0.2C32,59.7,32,59.8,32,60.1c0,0.4,0,0.8,0,1.3
		c0,1.2,0,1.4,0.2,1.6c0.2,0.2,0.4,0.3,0.8,0.3c0.5,0,0.9-0.2,1-0.7c0.1-0.3,0.1-0.5,0.1-1.3v-0.7c0-0.8,0-1-0.1-1.1
		c-0.1-0.1-0.2-0.2-0.4-0.2v-0.2c0.3,0,0.4,0,0.7,0c0.3,0,0.4,0,0.7,0v0.2C34.9,59.4,34.8,59.5,34.7,59.6"/>
	<path class="st5" d="M38.9,63.4c-0.3,0.2-0.7,0.3-1.4,0.3c-0.4,0-0.7,0-1.1,0c-0.1,0-0.4,0-0.6,0l-0.1,0v-0.2
		c0.3,0,0.4-0.2,0.5-0.5c0-0.2,0-0.3,0-1v-1.3c0-0.6,0-0.9-0.1-1.1c-0.1-0.2-0.2-0.3-0.4-0.3v-0.2c0.3,0,0.5,0,0.9,0
		c0.4,0,1,0,1.4,0c0.6,0,1.2,0.3,1.2,1c0,0.5-0.3,0.9-1,1c0.7,0.1,1.1,0.6,1.1,1.2C39.3,62.9,39.2,63.2,38.9,63.4 M37.4,59.6
		c-0.1,0-0.2,0-0.4,0c0,0.4,0,1.2,0,1.5c0.1,0,0.2,0,0.3,0c0.7,0,1-0.3,1-0.8C38.3,59.9,38,59.6,37.4,59.6 M37.4,61.5
		c-0.1,0-0.2,0-0.4,0c0,0.2,0,0.2,0,0.5v0.4c0,0.4,0,0.6,0.1,0.7c0,0.2,0.2,0.2,0.5,0.2c0.6,0,0.9-0.3,0.9-0.9
		C38.4,61.8,38,61.5,37.4,61.5"/>
	<path class="st5" d="M43.1,63.6c-0.1,0.1-0.1,0.1-0.5,0.1c-0.2,0-0.3,0-0.5,0c-0.4,0-0.8,0-1.3,0c-0.3,0-0.6,0-0.8,0v-0.2
		c0.2,0,0.2,0,0.3-0.1c0.1-0.1,0.2-0.3,0.2-0.8v-1v-0.7c0-0.9,0-1-0.1-1.2c-0.1-0.2-0.2-0.3-0.4-0.3v-0.2l0.2,0c0.2,0,0.4,0,0.8,0
		c0.3,0,0.6,0,0.8,0l0.2,0v0.2c-0.3,0-0.5,0.2-0.5,0.5c0,0.1,0,0.2,0,1V62c0,0.9,0,1.1,0.1,1.2c0.1,0.1,0.2,0.1,0.5,0.1
		c0.4,0,0.6,0,0.7-0.1c0.2-0.1,0.3-0.3,0.4-0.6l0.2,0.1C43.3,63,43.2,63.5,43.1,63.6"/>
	<path class="st5" d="M45.5,63.7c-0.2,0-0.4,0-0.7,0c-0.3,0-0.6,0-0.7,0l-0.2,0v-0.2c0.3,0,0.4-0.2,0.5-0.5c0-0.2,0-0.3,0-1v-1.1
		c0-0.2,0-0.4,0-0.5c0-0.4,0-0.5-0.1-0.7c-0.1-0.2-0.2-0.3-0.4-0.3v-0.2l0.2,0c0.2,0,0.4,0,0.7,0c0.3,0,0.6,0,0.7,0l0.2,0v0.2
		c-0.3,0-0.4,0.2-0.5,0.5c0,0.2,0,0.4,0,1V62c0,0.9,0,1,0.1,1.2c0.1,0.2,0.2,0.3,0.4,0.3v0.2L45.5,63.7z"/>
	<path class="st5" d="M51.8,64.9c-0.5,0-1.1-0.2-1.6-0.5c-0.3-0.2-0.7-0.4-1-0.7c-0.2,0-0.3,0-0.5,0c-1.4,0-2.3-0.9-2.3-2.2
		c0-1.4,1-2.4,2.4-2.4c1.4,0,2.3,0.9,2.3,2.2c0,0.9-0.5,1.8-1.3,2.2c0.2,0.1,0.5,0.3,0.7,0.4c0.7,0.4,1.2,0.6,1.6,0.6
		c0.3,0,0.5-0.1,0.8-0.2l0.1,0.2C52.6,64.8,52.2,64.9,51.8,64.9 M48.6,59.6c-0.8,0-1.4,0.7-1.4,1.7c0,1.2,0.7,2.1,1.6,2.1
		c0.8,0,1.4-0.7,1.4-1.7C50.2,60.5,49.5,59.6,48.6,59.6"/>
	<path class="st5" d="M55.7,59.6c-0.1,0.1-0.1,0.2-0.1,0.5c0,0.3,0,0.5,0,0.9c0,0.2,0,0.6,0,1.1c0,0.5-0.1,0.8-0.3,1
		c-0.3,0.4-0.8,0.7-1.5,0.7c-0.4,0-0.7-0.1-1-0.3c-0.5-0.3-0.7-0.7-0.7-1.4c0-0.7,0-1,0-1.3c0-0.3,0-0.7,0-1c0-0.2-0.2-0.3-0.5-0.4
		v-0.2h0.2c0.2,0,0.4,0,0.7,0c0.3,0,0.6,0,0.8,0h0.2v0.2c-0.2,0-0.3,0.1-0.4,0.2c-0.1,0.1-0.1,0.2-0.1,0.5c0,0.4,0,0.8,0,1.3
		c0,1.2,0,1.4,0.2,1.6c0.2,0.2,0.4,0.3,0.8,0.3c0.5,0,0.9-0.2,1-0.7c0.1-0.3,0.1-0.5,0.1-1.3v-0.7c0-0.8,0-1-0.1-1.1
		c-0.1-0.1-0.2-0.2-0.4-0.2v-0.2c0.3,0,0.4,0,0.7,0c0.3,0,0.4,0,0.7,0v0.2C55.9,59.4,55.8,59.5,55.7,59.6"/>
	<path class="st5" d="M59.8,63.6c-0.1,0.1-0.1,0.1-0.5,0.1c-0.2,0-0.4,0-0.7,0c-0.3,0-0.6,0-1,0c-0.3,0-0.6,0-1,0v-0.2
		c0.3,0,0.4-0.2,0.5-0.5c0-0.2,0-0.4,0-0.8v-1.9c0-0.4,0-0.5-0.1-0.7c-0.1-0.2-0.2-0.3-0.4-0.3v-0.2h3.1v0.6c0,0.2,0,0.3,0,0.5h-0.2
		c0-0.5-0.3-0.7-1.1-0.7c-0.1,0-0.3,0-0.5,0c0,0.3,0,0.4,0,0.8v0.8c0.1,0,0.2,0,0.3,0c0.7,0,0.9-0.1,1-0.5h0.2c0,0.1,0,0.3,0,0.7
		c0,0.3,0,0.6,0,0.7h-0.2c0-0.4-0.2-0.5-0.9-0.5c-0.1,0-0.2,0-0.4,0c0,0.4,0,0.8,0,1.3c0,0.3,0,0.4,0.2,0.4c0.1,0,0.3,0,0.5,0
		c0.7,0,1-0.2,1.1-0.7l0.3,0C60,63.1,59.9,63.5,59.8,63.6"/>
	<path class="st5" d="M66,59.6c0-0.6-0.4-0.8-1.3-0.8c-0.2,0-0.4,0-0.6,0c0,0.6,0,0.9,0,1.8c0.2,0,0.3,0,0.4,0c0.8,0,1-0.1,1-0.6
		h0.3c0,0.2,0,0.5,0,0.7c0,0.3,0,0.6,0,0.9h-0.3c0-0.5-0.2-0.6-1.1-0.6c-0.1,0-0.2,0-0.4,0V62c0,0.2,0,0.4,0,0.6
		c0,0.4,0.1,0.8,0.6,0.9v0.2l-0.2,0c-0.2,0-0.5,0-0.9,0c-0.4,0-0.7,0-0.9,0l-0.2,0v-0.2c0.4,0,0.5-0.2,0.6-0.6c0-0.2,0-0.4,0-1.2v-2
		c0-0.4,0-0.6-0.1-0.8c-0.1-0.2-0.2-0.3-0.5-0.3v-0.2h3.8c0,0.1,0,0.4,0,0.8c0,0.3,0,0.4,0,0.5H66z"/>
	<path class="st5" d="M70.5,63.8c-0.2,0-0.4,0-0.5-0.1c-0.2-0.1-0.5-0.5-0.6-0.8c-0.2-0.4-0.5-0.8-0.7-1.2c0,0-0.1,0-0.1,0
		c-0.1,0-0.1,0-0.2,0V62v0.5c0,0.4,0,0.5,0.1,0.7c0.1,0.2,0.2,0.3,0.4,0.3v0.2l-0.2,0c-0.2,0-0.4,0-0.7,0c-0.3,0-0.6,0-0.7,0l-0.2,0
		v-0.2c0.2,0,0.2,0,0.3-0.1c0.1-0.1,0.1-0.2,0.1-0.4c0-0.2,0-0.3,0-1v-1.1c0-0.8,0-1-0.1-1.2c0-0.2-0.2-0.3-0.4-0.3v-0.2
		c0.1,0,0.3,0,0.4,0c0.4,0,0.5,0,0.9,0c0.4,0,0.6,0,0.7,0c0.5,0,0.7,0.1,1,0.2c0.3,0.2,0.4,0.5,0.4,0.9c0,0.5-0.4,1-1,1.2
		c0.3,0.3,0.5,0.6,0.7,1c0.2,0.3,0.4,0.6,0.6,0.8c0.1,0.1,0.1,0.1,0.3,0.2v0.2C70.9,63.8,70.8,63.8,70.5,63.8 M68.8,59.6
		c-0.1,0-0.3,0-0.4,0.1v1.7c0.1,0,0.2,0,0.3,0c0.6,0,0.9-0.3,0.9-0.9C69.6,59.9,69.3,59.6,68.8,59.6"/>
	<path class="st5" d="M75.4,63.7c-0.2,0-0.4,0-0.7,0c-0.3,0-0.6,0-0.7,0l-0.2,0v-0.2c0.2,0,0.3-0.1,0.3-0.3c0-0.1,0-0.2-0.1-0.4
		c-0.1-0.3-0.1-0.4-0.2-0.7h-1.3l-0.1,0.4c-0.1,0.3-0.2,0.5-0.2,0.6c0,0.2,0.1,0.3,0.3,0.3v0.2c-0.3,0-0.4,0-0.7,0
		c-0.3,0-0.4,0-0.7,0v-0.2c0.1,0,0.1,0,0.2-0.1c0.1-0.1,0.3-0.4,0.5-0.9l0.6-1.6c0.2-0.4,0.4-1.2,0.6-1.7h0.5
		c0.1,0.2,0.2,0.5,0.3,0.8l1,2.4c0.2,0.4,0.3,0.7,0.4,0.8c0.1,0.2,0.2,0.2,0.4,0.3v0.2L75.4,63.7z M73.2,60.4
		c-0.2,0.5-0.4,1.1-0.5,1.4h1L73.2,60.4z"/>
	<path class="st5" d="M80.2,59.6c-0.1,0.1-0.1,0.2-0.1,0.6c0,0.6,0,1.6,0,2v1c0,0.2,0,0.4,0,0.5h-0.5c-0.4-0.6-1.3-1.7-1.3-1.7
		c-0.1-0.1-0.9-1.2-1.4-1.7c0,0.1,0,0.1,0,0.5v0.4c0,0.5,0,1,0,1.5c0,0.3,0,0.4,0.1,0.6c0.1,0.1,0.2,0.2,0.4,0.2v0.2
		c-0.2,0-0.5,0-0.7,0c-0.3,0-0.5,0-0.7,0v-0.2c0.4,0,0.5-0.4,0.5-0.7c0-0.3,0-0.5,0-1v-1.4c0-0.6,0-0.7-0.1-0.8
		c-0.1-0.1-0.2-0.1-0.4-0.2v-0.2c0.2,0,0.3,0,0.6,0c0.3,0,0.4,0,0.6,0c0.1,0.1,0.2,0.3,0.7,0.8c0.7,0.8,1.3,1.5,1.8,2.2v-1.5
		c0-0.7,0-0.8,0-1c0-0.2-0.2-0.3-0.4-0.4v-0.2c0.3,0,0.4,0,0.7,0c0.3,0,0.4,0,0.7,0v0.2C80.4,59.4,80.3,59.5,80.2,59.6"/>
	<path class="st5" d="M84.9,63.6c-0.4,0.2-0.8,0.2-1.4,0.2l-0.1,0.3h0.1c0.3,0,0.4,0.2,0.4,0.4c0,0.4-0.3,0.6-0.7,0.6
		c-0.1,0-0.3,0-0.4-0.1l0.1-0.3c0.1,0,0.2,0.1,0.2,0.1c0.2,0,0.3-0.1,0.3-0.3c0-0.1-0.1-0.2-0.2-0.2c-0.1,0-0.1,0-0.2,0.1l-0.1,0
		l0.1-0.5c-0.6-0.1-1-0.2-1.4-0.6c-0.4-0.4-0.6-1-0.6-1.7c0-1.5,0.9-2.3,2.5-2.3c0.5,0,0.9,0.1,1.3,0.2c0,0.2,0,0.3,0,0.5
		c0,0.1,0,0.4,0,0.5h-0.3c-0.1-0.5-0.5-0.7-1.1-0.7c-0.9,0-1.5,0.6-1.5,1.7c0,1.2,0.7,2.1,1.6,2.1c0.6,0,0.9-0.3,1.1-0.8l0.3,0
		C85,62.8,84.9,63.2,84.9,63.6"/>
	<path class="st5" d="M89.6,63.7c-0.2,0-0.4,0-0.7,0c-0.3,0-0.6,0-0.7,0l-0.2,0v-0.2c0.2,0,0.3-0.1,0.3-0.3c0-0.1,0-0.2-0.1-0.4
		c-0.1-0.3-0.1-0.4-0.2-0.7h-1.3l-0.1,0.4c-0.1,0.3-0.2,0.5-0.2,0.6c0,0.2,0.1,0.3,0.3,0.3v0.2c-0.3,0-0.4,0-0.7,0
		c-0.3,0-0.4,0-0.7,0v-0.2c0.1,0,0.1,0,0.2-0.1c0.1-0.1,0.3-0.4,0.5-0.9l0.6-1.6c0.2-0.4,0.4-1.2,0.6-1.7h0.5
		c0.1,0.2,0.2,0.5,0.3,0.8l0.9,2.4c0.2,0.4,0.3,0.7,0.4,0.8c0.1,0.2,0.2,0.2,0.3,0.3v0.2L89.6,63.7z M87.4,60.4
		c-0.2,0.5-0.4,1.1-0.5,1.4h1L87.4,60.4z"/>
	<path class="st5" d="M91.8,63.7c-0.2,0-0.4,0-0.7,0c-0.3,0-0.6,0-0.8,0l-0.2,0v-0.2c0.3,0,0.4-0.2,0.5-0.5c0-0.2,0-0.3,0-1v-1.1
		c0-0.2,0-0.4,0-0.5c0-0.4,0-0.5-0.1-0.7c-0.1-0.2-0.2-0.3-0.4-0.3v-0.2l0.2,0c0.2,0,0.4,0,0.8,0c0.3,0,0.6,0,0.7,0l0.2,0v0.2
		c-0.3,0-0.4,0.2-0.5,0.5c0,0.2,0,0.4,0,1V62c0,0.9,0,1,0.1,1.2c0.1,0.2,0.2,0.3,0.4,0.3v0.2L91.8,63.7z"/>
	<path class="st5" d="M93.9,63.8c-0.4,0-0.7-0.1-1.1-0.2c0-0.2-0.1-0.6-0.1-1l0.3,0c0.2,0.5,0.5,0.8,1,0.8c0.5,0,0.8-0.2,0.8-0.6
		c0-0.3-0.2-0.5-0.5-0.7l-0.7-0.5c-0.5-0.3-0.8-0.6-0.8-1.2c0-0.8,0.6-1.2,1.5-1.2c0.4,0,0.8,0.1,1.1,0.2v0.4v0.5h-0.2
		c-0.1-0.5-0.4-0.8-0.9-0.8c-0.4,0-0.7,0.3-0.7,0.6c0,0.3,0.2,0.5,0.6,0.8l0.6,0.4c0.5,0.3,0.9,0.7,0.9,1.2
		C95.5,63.3,94.8,63.8,93.9,63.8"/>
	<path class="st5" d="M99.3,63.6c-0.1,0.1-0.1,0.1-0.5,0.1c-0.2,0-0.4,0-0.7,0c-0.3,0-0.6,0-1,0c-0.3,0-0.6,0-1,0v-0.2
		c0.3,0,0.4-0.2,0.5-0.5c0-0.2,0-0.4,0-0.8v-1.9c0-0.4,0-0.5-0.1-0.7c-0.1-0.2-0.2-0.3-0.4-0.3v-0.2h3.1c0,0.2,0,0.4,0,0.6
		c0,0.2,0,0.3,0,0.5h-0.2c0-0.5-0.3-0.7-1.1-0.7c-0.1,0-0.3,0-0.5,0c0,0.3,0,0.4,0,0.8v0.8c0.1,0,0.2,0,0.3,0c0.7,0,0.9-0.1,1-0.5
		H99c0,0.1,0,0.3,0,0.7c0,0.3,0,0.6,0,0.7h-0.2c0-0.4-0.2-0.5-0.9-0.5c-0.1,0-0.2,0-0.4,0c0,0.4,0,0.8,0,1.3c0,0.3,0,0.4,0.2,0.4
		c0.1,0,0.3,0,0.5,0c0.7,0,1-0.2,1.1-0.7l0.3,0C99.5,63.1,99.4,63.5,99.3,63.6"/>
	<path class="st5" d="M19.7,52.2c-0.1,0.1-0.2,0.1-0.4,0.1c-0.3,0-0.6,0-1,0c-0.3,0-0.5,0-0.6,0c-0.2,0-0.7,0-0.8,0l-0.1,0l0-0.1
		c0.2,0,0.3-0.1,0.4-0.2c0.1-0.1,0.2-0.3,0.3-0.7c0.1-0.4,0.1-0.6,0.3-1.2l0.1-0.5c0.1-0.5,0.1-0.8,0.1-1c0-0.3-0.1-0.4-0.4-0.4
		l0-0.1c0,0,0.1,0,0.1,0h0.7h0.7c0,0,0.1,0,0.1,0l0,0.1c-0.2,0-0.3,0.1-0.4,0.2c-0.2,0.2-0.3,0.5-0.5,1.8l-0.1,0.4
		c-0.1,0.5-0.1,0.7-0.2,1c0,0.1,0,0.2,0,0.2c0,0.3,0.1,0.3,0.6,0.3c0.7,0,1-0.2,1.3-0.7l0.2,0.1C20,51.7,19.8,52.1,19.7,52.2"/>
	<path class="st5" d="M21.7,49c-0.2,0-0.3-0.1-0.3-0.3c0-0.2,0.2-0.4,0.4-0.4c0.2,0,0.3,0.1,0.3,0.3C22.1,48.8,21.9,49,21.7,49
		 M21,52.3c-0.1,0-0.2-0.1-0.2-0.2c0-0.1,0-0.2,0.1-0.3c0.1-0.4,0.2-0.8,0.3-1.1c0.1-0.3,0.1-0.6,0.1-0.7c0-0.1,0-0.1-0.1-0.1
		C21,50,21,50,20.8,50l0,0l0-0.2c0.4-0.1,0.7-0.2,0.9-0.2c0.1,0,0.1,0,0.1,0.1c0,0.1,0,0.3-0.2,0.8l-0.1,0.4c-0.2,0.6-0.2,0.9-0.2,1
		c0,0.1,0.1,0.1,0.2,0.1c0.1,0,0.2,0,0.4-0.1l0,0.2C21.5,52.2,21.2,52.3,21,52.3"/>
	<path class="st5" d="M24.6,52c-0.3,0.2-0.6,0.3-1,0.3c-0.5,0-0.8-0.1-0.8-0.2c0-0.1,0-0.1,0.1-0.4l0.3-1.5c0.1-0.5,0.2-0.9,0.3-1.4
		c0.1-0.3,0.1-0.5,0.1-0.6c0-0.1,0-0.1-0.1-0.1c0,0-0.2,0-0.3,0.1l0-0.2l0.1,0c0.4-0.1,0.7-0.2,0.8-0.2c0.1,0,0.1,0,0.1,0.1
		c0,0.1,0,0.2-0.1,0.7l-0.2,0.9c-0.1,0.3-0.1,0.4-0.1,0.5c0.4-0.2,0.8-0.4,1.1-0.4c0.4,0,0.6,0.2,0.6,0.6
		C25.4,50.9,25.1,51.6,24.6,52 M24.6,49.9c-0.1,0-0.3,0-0.4,0.1c-0.2,0.1-0.3,0.2-0.4,0.3c-0.1,0.1-0.1,0.3-0.2,0.7
		c-0.1,0.4-0.2,0.7-0.2,0.8c0,0.1,0.2,0.2,0.4,0.2c0.3,0,0.5-0.1,0.7-0.4c0.3-0.4,0.5-1,0.5-1.4C24.9,50.1,24.8,49.9,24.6,49.9"/>
	<path class="st5" d="M26.8,51.2c0,0-0.1,0-0.2,0c0,0.1,0,0.2,0,0.3c0,0.3,0.1,0.5,0.3,0.5c0.2,0,0.5-0.1,0.9-0.4l0.1,0.2
		c-0.5,0.3-0.9,0.4-1.2,0.4c-0.4,0-0.6-0.3-0.6-0.7c0-1.1,0.7-2,1.6-2c0.4,0,0.7,0.2,0.7,0.5C28.3,50.8,27.7,51.2,26.8,51.2
		 M27.5,49.9c-0.3,0-0.7,0.4-0.8,1.1h0.1c0.6,0,1.1-0.3,1.1-0.7C27.8,50.1,27.7,49.9,27.5,49.9"/>
	<path class="st5" d="M31,50.5l-0.2,0c0-0.1,0-0.2,0-0.3c0-0.1-0.1-0.2-0.3-0.2c-0.1,0-0.2,0.1-0.3,0.2c-0.3,0.3-0.4,0.7-0.5,1.5
		l-0.1,0.6c-0.3,0-0.3,0-0.6,0c0.1-0.2,0.1-0.4,0.2-0.7l0.1-0.6c0.1-0.4,0.1-0.7,0.1-0.8c0-0.2,0-0.2-0.1-0.2c0,0-0.1,0-0.2,0
		l-0.2,0l0-0.2c0.3-0.1,0.7-0.2,0.8-0.2c0.1,0,0.1,0,0.1,0.1c0,0.1,0,0.2,0,0.3c0.3-0.2,0.6-0.4,0.7-0.4c0.1,0,0.3,0.1,0.4,0.2
		C31.1,50.1,31,50.3,31,50.5"/>
	<path class="st5" d="M33.2,50l-0.5,0l-0.3,1.3c-0.1,0.3-0.1,0.4-0.1,0.5c0,0.1,0,0.1,0.1,0.1c0,0,0.1,0,0.3-0.1l0.1,0l0,0.2
		c-0.3,0.2-0.7,0.2-0.9,0.2c-0.1,0-0.2-0.1-0.2-0.2c0-0.1,0-0.3,0.1-0.5c0-0.2,0.1-0.4,0.2-0.7l0.2-1l-0.4,0l0-0.2
		c0.5-0.1,0.6-0.4,0.7-0.8l0.3-0.1l-0.2,0.8h0.5L33.2,50z"/>
	<path class="st5" d="M35.2,49.2L35,49.1l0.8-0.9l0.6,0.1L35.2,49.2z M34.5,51.2c0,0-0.1,0-0.2,0c0,0.1,0,0.2,0,0.3
		c0,0.3,0.1,0.5,0.4,0.5c0.2,0,0.5-0.1,0.9-0.4l0.1,0.2c-0.5,0.3-0.9,0.4-1.2,0.4c-0.4,0-0.6-0.3-0.6-0.7c0-1.1,0.7-2,1.6-2
		c0.4,0,0.7,0.2,0.7,0.5C36,50.8,35.3,51.2,34.5,51.2 M35.1,49.9c-0.3,0-0.6,0.4-0.8,1.1h0.1c0.6,0,1.1-0.3,1.1-0.7
		C35.5,50.1,35.3,49.9,35.1,49.9"/>
	<path class="st5" d="M46.5,47.5l-0.2-0.2l0.8-0.9l0.6,0.2L46.5,47.5z M47.7,48.9h-0.2c0-0.1,0-0.1,0-0.1c0-0.4-0.2-0.5-0.9-0.5
		c-0.2,0-0.4,0-0.6,0c-0.1,0.5-0.2,1-0.3,1.6h0.2c0.4,0,0.6,0,0.7,0c0.3,0,0.4-0.2,0.5-0.4h0.2c-0.1,0.4-0.2,0.9-0.3,1.3h-0.2
		c0,0,0-0.1,0-0.1c0-0.3-0.2-0.4-0.7-0.4c-0.3,0-0.4,0-0.6,0c0,0.2,0,0-0.1,0.8c-0.1,0.4-0.1,0.6-0.1,0.7c0,0.2,0.1,0.3,0.6,0.3
		c0.8,0,1.1-0.1,1.3-0.7l0.2,0.1c-0.1,0.4-0.3,0.8-0.4,0.9c-0.1,0.1-0.1,0.1-0.4,0.1c-0.2,0-0.5,0-0.7,0c-0.3,0-0.6,0-0.9,0
		c-0.3,0-0.6,0-0.9,0l0-0.1c0.2,0,0.3-0.1,0.4-0.2c0.1-0.1,0.2-0.3,0.3-0.7c0.1-0.4,0.1-0.5,0.3-1.2l0.1-0.5c0.1-0.5,0.1-0.8,0.1-1
		c0-0.3-0.1-0.4-0.4-0.4l0-0.1h3C47.8,48.2,47.8,48.6,47.7,48.9"/>
	<path class="st5" d="M51,50l-0.4,0c0.1,0.1,0.1,0.2,0.1,0.4c0,0.6-0.5,1.1-1.2,1.1c-0.1,0-0.2,0-0.4-0.1c-0.2,0.1-0.2,0.1-0.2,0.2
		c0,0.1,0.1,0.1,0.4,0.2l0.5,0.2c0.5,0.2,0.8,0.3,0.8,0.7c0,0.7-0.7,1.2-1.6,1.2c-0.7,0-1.2-0.3-1.2-0.9c0-0.5,0.3-0.8,0.9-0.9
		c-0.3-0.1-0.4-0.2-0.4-0.3c0-0.1,0.2-0.3,0.6-0.5c-0.2-0.1-0.3-0.3-0.3-0.6c0-0.6,0.5-1.1,1.2-1.1c0.2,0,0.3,0,0.4,0.1H51L51,50z
		 M49.7,49.9c-0.4,0-0.6,0.4-0.6,0.8c0,0.3,0.2,0.5,0.4,0.5c0.3,0,0.6-0.4,0.6-0.8C50.1,50.1,50,49.9,49.7,49.9 M49.8,52.6
		c-0.2-0.1-0.5-0.2-0.8-0.3c-0.4,0.1-0.8,0.4-0.8,0.8c0,0.4,0.3,0.6,0.8,0.6c0.6,0,1.1-0.4,1.1-0.8C50.1,52.7,50,52.6,49.8,52.6"/>
	<path class="st5" d="M53.4,52.4c-0.1,0-0.2-0.1-0.2-0.4c-0.5,0.3-0.8,0.4-1.2,0.4c-0.4,0-0.6-0.2-0.6-0.6c0-0.4,0.2-0.8,0.4-1.2
		c0.4-0.6,0.8-0.9,1.5-0.9c0.3,0,0.6,0.1,0.8,0.1l0,0.1c-0.2,0.8-0.4,1.6-0.4,1.9c0,0.2,0,0.3,0.1,0.3c0.1,0,0.2,0,0.4-0.1l0,0.2
		C53.9,52.3,53.5,52.4,53.4,52.4 M53.1,49.9c-0.3,0-0.5,0.2-0.7,0.6c-0.3,0.4-0.4,0.9-0.4,1.3c0,0.2,0.1,0.3,0.3,0.3
		c0.2,0,0.7-0.2,0.8-0.4c0.1-0.1,0.1-0.2,0.2-0.5c0.1-0.4,0.2-0.8,0.3-1.2C53.4,50,53.2,49.9,53.1,49.9"/>
	<path class="st5" d="M56.3,48.5c-0.2,0.9-0.4,1.8-0.6,2.8c-0.1,0.3-0.1,0.5-0.1,0.6c0,0.1,0.1,0.1,0.1,0.1c0.1,0,0.2,0,0.4-0.1
		l0,0.2c-0.3,0.1-0.7,0.3-0.9,0.3c-0.1,0-0.2-0.1-0.2-0.2c0-0.1,0-0.2,0.1-0.6c0.2-0.9,0.4-1.8,0.6-2.6c0.1-0.4,0.1-0.6,0.1-0.6
		c0-0.1,0-0.1-0.1-0.1c-0.1,0-0.2,0-0.3,0.1l0-0.2c0.3-0.1,0.7-0.2,0.9-0.2c0.1,0,0.1,0,0.1,0.1C56.4,48,56.4,48.2,56.3,48.5"/>
	<path class="st5" d="M58,49c-0.2,0-0.3-0.1-0.3-0.3c0-0.2,0.2-0.4,0.4-0.4c0.2,0,0.3,0.1,0.3,0.3C58.4,48.8,58.2,49,58,49
		 M57.2,52.3c-0.1,0-0.2-0.1-0.2-0.2c0-0.1,0-0.2,0.1-0.3c0.1-0.4,0.2-0.8,0.3-1.1c0.1-0.3,0.1-0.6,0.1-0.7c0-0.1,0-0.1-0.1-0.1
		c-0.1,0-0.1,0-0.3,0.1l0,0l0-0.2c0.4-0.1,0.7-0.2,0.9-0.2c0.1,0,0.1,0,0.1,0.1c0,0.1,0,0.3-0.2,0.8l-0.1,0.4
		c-0.2,0.6-0.2,0.9-0.2,1c0,0.1,0,0.1,0.1,0.1c0.1,0,0.2,0,0.4-0.1l0,0.2C57.8,52.2,57.4,52.3,57.2,52.3"/>
	<path class="st5" d="M60.5,50L60,50l-0.3,1.3c-0.1,0.3-0.1,0.4-0.1,0.5c0,0.1,0,0.1,0.1,0.1c0,0,0.1,0,0.3-0.1l0.1,0l0,0.2
		c-0.3,0.2-0.7,0.2-0.9,0.2c-0.1,0-0.2-0.1-0.2-0.2c0-0.1,0-0.3,0.1-0.5c0.1-0.2,0.1-0.4,0.1-0.7l0.2-1l-0.3,0l0-0.2
		c0.4-0.1,0.6-0.4,0.7-0.8l0.3-0.1l-0.2,0.8h0.5L60.5,50z"/>
	<path class="st5" d="M62.6,49.2l-0.2-0.2l0.8-0.9l0.6,0.1L62.6,49.2z M61.8,51.2c0,0-0.1,0-0.2,0c0,0.1,0,0.2,0,0.3
		c0,0.3,0.1,0.5,0.3,0.5c0.2,0,0.5-0.1,0.9-0.4l0.1,0.2c-0.5,0.3-0.9,0.4-1.2,0.4c-0.4,0-0.6-0.3-0.6-0.7c0-1.1,0.7-2,1.6-2
		c0.4,0,0.7,0.2,0.7,0.5C63.3,50.8,62.7,51.2,61.8,51.2 M62.5,49.9c-0.3,0-0.7,0.4-0.8,1.1h0.1c0.6,0,1.1-0.3,1.1-0.7
		C62.8,50.1,62.7,49.9,62.5,49.9"/>
	<path class="st5" d="M75,48.8h-0.2c0-0.1,0-0.1,0-0.2c0-0.1,0-0.2-0.1-0.3c-0.1-0.1-0.4-0.2-0.9-0.2c-0.1,0-0.3,0-0.5,0
		c-0.1,0.5-0.2,1.1-0.3,1.6c0.1,0,0.2,0,0.4,0c0.7,0,0.9-0.1,1-0.5h0.2c-0.1,0.4-0.2,0.8-0.2,1.3h-0.2c0,0,0-0.1,0-0.1
		c0-0.1,0-0.2-0.1-0.3c-0.1-0.1-0.2-0.1-0.6-0.1c-0.2,0-0.3,0-0.4,0l-0.1,0.5c-0.1,0.6-0.2,0.9-0.2,1.1c0,0.3,0.1,0.4,0.4,0.4l0,0.1
		l-0.1,0h-0.6h-0.8l-0.1,0l0-0.1c0.2,0,0.3-0.1,0.4-0.2c0.1-0.1,0.2-0.3,0.3-0.7c0.1-0.4,0.1-0.6,0.3-1.2l0.1-0.5
		c0.1-0.5,0.1-0.8,0.1-1c0-0.3-0.1-0.4-0.4-0.4l0-0.1h2.9C75.1,48.2,75,48.5,75,48.8"/>
	<path class="st5" d="M77.2,50.5l-0.2,0c0-0.1,0-0.2,0-0.3c0-0.1-0.1-0.2-0.3-0.2c-0.1,0-0.2,0.1-0.3,0.2c-0.2,0.3-0.3,0.7-0.5,1.5
		l-0.1,0.6c-0.2,0-0.3,0-0.6,0c0.1-0.2,0.1-0.4,0.2-0.7l0.1-0.6c0.1-0.4,0.1-0.7,0.1-0.8c0-0.2,0-0.2-0.1-0.2c0,0-0.1,0-0.2,0
		l-0.2,0l0-0.2c0.3-0.1,0.7-0.2,0.9-0.2c0.1,0,0.1,0,0.1,0.1c0,0.1,0,0.2,0,0.3c0.3-0.2,0.5-0.4,0.7-0.4c0.1,0,0.3,0.1,0.4,0.2
		C77.4,50.1,77.3,50.3,77.2,50.5"/>
	<path class="st5" d="M79.8,52.4c-0.1,0-0.2-0.1-0.2-0.4c-0.5,0.3-0.8,0.4-1.2,0.4c-0.4,0-0.6-0.2-0.6-0.6c0-0.4,0.2-0.8,0.4-1.2
		c0.4-0.6,0.8-0.9,1.5-0.9c0.3,0,0.6,0.1,0.8,0.1l0,0.1c-0.2,0.8-0.4,1.6-0.4,1.9c0,0.2,0,0.3,0.1,0.3c0,0,0.2,0,0.3-0.1l0,0.2
		C80.2,52.3,79.9,52.4,79.8,52.4 M79.5,49.9c-0.3,0-0.5,0.2-0.8,0.6c-0.2,0.4-0.4,0.9-0.4,1.3c0,0.2,0.1,0.3,0.3,0.3
		c0.2,0,0.7-0.2,0.8-0.4c0.1-0.1,0.1-0.2,0.2-0.5c0.1-0.4,0.2-0.8,0.3-1.2C79.8,50,79.6,49.9,79.5,49.9"/>
	<path class="st5" d="M82.9,50l-0.5,0l-0.3,1.3C82,51.7,82,51.8,82,51.9c0,0.1,0,0.1,0.1,0.1c0,0,0.1,0,0.3-0.1l0.1,0l0,0.2
		c-0.3,0.2-0.7,0.2-0.9,0.2c-0.1,0-0.2-0.1-0.2-0.2c0-0.1,0-0.3,0.1-0.5c0.1-0.2,0.1-0.4,0.2-0.7l0.2-1l-0.3,0l0-0.2
		c0.5-0.1,0.6-0.4,0.7-0.8l0.3-0.1l-0.2,0.8H83L82.9,50z"/>
	<path class="st5" d="M84.2,51.2c0,0-0.1,0-0.2,0c0,0.1,0,0.2,0,0.3c0,0.3,0.1,0.5,0.4,0.5c0.2,0,0.5-0.1,0.9-0.4l0.1,0.2
		c-0.5,0.3-0.8,0.4-1.2,0.4c-0.4,0-0.6-0.3-0.6-0.7c0-1.1,0.7-2,1.6-2c0.4,0,0.7,0.2,0.7,0.5C85.7,50.8,85.1,51.2,84.2,51.2
		 M84.9,49.9c-0.3,0-0.6,0.4-0.8,1.1h0.1c0.6,0,1.1-0.3,1.1-0.7C85.2,50.1,85.1,49.9,84.9,49.9"/>
	<path class="st5" d="M88.3,50.5l-0.2,0c0-0.1,0-0.2,0-0.3c0-0.1-0.1-0.2-0.3-0.2c-0.1,0-0.2,0.1-0.3,0.2c-0.3,0.3-0.4,0.7-0.5,1.5
		L87,52.3c-0.2,0-0.3,0-0.6,0c0.1-0.2,0.1-0.4,0.2-0.7l0.2-0.6c0.1-0.4,0.1-0.7,0.1-0.8c0-0.2,0-0.2-0.1-0.2c0,0-0.1,0-0.2,0l-0.2,0
		l0-0.2c0.3-0.1,0.7-0.2,0.9-0.2c0.1,0,0.1,0,0.1,0.1c0,0.1,0,0.2,0,0.3c0.3-0.2,0.6-0.4,0.7-0.4c0.1,0,0.3,0.1,0.4,0.2
		C88.5,50.1,88.4,50.3,88.3,50.5"/>
	<path class="st5" d="M91,52.3c-0.1,0-0.2-0.1-0.2-0.2c0-0.1,0-0.2,0.1-0.6l0.1-0.3c0.2-0.8,0.3-1.1,0.3-1.2c0-0.1-0.1-0.1-0.1-0.1
		c-0.1,0-0.3,0.1-0.5,0.2c-0.2,0.1-0.4,0.3-0.4,0.4c-0.1,0.1-0.1,0.3-0.2,0.6c-0.1,0.5-0.2,0.8-0.2,1.1c-0.3,0-0.3,0-0.6,0
		c0.1-0.5,0.2-0.9,0.3-1.3c0.1-0.4,0.1-0.7,0.1-0.8c0-0.2,0-0.2-0.1-0.2c-0.1,0-0.2,0-0.3,0.1l0-0.2c0.3-0.1,0.7-0.2,0.8-0.2
		c0.1,0,0.2,0.1,0.2,0.4v0c0.5-0.3,1-0.4,1.4-0.4c0.2,0,0.3,0.1,0.3,0.2c0,0.1,0,0.3-0.2,0.9c-0.1,0.3-0.2,0.6-0.2,0.8
		c0,0.2-0.1,0.3-0.1,0.4c0,0.1,0,0.1,0.1,0.1c0.1,0,0.2,0,0.3-0.1l0,0.2C91.5,52.2,91.1,52.3,91,52.3"/>
	<path class="st5" d="M93.7,49c-0.2,0-0.3-0.1-0.3-0.3c0-0.2,0.2-0.4,0.4-0.4c0.2,0,0.3,0.1,0.3,0.3C94.1,48.8,93.9,49,93.7,49
		 M93,52.3c-0.1,0-0.2-0.1-0.2-0.2c0-0.1,0-0.2,0.1-0.3c0.1-0.4,0.2-0.8,0.3-1.1c0.1-0.3,0.1-0.6,0.1-0.7c0-0.1,0-0.1-0.1-0.1
		c-0.1,0-0.1,0-0.3,0.1l-0.1,0l0-0.2c0.4-0.1,0.7-0.2,0.9-0.2c0.1,0,0.1,0,0.1,0.1c0,0.1,0,0.3-0.2,0.8l-0.1,0.4
		c-0.2,0.6-0.2,0.9-0.2,1c0,0.1,0.1,0.1,0.2,0.1c0.1,0,0.2,0,0.4-0.1l0,0.2C93.6,52.2,93.2,52.3,93,52.3"/>
	<path class="st5" d="M96.3,50l-0.5,0l-0.3,1.3c-0.1,0.3-0.1,0.4-0.1,0.5c0,0.1,0,0.1,0.1,0.1c0,0,0.1,0,0.3-0.1l0.1,0l0,0.2
		c-0.3,0.2-0.7,0.2-0.9,0.2c-0.1,0-0.2-0.1-0.2-0.2c0-0.1,0-0.3,0.1-0.5c0.1-0.2,0.1-0.4,0.1-0.7l0.2-1l-0.3,0l0-0.2
		c0.4-0.1,0.6-0.4,0.7-0.8L96,49l-0.2,0.8h0.6L96.3,50z"/>
	<path class="st5" d="M98.3,49.2l-0.2-0.2l0.8-0.9l0.6,0.1L98.3,49.2z M97.6,51.2c0,0-0.1,0-0.2,0c0,0.1,0,0.2,0,0.3
		c0,0.3,0.1,0.5,0.3,0.5c0.2,0,0.5-0.1,0.9-0.4l0.1,0.2c-0.5,0.3-0.9,0.4-1.2,0.4c-0.4,0-0.6-0.3-0.6-0.7c0-1.1,0.7-2,1.6-2
		c0.4,0,0.7,0.2,0.7,0.5C99.1,50.8,98.4,51.2,97.6,51.2 M98.3,49.9c-0.3,0-0.6,0.4-0.8,1.1h0.1c0.6,0,1.1-0.3,1.1-0.7
		C98.6,50.1,98.4,49.9,98.3,49.9"/>
	<path class="st5" d="M67.5,51.1c0.4,0,0.8-0.4,0.8-0.8c0-0.4-0.4-0.8-0.8-0.8c-0.4,0-0.8,0.4-0.8,0.8
		C66.7,50.8,67.1,51.1,67.5,51.1"/>
	<path class="st5" d="M40.2,51.1c0.4,0,0.8-0.4,0.8-0.8c0-0.4-0.4-0.8-0.8-0.8c-0.4,0-0.8,0.4-0.8,0.8
		C39.4,50.8,39.8,51.1,40.2,51.1"/>
	<rect x="17.3" y="54.9" class="st5" width="82" height="0.7"/>
	<rect x="240.4" class="st0" width="213.1" height="79.4"/>
	<rect x="240.4" class="st1" width="213.1" height="79.4"/>
	<path class="st5" d="M322.3,24.6l-3-6.6v5.3c0,0.5,0.1,0.8,0.2,0.9c0.1,0.2,0.4,0.2,0.7,0.2h0.3v0.2h-2.7v-0.2h0.3
		c0.3,0,0.6-0.1,0.7-0.3c0.1-0.1,0.1-0.4,0.1-0.8v-5.1c0-0.3,0-0.6-0.1-0.8c-0.1-0.1-0.2-0.2-0.3-0.3c-0.1-0.1-0.4-0.1-0.7-0.1v-0.2
		h2.2l2.9,6.2l2.8-6.2h2.2v0.2h-0.3c-0.3,0-0.6,0.1-0.7,0.3c-0.1,0.1-0.1,0.4-0.1,0.8v5.1c0,0.5,0.1,0.8,0.2,0.9
		c0.1,0.2,0.4,0.2,0.7,0.2h0.3v0.2h-3.3v-0.2h0.3c0.3,0,0.6-0.1,0.7-0.3c0.1-0.1,0.1-0.4,0.1-0.8V18l-3,6.6H322.3z"/>
	<path class="st5" d="M331.7,24.4v0.2h-3.4v-0.2h0.3c0.3,0,0.6-0.1,0.7-0.3c0.1-0.1,0.1-0.4,0.1-0.9v-5.1c0-0.4,0-0.7-0.1-0.8
		c0-0.1-0.1-0.2-0.2-0.3c-0.2-0.1-0.3-0.1-0.5-0.1h-0.3v-0.2h3.4v0.2h-0.3c-0.3,0-0.6,0.1-0.7,0.3c-0.1,0.1-0.1,0.4-0.1,0.9v5.1
		c0,0.4,0,0.7,0.1,0.8c0,0.1,0.1,0.2,0.2,0.3c0.2,0.1,0.3,0.1,0.5,0.1H331.7z"/>
	<path class="st5" d="M331.8,16.7h2.1l4.8,5.9v-4.5c0-0.5-0.1-0.8-0.2-0.9c-0.1-0.2-0.4-0.2-0.7-0.2h-0.3v-0.2h2.7v0.2h-0.3
		c-0.3,0-0.6,0.1-0.7,0.3c-0.1,0.1-0.1,0.4-0.1,0.8v6.6H339l-5.2-6.3v4.8c0,0.5,0.1,0.8,0.2,0.9c0.1,0.2,0.4,0.2,0.7,0.2h0.3v0.2
		h-2.7v-0.2h0.3c0.3,0,0.6-0.1,0.7-0.3c0.1-0.1,0.1-0.4,0.1-0.8v-5.5c-0.2-0.3-0.4-0.4-0.5-0.5c-0.1-0.1-0.3-0.2-0.5-0.2
		c-0.1,0-0.3-0.1-0.5-0.1V16.7z"/>
	<path class="st5" d="M344.2,24.4v0.2h-3.4v-0.2h0.3c0.3,0,0.6-0.1,0.7-0.3c0.1-0.1,0.1-0.4,0.1-0.9v-5.1c0-0.4,0-0.7-0.1-0.8
		c0-0.1-0.1-0.2-0.2-0.3c-0.2-0.1-0.3-0.1-0.5-0.1h-0.3v-0.2h3.4v0.2h-0.3c-0.3,0-0.6,0.1-0.7,0.3c-0.1,0.1-0.1,0.4-0.1,0.9v5.1
		c0,0.4,0,0.7,0.1,0.8c0,0.1,0.1,0.2,0.2,0.3c0.2,0.1,0.3,0.1,0.5,0.1H344.2z"/>
	<path class="st5" d="M349.9,16.6v2.7h-0.2c-0.1-0.5-0.2-0.9-0.4-1.2c-0.2-0.3-0.4-0.6-0.8-0.7c-0.3-0.2-0.7-0.3-1-0.3
		c-0.4,0-0.7,0.1-1,0.4c-0.3,0.2-0.4,0.5-0.4,0.8c0,0.2,0.1,0.5,0.2,0.7c0.2,0.3,0.8,0.7,1.7,1.2c0.7,0.4,1.2,0.7,1.5,0.9
		c0.3,0.2,0.5,0.5,0.6,0.7c0.1,0.3,0.2,0.6,0.2,0.9c0,0.6-0.2,1.1-0.7,1.5c-0.5,0.4-1.1,0.6-1.8,0.6c-0.2,0-0.4,0-0.6-0.1
		c-0.1,0-0.4-0.1-0.7-0.2c-0.4-0.1-0.6-0.2-0.7-0.2c-0.1,0-0.2,0-0.2,0.1c-0.1,0.1-0.1,0.2-0.1,0.4h-0.2v-2.7h0.2
		c0.1,0.6,0.2,1,0.4,1.3c0.2,0.3,0.4,0.5,0.8,0.7c0.4,0.2,0.7,0.3,1.2,0.3c0.5,0,0.9-0.1,1.1-0.4c0.3-0.3,0.4-0.6,0.4-0.9
		c0-0.2-0.1-0.4-0.2-0.6c-0.1-0.2-0.3-0.4-0.5-0.6c-0.2-0.1-0.6-0.4-1.2-0.7c-0.7-0.4-1.2-0.7-1.4-0.9c-0.3-0.2-0.5-0.5-0.6-0.7
		c-0.1-0.3-0.2-0.6-0.2-0.9c0-0.6,0.2-1.1,0.6-1.5c0.4-0.4,1-0.6,1.7-0.6c0.4,0,0.9,0.1,1.3,0.3c0.2,0.1,0.4,0.1,0.5,0.1
		c0.1,0,0.2,0,0.2-0.1c0.1-0.1,0.1-0.2,0.2-0.4H349.9z"/>
	<path class="st5" d="M358,16.7l0.1,1.8h-0.2c0-0.3-0.1-0.6-0.2-0.7c-0.1-0.2-0.3-0.4-0.5-0.5c-0.2-0.1-0.5-0.2-0.8-0.2h-1.1v6
		c0,0.5,0.1,0.8,0.2,0.9c0.1,0.2,0.4,0.2,0.7,0.2h0.3v0.2h-3.3v-0.2h0.3c0.3,0,0.6-0.1,0.7-0.3c0.1-0.1,0.1-0.4,0.1-0.8v-6h-0.9
		c-0.4,0-0.6,0-0.8,0.1c-0.2,0.1-0.4,0.2-0.5,0.4c-0.1,0.2-0.2,0.5-0.3,0.8h-0.2l0.1-1.8H358z"/>
	<path class="st5" d="M360.9,17.2v3.1h1.7c0.4,0,0.7-0.1,0.9-0.2c0.2-0.2,0.3-0.5,0.3-0.9h0.2v2.7h-0.2c-0.1-0.4-0.1-0.6-0.2-0.7
		c-0.1-0.1-0.2-0.2-0.3-0.3c-0.2-0.1-0.4-0.1-0.7-0.1h-1.7v2.6c0,0.3,0,0.6,0,0.6c0,0.1,0.1,0.1,0.2,0.2c0.1,0,0.2,0.1,0.4,0.1h1.3
		c0.4,0,0.8,0,1-0.1c0.2-0.1,0.4-0.2,0.6-0.4c0.2-0.2,0.5-0.6,0.7-1.1h0.2l-0.7,2h-6.1v-0.2h0.3c0.2,0,0.4,0,0.5-0.1
		c0.1-0.1,0.2-0.2,0.3-0.3c0-0.1,0.1-0.4,0.1-0.8v-5.1c0-0.5-0.1-0.8-0.2-0.9c-0.1-0.2-0.4-0.2-0.7-0.2h-0.3v-0.2h6.1l0.1,1.7h-0.2
		c-0.1-0.4-0.2-0.7-0.3-0.9c-0.1-0.2-0.2-0.3-0.4-0.4c-0.2-0.1-0.4-0.1-0.8-0.1H360.9z M360.7,14.2h1.3l0.6,2h-0.2L360.7,14.2z"/>
	<path class="st5" d="M373.7,24.6h-2.1l-2.7-3.7c-0.2,0-0.4,0-0.5,0c-0.1,0-0.1,0-0.2,0c-0.1,0-0.1,0-0.2,0v2.3
		c0,0.5,0.1,0.8,0.2,0.9c0.1,0.2,0.4,0.3,0.7,0.3h0.3v0.2h-3.4v-0.2h0.3c0.3,0,0.6-0.1,0.7-0.3c0.1-0.1,0.1-0.4,0.1-0.9v-5.1
		c0-0.5-0.1-0.8-0.2-0.9c-0.2-0.2-0.4-0.3-0.7-0.3h-0.3v-0.2h2.9c0.8,0,1.5,0.1,1.8,0.2c0.4,0.1,0.7,0.3,1,0.7
		c0.3,0.3,0.4,0.7,0.4,1.2c0,0.5-0.2,0.9-0.5,1.3c-0.3,0.4-0.8,0.6-1.5,0.8l1.6,2.3c0.4,0.5,0.7,0.9,1,1c0.3,0.2,0.6,0.3,1,0.3V24.6
		z M368.1,20.6c0.1,0,0.1,0,0.2,0c0.1,0,0.1,0,0.1,0c0.8,0,1.3-0.2,1.7-0.5c0.4-0.3,0.6-0.7,0.6-1.2c0-0.5-0.2-0.9-0.5-1.2
		c-0.3-0.3-0.7-0.5-1.2-0.5c-0.2,0-0.5,0-0.9,0.1V20.6z"/>
	<path class="st5" d="M376,17.2v3.1h1.7c0.4,0,0.7-0.1,0.9-0.2c0.2-0.2,0.3-0.5,0.3-0.9h0.2v2.7H379c-0.1-0.4-0.1-0.6-0.2-0.7
		c-0.1-0.1-0.2-0.2-0.3-0.3c-0.2-0.1-0.4-0.1-0.7-0.1H376v2.6c0,0.3,0,0.6,0,0.6c0,0.1,0.1,0.1,0.2,0.2c0.1,0,0.2,0.1,0.4,0.1h1.3
		c0.4,0,0.8,0,1-0.1c0.2-0.1,0.4-0.2,0.6-0.4c0.2-0.2,0.5-0.6,0.7-1.1h0.2l-0.7,2h-6.1v-0.2h0.3c0.2,0,0.4,0,0.5-0.1
		c0.1-0.1,0.2-0.2,0.3-0.3c0-0.1,0.1-0.4,0.1-0.8v-5.1c0-0.5-0.1-0.8-0.2-0.9c-0.1-0.2-0.4-0.2-0.7-0.2h-0.3v-0.2h6.1l0.1,1.7h-0.2
		c-0.1-0.4-0.2-0.7-0.3-0.9c-0.1-0.2-0.2-0.3-0.4-0.4c-0.2-0.1-0.4-0.1-0.8-0.1H376z"/>
	<path class="st5" d="M253.7,37.6v-0.2h0.3c0.3,0,0.6-0.1,0.7-0.3c0.1-0.1,0.1-0.4,0.1-0.9v-5.1c0-0.5-0.1-0.8-0.2-0.9
		c-0.2-0.2-0.4-0.3-0.7-0.3h-0.3v-0.2h3.2c1.2,0,2.1,0.1,2.7,0.4c0.6,0.3,1.1,0.7,1.5,1.3c0.4,0.6,0.6,1.3,0.6,2.2
		c0,1.1-0.3,2-1,2.7c-0.7,0.8-1.9,1.2-3.4,1.2H253.7z M256,37c0.5,0.1,0.9,0.2,1.2,0.2c0.9,0,1.6-0.3,2.2-0.9
		c0.6-0.6,0.9-1.5,0.9-2.6c0-1.1-0.3-1.9-0.9-2.6c-0.6-0.6-1.4-0.9-2.3-0.9c-0.3,0-0.7,0.1-1.2,0.2V37z"/>
	<path class="st5" d="M264.6,30.1v3.1h1.7c0.4,0,0.7-0.1,0.9-0.2c0.2-0.2,0.3-0.5,0.3-0.9h0.2v2.7h-0.2c-0.1-0.4-0.1-0.6-0.2-0.7
		c-0.1-0.1-0.2-0.2-0.3-0.3c-0.2-0.1-0.4-0.1-0.7-0.1h-1.7v2.6c0,0.3,0,0.6,0,0.6c0,0.1,0.1,0.1,0.2,0.2c0.1,0,0.2,0.1,0.4,0.1h1.3
		c0.4,0,0.8,0,1-0.1c0.2-0.1,0.4-0.2,0.6-0.4c0.2-0.2,0.5-0.6,0.7-1.1h0.2l-0.7,2h-6.1v-0.2h0.3c0.2,0,0.4,0,0.5-0.1
		c0.1-0.1,0.2-0.2,0.3-0.3c0-0.1,0.1-0.4,0.1-0.8v-5.1c0-0.5-0.1-0.8-0.2-0.9c-0.1-0.2-0.4-0.2-0.7-0.2h-0.3v-0.2h6.1l0.1,1.7h-0.2
		c-0.1-0.4-0.2-0.7-0.3-0.9c-0.1-0.2-0.2-0.3-0.4-0.4c-0.2-0.1-0.4-0.1-0.8-0.1H264.6z"/>
	<path class="st5" d="M279.1,35.4l0.2,0l-0.7,2.1h-6.1v-0.2h0.3c0.3,0,0.6-0.1,0.7-0.3c0.1-0.1,0.1-0.4,0.1-0.9v-5.1
		c0-0.5-0.1-0.8-0.2-0.9c-0.2-0.2-0.4-0.3-0.7-0.3h-0.3v-0.2h3.6v0.2c-0.4,0-0.7,0-0.9,0.1c-0.2,0.1-0.3,0.2-0.3,0.3
		c-0.1,0.1-0.1,0.4-0.1,0.9v4.9c0,0.3,0,0.5,0.1,0.7c0,0.1,0.1,0.1,0.2,0.2c0.1,0,0.4,0.1,0.9,0.1h0.6c0.6,0,1,0,1.3-0.1
		c0.2-0.1,0.5-0.2,0.7-0.5C278.7,36.2,278.9,35.9,279.1,35.4"/>
	<path class="st5" d="M279.9,32.5v-0.3c0.4-0.2,0.7-0.5,0.8-0.7c0.1-0.1,0.2-0.3,0.2-0.5c0-0.1,0-0.2-0.1-0.3c0-0.1-0.1-0.1-0.2-0.1
		c0,0-0.1,0-0.2,0c-0.1,0-0.2,0.1-0.3,0.1c-0.2,0-0.3-0.1-0.4-0.2c-0.1-0.1-0.2-0.3-0.2-0.4c0-0.2,0.1-0.3,0.2-0.5
		c0.2-0.1,0.4-0.2,0.6-0.2c0.3,0,0.5,0.1,0.7,0.3c0.2,0.2,0.3,0.5,0.3,0.8c0,0.5-0.2,0.9-0.5,1.2C280.6,32.2,280.3,32.4,279.9,32.5"
		/>
	<path class="st5" d="M284.9,30.1v3.1h1.7c0.4,0,0.7-0.1,0.9-0.2c0.2-0.2,0.3-0.5,0.3-0.9h0.2v2.7h-0.2c-0.1-0.4-0.1-0.6-0.2-0.7
		c-0.1-0.1-0.2-0.2-0.3-0.3c-0.2-0.1-0.4-0.1-0.7-0.1h-1.7v2.6c0,0.3,0,0.6,0,0.6c0,0.1,0.1,0.1,0.2,0.2c0.1,0,0.2,0.1,0.4,0.1h1.3
		c0.4,0,0.8,0,1-0.1c0.2-0.1,0.4-0.2,0.6-0.4c0.2-0.2,0.5-0.6,0.7-1.1h0.2l-0.7,2h-6.1v-0.2h0.3c0.2,0,0.4,0,0.5-0.1
		c0.1-0.1,0.2-0.2,0.3-0.3c0-0.1,0.1-0.4,0.1-0.8v-5.1c0-0.5-0.1-0.8-0.2-0.9c-0.1-0.2-0.4-0.2-0.7-0.2h-0.3v-0.2h6.1l0.1,1.7h-0.2
		c-0.1-0.4-0.2-0.7-0.3-0.9c-0.1-0.2-0.2-0.3-0.4-0.4c-0.2-0.1-0.4-0.1-0.8-0.1H284.9z"/>
	<path class="st5" d="M289.6,29.7h2.1l4.8,5.9v-4.5c0-0.5-0.1-0.8-0.2-0.9c-0.1-0.2-0.4-0.2-0.7-0.2h-0.3v-0.2h2.7v0.2h-0.3
		c-0.3,0-0.6,0.1-0.7,0.3c-0.1,0.1-0.1,0.4-0.1,0.8v6.6h-0.2l-5.2-6.3v4.8c0,0.5,0.1,0.8,0.2,0.9c0.1,0.2,0.4,0.2,0.7,0.2h0.3v0.2
		H290v-0.2h0.3c0.3,0,0.6-0.1,0.7-0.3c0.1-0.1,0.1-0.4,0.1-0.8v-5.5c-0.2-0.3-0.4-0.4-0.5-0.5c-0.1-0.1-0.3-0.2-0.5-0.2
		c-0.1,0-0.3-0.1-0.5-0.1V29.7z"/>
	<path class="st5" d="M303.8,29.5v2.7h-0.2c-0.1-0.5-0.2-0.9-0.4-1.2c-0.2-0.3-0.4-0.6-0.8-0.7c-0.3-0.2-0.7-0.3-1-0.3
		c-0.4,0-0.7,0.1-1,0.4c-0.3,0.2-0.4,0.5-0.4,0.8c0,0.2,0.1,0.5,0.2,0.7c0.2,0.3,0.8,0.7,1.7,1.2c0.7,0.4,1.2,0.7,1.5,0.9
		c0.3,0.2,0.5,0.5,0.6,0.7c0.1,0.3,0.2,0.6,0.2,0.9c0,0.6-0.2,1.1-0.7,1.5c-0.5,0.4-1.1,0.6-1.8,0.6c-0.2,0-0.4,0-0.6-0.1
		c-0.1,0-0.4-0.1-0.7-0.2c-0.4-0.1-0.6-0.2-0.7-0.2c-0.1,0-0.2,0-0.2,0.1c-0.1,0.1-0.1,0.2-0.1,0.4h-0.2v-2.7h0.2
		c0.1,0.6,0.2,1,0.4,1.3c0.2,0.3,0.4,0.5,0.8,0.7c0.3,0.2,0.7,0.3,1.2,0.3c0.5,0,0.9-0.1,1.1-0.4c0.3-0.3,0.4-0.6,0.4-0.9
		c0-0.2-0.1-0.4-0.2-0.6c-0.1-0.2-0.3-0.4-0.5-0.6c-0.2-0.1-0.6-0.4-1.2-0.7c-0.7-0.4-1.2-0.7-1.4-0.9c-0.3-0.2-0.5-0.5-0.6-0.7
		c-0.1-0.3-0.2-0.6-0.2-0.9c0-0.6,0.2-1.1,0.6-1.5c0.4-0.4,1-0.6,1.7-0.6c0.4,0,0.9,0.1,1.3,0.3c0.2,0.1,0.4,0.1,0.5,0.1
		c0.1,0,0.2,0,0.2-0.1c0.1-0.1,0.1-0.2,0.2-0.4H303.8z"/>
	<path class="st5" d="M307.4,30.1v3.1h1.7c0.4,0,0.7-0.1,0.9-0.2c0.2-0.2,0.3-0.5,0.3-0.9h0.2v2.7h-0.2c-0.1-0.4-0.1-0.6-0.2-0.7
		c-0.1-0.1-0.2-0.2-0.3-0.3c-0.2-0.1-0.4-0.1-0.7-0.1h-1.7v2.6c0,0.3,0,0.6,0,0.6c0,0.1,0.1,0.1,0.2,0.2c0.1,0,0.2,0.1,0.4,0.1h1.3
		c0.4,0,0.8,0,1-0.1c0.2-0.1,0.4-0.2,0.6-0.4c0.2-0.2,0.5-0.6,0.7-1.1h0.2l-0.7,2h-6.1v-0.2h0.3c0.2,0,0.4,0,0.5-0.1
		c0.1-0.1,0.2-0.2,0.3-0.3c0-0.1,0.1-0.4,0.1-0.8v-5.1c0-0.5-0.1-0.8-0.2-0.9c-0.1-0.2-0.4-0.2-0.7-0.2h-0.3v-0.2h6.1l0.1,1.7h-0.2
		c-0.1-0.4-0.2-0.7-0.3-0.9c-0.1-0.2-0.2-0.3-0.4-0.4c-0.2-0.1-0.4-0.1-0.8-0.1H307.4z"/>
	<path class="st5" d="M315.9,37.4v0.2h-3.4v-0.2h0.3c0.3,0,0.6-0.1,0.7-0.3c0.1-0.1,0.1-0.4,0.1-0.9v-5.1c0-0.4,0-0.7-0.1-0.8
		c0-0.1-0.1-0.2-0.2-0.3c-0.2-0.1-0.3-0.1-0.5-0.1h-0.3v-0.2h3.4v0.2h-0.3c-0.3,0-0.6,0.1-0.7,0.3c-0.1,0.1-0.1,0.4-0.1,0.9v5.1
		c0,0.4,0,0.7,0.1,0.8c0,0.1,0.1,0.2,0.2,0.3c0.2,0.1,0.3,0.1,0.5,0.1H315.9z"/>
	<path class="st5" d="M323.4,29.5l0.2,2.5h-0.2c-0.2-0.6-0.5-1.1-0.8-1.4c-0.5-0.5-1.1-0.7-1.8-0.7c-1,0-1.8,0.4-2.3,1.2
		c-0.4,0.7-0.7,1.5-0.7,2.4c0,0.8,0.1,1.4,0.4,2.1c0.3,0.6,0.7,1.1,1.1,1.4c0.5,0.3,1,0.4,1.4,0.4c0.3,0,0.6,0,0.8-0.1
		c0.3-0.1,0.5-0.2,0.8-0.3v-2.3c0-0.4,0-0.7-0.1-0.8c-0.1-0.1-0.2-0.2-0.3-0.3c-0.1-0.1-0.3-0.1-0.7-0.1v-0.2h3v0.2h-0.1
		c-0.3,0-0.5,0.1-0.6,0.3c-0.1,0.1-0.1,0.4-0.1,0.8v2.4c-0.4,0.2-0.9,0.4-1.3,0.5c-0.4,0.1-0.9,0.2-1.4,0.2c-1.5,0-2.7-0.5-3.5-1.5
		c-0.6-0.7-0.9-1.6-0.9-2.5c0-0.7,0.2-1.4,0.5-2c0.4-0.8,0.9-1.3,1.6-1.7c0.6-0.3,1.3-0.5,2-0.5c0.3,0,0.5,0,0.8,0.1
		c0.2,0,0.6,0.1,1,0.3c0.2,0.1,0.4,0.1,0.4,0.1c0.1,0,0.1,0,0.2-0.1c0.1-0.1,0.1-0.2,0.1-0.4H323.4z"/>
	<path class="st5" d="M324.6,29.7h2.1l4.8,5.9v-4.5c0-0.5-0.1-0.8-0.2-0.9c-0.1-0.2-0.4-0.2-0.7-0.2h-0.3v-0.2h2.7v0.2h-0.3
		c-0.3,0-0.6,0.1-0.7,0.3c-0.1,0.1-0.1,0.4-0.1,0.8v6.6h-0.2l-5.2-6.3v4.8c0,0.5,0.1,0.8,0.2,0.9c0.1,0.2,0.4,0.2,0.7,0.2h0.3v0.2
		H325v-0.2h0.3c0.3,0,0.6-0.1,0.7-0.3c0.1-0.1,0.1-0.4,0.1-0.8v-5.5c-0.2-0.3-0.4-0.4-0.5-0.5c-0.1-0.1-0.3-0.2-0.5-0.2
		c-0.1,0-0.3-0.1-0.5-0.1V29.7z"/>
	<path class="st5" d="M335.8,30.1v3.1h1.7c0.4,0,0.8-0.1,0.9-0.2c0.2-0.2,0.3-0.5,0.3-0.9h0.2v2.7h-0.2c-0.1-0.4-0.1-0.6-0.2-0.7
		c-0.1-0.1-0.2-0.2-0.3-0.3c-0.2-0.1-0.4-0.1-0.7-0.1h-1.7v2.6c0,0.3,0,0.6,0,0.6c0,0.1,0.1,0.1,0.2,0.2c0.1,0,0.2,0.1,0.4,0.1h1.3
		c0.4,0,0.8,0,1-0.1c0.2-0.1,0.4-0.2,0.6-0.4c0.2-0.2,0.5-0.6,0.7-1.1h0.2l-0.7,2h-6.1v-0.2h0.3c0.2,0,0.4,0,0.5-0.1
		c0.1-0.1,0.2-0.2,0.3-0.3c0-0.1,0.1-0.4,0.1-0.8v-5.1c0-0.5-0.1-0.8-0.2-0.9c-0.1-0.2-0.4-0.2-0.7-0.2h-0.3v-0.2h6.1l0.1,1.7h-0.2
		c-0.1-0.4-0.2-0.7-0.3-0.9c-0.1-0.2-0.2-0.3-0.4-0.4c-0.2-0.1-0.4-0.1-0.8-0.1H335.8z"/>
	<path class="st5" d="M345.4,37.6l-3-6.6v5.3c0,0.5,0.1,0.8,0.2,0.9c0.1,0.2,0.4,0.2,0.7,0.2h0.3v0.2h-2.7v-0.2h0.3
		c0.3,0,0.6-0.1,0.7-0.3c0.1-0.1,0.1-0.4,0.1-0.8v-5.1c0-0.3,0-0.6-0.1-0.8c-0.1-0.1-0.2-0.2-0.3-0.3c-0.1-0.1-0.4-0.1-0.7-0.1v-0.2
		h2.2l2.9,6.2l2.8-6.2h2.2v0.2h-0.3c-0.3,0-0.6,0.1-0.7,0.3c-0.1,0.1-0.1,0.4-0.1,0.8v5.1c0,0.5,0.1,0.8,0.2,0.9
		c0.1,0.2,0.4,0.2,0.7,0.2h0.3v0.2h-3.3v-0.2h0.3c0.3,0,0.6-0.1,0.7-0.3c0.1-0.1,0.1-0.4,0.1-0.8V31l-3,6.6H345.4z"/>
	<path class="st5" d="M353.6,30.1v3.1h1.7c0.4,0,0.7-0.1,0.9-0.2c0.2-0.2,0.3-0.5,0.3-0.9h0.2v2.7h-0.2c-0.1-0.4-0.1-0.6-0.2-0.7
		c-0.1-0.1-0.2-0.2-0.3-0.3c-0.2-0.1-0.4-0.1-0.7-0.1h-1.7v2.6c0,0.3,0,0.6,0,0.6c0,0.1,0.1,0.1,0.2,0.2c0.1,0,0.2,0.1,0.4,0.1h1.3
		c0.4,0,0.8,0,1-0.1c0.2-0.1,0.4-0.2,0.6-0.4c0.2-0.2,0.5-0.6,0.7-1.1h0.2l-0.7,2h-6.1v-0.2h0.3c0.2,0,0.4,0,0.5-0.1
		c0.1-0.1,0.2-0.2,0.3-0.3c0-0.1,0.1-0.4,0.1-0.8v-5.1c0-0.5-0.1-0.8-0.2-0.9c-0.1-0.2-0.4-0.2-0.7-0.2h-0.3v-0.2h6.1l0.1,1.7h-0.2
		c-0.1-0.4-0.2-0.7-0.3-0.9c-0.1-0.2-0.2-0.3-0.4-0.4c-0.2-0.1-0.4-0.1-0.8-0.1H353.6z"/>
	<path class="st5" d="M358.3,29.7h2.1l4.8,5.9v-4.5c0-0.5-0.1-0.8-0.2-0.9c-0.1-0.2-0.4-0.2-0.7-0.2h-0.3v-0.2h2.7v0.2h-0.3
		c-0.3,0-0.6,0.1-0.7,0.3c-0.1,0.1-0.1,0.4-0.1,0.8v6.6h-0.2l-5.2-6.3v4.8c0,0.5,0.1,0.8,0.2,0.9c0.1,0.2,0.4,0.2,0.7,0.2h0.3v0.2
		h-2.7v-0.2h0.3c0.3,0,0.6-0.1,0.7-0.3c0.1-0.1,0.1-0.4,0.1-0.8v-5.5c-0.2-0.3-0.4-0.4-0.5-0.5c-0.1-0.1-0.3-0.2-0.5-0.2
		c-0.1,0-0.3-0.1-0.5-0.1V29.7z"/>
	<path class="st5" d="M373.9,29.7l0.1,1.8h-0.2c0-0.3-0.1-0.6-0.2-0.7c-0.1-0.2-0.3-0.4-0.5-0.5c-0.2-0.1-0.5-0.2-0.8-0.2h-1.1v6
		c0,0.5,0.1,0.8,0.2,0.9c0.1,0.2,0.4,0.2,0.7,0.2h0.3v0.2H369v-0.2h0.3c0.3,0,0.6-0.1,0.7-0.3c0.1-0.1,0.1-0.4,0.1-0.8v-6h-0.9
		c-0.4,0-0.6,0-0.8,0.1c-0.2,0.1-0.4,0.2-0.5,0.4c-0.1,0.2-0.2,0.5-0.3,0.8h-0.2l0.1-1.8H373.9z"/>
	<path class="st5" d="M382.5,29.5v2.7h-0.2c-0.1-0.5-0.2-0.9-0.4-1.2c-0.2-0.3-0.4-0.6-0.8-0.7c-0.3-0.2-0.7-0.3-1-0.3
		c-0.4,0-0.7,0.1-1,0.4c-0.3,0.2-0.4,0.5-0.4,0.8c0,0.2,0.1,0.5,0.2,0.7c0.2,0.3,0.8,0.7,1.7,1.2c0.7,0.4,1.2,0.7,1.5,0.9
		c0.3,0.2,0.5,0.5,0.6,0.7c0.1,0.3,0.2,0.6,0.2,0.9c0,0.6-0.2,1.1-0.7,1.5c-0.5,0.4-1.1,0.6-1.8,0.6c-0.2,0-0.4,0-0.6-0.1
		c-0.1,0-0.4-0.1-0.7-0.2c-0.4-0.1-0.6-0.2-0.7-0.2c-0.1,0-0.2,0-0.2,0.1c-0.1,0.1-0.1,0.2-0.1,0.4h-0.2v-2.7h0.2
		c0.1,0.6,0.2,1,0.4,1.3c0.2,0.3,0.4,0.5,0.8,0.7c0.4,0.2,0.7,0.3,1.2,0.3c0.5,0,0.9-0.1,1.1-0.4c0.3-0.3,0.4-0.6,0.4-0.9
		c0-0.2-0.1-0.4-0.2-0.6c-0.1-0.2-0.3-0.4-0.5-0.6c-0.2-0.1-0.6-0.4-1.2-0.7c-0.7-0.4-1.2-0.7-1.4-0.9c-0.3-0.2-0.5-0.5-0.6-0.7
		c-0.1-0.3-0.2-0.6-0.2-0.9c0-0.6,0.2-1.1,0.6-1.5c0.4-0.4,1-0.6,1.7-0.6c0.4,0,0.9,0.1,1.3,0.3c0.2,0.1,0.4,0.1,0.5,0.1
		c0.1,0,0.2,0,0.2-0.1c0.1-0.1,0.1-0.2,0.2-0.4H382.5z"/>
	<path class="st5" d="M389.3,29.9v-0.2h2.8v0.2h-0.3c-0.3,0-0.5,0.1-0.7,0.4c-0.1,0.1-0.1,0.4-0.1,0.8v3.2c0,0.8-0.1,1.4-0.2,1.8
		c-0.2,0.4-0.5,0.8-0.9,1.1c-0.5,0.3-1.1,0.5-1.9,0.5c-0.9,0-1.5-0.1-2-0.4c-0.4-0.3-0.8-0.7-0.9-1.2c-0.1-0.3-0.2-1-0.2-1.9v-3.1
		c0-0.5-0.1-0.8-0.2-1c-0.1-0.2-0.3-0.2-0.6-0.2h-0.3v-0.2h3.4v0.2h-0.3c-0.3,0-0.6,0.1-0.7,0.3c-0.1,0.1-0.1,0.4-0.1,0.9v3.4
		c0,0.3,0,0.7,0.1,1.1c0.1,0.4,0.2,0.7,0.3,0.9c0.1,0.2,0.4,0.4,0.6,0.5c0.3,0.1,0.6,0.2,1,0.2c0.5,0,1-0.1,1.4-0.3
		c0.4-0.2,0.7-0.5,0.8-0.9c0.1-0.4,0.2-0.9,0.2-1.8v-3.2c0-0.5-0.1-0.8-0.2-0.9c-0.2-0.2-0.4-0.3-0.7-0.3H389.3z"/>
	<path class="st5" d="M394.7,33.9v2.3c0,0.5,0.1,0.8,0.2,0.9c0.1,0.2,0.4,0.3,0.7,0.3h0.3v0.2h-3.4v-0.2h0.3c0.3,0,0.6-0.1,0.7-0.3
		c0.1-0.1,0.1-0.4,0.1-0.9v-5.1c0-0.5-0.1-0.8-0.2-0.9c-0.2-0.2-0.4-0.3-0.7-0.3h-0.3v-0.2h2.9c0.7,0,1.3,0.1,1.7,0.2
		c0.4,0.1,0.7,0.4,1,0.7c0.3,0.3,0.4,0.8,0.4,1.2c0,0.6-0.2,1.2-0.6,1.6c-0.4,0.4-1,0.6-1.8,0.6c-0.2,0-0.4,0-0.6,0
		C395.1,34,394.9,33.9,394.7,33.9 M394.7,33.6c0.2,0,0.4,0.1,0.5,0.1c0.2,0,0.3,0,0.4,0c0.4,0,0.7-0.2,1-0.5
		c0.3-0.3,0.4-0.7,0.4-1.2c0-0.3-0.1-0.7-0.2-0.9c-0.1-0.3-0.3-0.5-0.6-0.7c-0.3-0.1-0.5-0.2-0.9-0.2c-0.2,0-0.5,0-0.8,0.1V33.6z"/>
	<path class="st5" d="M401.3,30.1v3.1h1.7c0.4,0,0.7-0.1,0.9-0.2c0.2-0.2,0.3-0.5,0.3-0.9h0.2v2.7h-0.2c-0.1-0.4-0.1-0.6-0.2-0.7
		c-0.1-0.1-0.2-0.2-0.3-0.3c-0.2-0.1-0.4-0.1-0.7-0.1h-1.7v2.6c0,0.3,0,0.6,0,0.6c0,0.1,0.1,0.1,0.2,0.2c0.1,0,0.2,0.1,0.4,0.1h1.3
		c0.4,0,0.8,0,1-0.1s0.4-0.2,0.6-0.4c0.2-0.2,0.5-0.6,0.7-1.1h0.2l-0.7,2h-6.1v-0.2h0.3c0.2,0,0.4,0,0.5-0.1
		c0.1-0.1,0.2-0.2,0.3-0.3c0-0.1,0.1-0.4,0.1-0.8v-5.1c0-0.5-0.1-0.8-0.2-0.9c-0.1-0.2-0.4-0.2-0.7-0.2h-0.3v-0.2h6.1l0.1,1.7H405
		c-0.1-0.4-0.2-0.7-0.3-0.9c-0.1-0.2-0.2-0.3-0.4-0.4c-0.2-0.1-0.4-0.1-0.8-0.1H401.3z M403.8,27.1l-1.7,2h-0.2l0.6-2H403.8z"/>
	<path class="st5" d="M414.1,37.6H412l-2.7-3.7c-0.2,0-0.4,0-0.5,0c-0.1,0-0.1,0-0.2,0c-0.1,0-0.1,0-0.2,0v2.3
		c0,0.5,0.1,0.8,0.2,0.9c0.1,0.2,0.4,0.3,0.7,0.3h0.3v0.2h-3.4v-0.2h0.3c0.3,0,0.6-0.1,0.7-0.3c0.1-0.1,0.1-0.4,0.1-0.9v-5.1
		c0-0.5-0.1-0.8-0.2-0.9c-0.2-0.2-0.4-0.3-0.7-0.3h-0.3v-0.2h2.9c0.8,0,1.5,0.1,1.8,0.2c0.4,0.1,0.7,0.3,1,0.7
		c0.3,0.3,0.4,0.7,0.4,1.2c0,0.5-0.2,0.9-0.5,1.3c-0.3,0.4-0.8,0.6-1.5,0.8l1.6,2.3c0.4,0.5,0.7,0.9,1,1c0.3,0.2,0.6,0.3,1,0.3V37.6
		z M408.5,33.5c0.1,0,0.1,0,0.2,0c0.1,0,0.1,0,0.1,0c0.8,0,1.3-0.2,1.7-0.5c0.4-0.3,0.6-0.7,0.6-1.2c0-0.5-0.2-0.9-0.5-1.2
		c-0.3-0.3-0.7-0.5-1.2-0.5c-0.2,0-0.5,0-0.9,0.1V33.5z"/>
	<path class="st5" d="M417.7,37.4v0.2h-3.4v-0.2h0.3c0.3,0,0.6-0.1,0.7-0.3c0.1-0.1,0.1-0.4,0.1-0.9v-5.1c0-0.4,0-0.7-0.1-0.8
		c0-0.1-0.1-0.2-0.2-0.3c-0.2-0.1-0.3-0.1-0.5-0.1h-0.3v-0.2h3.4v0.2h-0.3c-0.3,0-0.6,0.1-0.7,0.3c-0.1,0.1-0.1,0.4-0.1,0.9v5.1
		c0,0.4,0,0.7,0.1,0.8c0,0.1,0.1,0.2,0.2,0.3c0.2,0.1,0.3,0.1,0.5,0.1H417.7z"/>
	<path class="st5" d="M420.5,30.1v3.1h1.7c0.4,0,0.7-0.1,0.9-0.2c0.2-0.2,0.3-0.5,0.3-0.9h0.2v2.7h-0.2c-0.1-0.4-0.1-0.6-0.2-0.7
		c-0.1-0.1-0.2-0.2-0.3-0.3c-0.2-0.1-0.4-0.1-0.7-0.1h-1.7v2.6c0,0.3,0,0.6,0,0.6c0,0.1,0.1,0.1,0.2,0.2c0.1,0,0.2,0.1,0.4,0.1h1.3
		c0.4,0,0.8,0,1-0.1c0.2-0.1,0.4-0.2,0.6-0.4c0.2-0.2,0.5-0.6,0.7-1.1h0.2l-0.7,2h-6.1v-0.2h0.3c0.2,0,0.4,0,0.5-0.1
		c0.1-0.1,0.2-0.2,0.3-0.3c0-0.1,0.1-0.4,0.1-0.8v-5.1c0-0.5-0.1-0.8-0.2-0.9c-0.1-0.2-0.4-0.2-0.7-0.2h-0.3v-0.2h6.1l0.1,1.7h-0.2
		c-0.1-0.4-0.2-0.7-0.3-0.9c-0.1-0.2-0.2-0.3-0.4-0.4c-0.2-0.1-0.4-0.1-0.8-0.1H420.5z"/>
	<path class="st5" d="M430.9,29.9v-0.2h2.8v0.2h-0.3c-0.3,0-0.5,0.1-0.7,0.4c-0.1,0.1-0.1,0.4-0.1,0.8v3.2c0,0.8-0.1,1.4-0.2,1.8
		c-0.2,0.4-0.5,0.8-0.9,1.1c-0.5,0.3-1.1,0.5-1.9,0.5c-0.9,0-1.5-0.1-2-0.4c-0.4-0.3-0.8-0.7-0.9-1.2c-0.1-0.3-0.2-1-0.2-1.9v-3.1
		c0-0.5-0.1-0.8-0.2-1c-0.1-0.2-0.3-0.2-0.6-0.2h-0.3v-0.2h3.4v0.2h-0.3c-0.3,0-0.6,0.1-0.7,0.3c-0.1,0.1-0.1,0.4-0.1,0.9v3.4
		c0,0.3,0,0.7,0.1,1.1c0.1,0.4,0.2,0.7,0.3,0.9c0.1,0.2,0.4,0.4,0.6,0.5c0.3,0.1,0.6,0.2,1,0.2c0.5,0,1-0.1,1.4-0.3
		c0.4-0.2,0.7-0.5,0.8-0.9c0.1-0.4,0.2-0.9,0.2-1.8v-3.2c0-0.5-0.1-0.8-0.2-0.9c-0.2-0.2-0.4-0.3-0.7-0.3H430.9z"/>
	<path class="st5" d="M441.9,37.6h-2.1l-2.7-3.7c-0.2,0-0.4,0-0.5,0c-0.1,0-0.1,0-0.2,0c-0.1,0-0.1,0-0.2,0v2.3
		c0,0.5,0.1,0.8,0.2,0.9c0.1,0.2,0.4,0.3,0.7,0.3h0.3v0.2H434v-0.2h0.3c0.3,0,0.6-0.1,0.7-0.3c0.1-0.1,0.1-0.4,0.1-0.9v-5.1
		c0-0.5-0.1-0.8-0.2-0.9c-0.2-0.2-0.4-0.3-0.7-0.3H434v-0.2h2.9c0.8,0,1.5,0.1,1.8,0.2c0.4,0.1,0.7,0.3,1,0.7
		c0.3,0.3,0.4,0.7,0.4,1.2c0,0.5-0.2,0.9-0.5,1.3c-0.3,0.4-0.8,0.6-1.5,0.8l1.6,2.3c0.4,0.5,0.7,0.9,1,1c0.3,0.2,0.6,0.3,1,0.3V37.6
		z M436.3,33.5c0.1,0,0.1,0,0.2,0c0.1,0,0.1,0,0.1,0c0.8,0,1.3-0.2,1.7-0.5c0.4-0.3,0.6-0.7,0.6-1.2c0-0.5-0.2-0.9-0.5-1.2
		c-0.3-0.3-0.7-0.5-1.2-0.5c-0.2,0-0.5,0-0.9,0.1V33.5z"/>
	<path class="st5" d="M442.4,39.6v-0.3c0.4-0.1,0.7-0.3,0.9-0.6c0.2-0.3,0.3-0.6,0.3-0.9c0-0.1,0-0.1-0.1-0.2c0,0-0.1-0.1-0.1-0.1
		c0,0-0.1,0-0.3,0.1c-0.1,0-0.1,0.1-0.2,0.1c-0.2,0-0.3-0.1-0.5-0.2c-0.1-0.1-0.2-0.3-0.2-0.5c0-0.2,0.1-0.4,0.2-0.5
		c0.1-0.1,0.3-0.2,0.5-0.2c0.3,0,0.5,0.1,0.7,0.3c0.2,0.2,0.3,0.5,0.3,0.9c0,0.4-0.1,0.8-0.4,1.1C443.4,39.1,443,39.4,442.4,39.6"/>
	<path class="st5" d="M295.5,50.5v-0.2h0.3c0.3,0,0.6-0.1,0.7-0.3c0.1-0.1,0.1-0.4,0.1-0.9v-5.1c0-0.5-0.1-0.8-0.2-0.9
		c-0.2-0.2-0.4-0.3-0.7-0.3h-0.3v-0.2h3.2c1.2,0,2.1,0.1,2.7,0.4c0.6,0.3,1.1,0.7,1.5,1.3c0.4,0.6,0.6,1.3,0.6,2.2
		c0,1.1-0.3,2-1,2.7c-0.7,0.8-1.9,1.2-3.4,1.2H295.5z M297.7,50c0.5,0.1,0.9,0.2,1.2,0.2c0.9,0,1.6-0.3,2.2-0.9
		c0.6-0.6,0.9-1.5,0.9-2.6c0-1.1-0.3-1.9-0.9-2.6c-0.6-0.6-1.4-0.9-2.3-0.9c-0.3,0-0.7,0.1-1.2,0.2V50z"/>
	<path class="st5" d="M306.4,43.1v3.1h1.7c0.4,0,0.7-0.1,0.9-0.2c0.2-0.2,0.3-0.5,0.3-0.9h0.2v2.7h-0.2c-0.1-0.4-0.1-0.6-0.2-0.7
		c-0.1-0.1-0.2-0.2-0.3-0.3c-0.2-0.1-0.4-0.1-0.7-0.1h-1.7v2.6c0,0.3,0,0.6,0,0.6c0,0.1,0.1,0.1,0.2,0.2c0.1,0,0.2,0.1,0.4,0.1h1.3
		c0.4,0,0.8,0,1-0.1c0.2-0.1,0.4-0.2,0.6-0.4c0.2-0.2,0.5-0.6,0.7-1.1h0.2l-0.7,2h-6.1v-0.2h0.3c0.2,0,0.4,0,0.5-0.1
		c0.1-0.1,0.2-0.2,0.3-0.3c0-0.1,0.1-0.4,0.1-0.8V44c0-0.5-0.1-0.8-0.2-0.9c-0.1-0.2-0.4-0.2-0.7-0.2h-0.3v-0.2h6.1l0.1,1.7H310
		c-0.1-0.4-0.2-0.7-0.3-0.9c-0.1-0.2-0.2-0.3-0.4-0.4c-0.2-0.1-0.4-0.1-0.8-0.1H306.4z"/>
	<path class="st5" d="M320.9,48.4l0.2,0l-0.7,2.1h-6.1v-0.2h0.3c0.3,0,0.6-0.1,0.7-0.3c0.1-0.1,0.1-0.4,0.1-0.9v-5.1
		c0-0.5-0.1-0.8-0.2-0.9c-0.2-0.2-0.4-0.3-0.7-0.3h-0.3v-0.2h3.6v0.2c-0.4,0-0.7,0-0.9,0.1c-0.2,0.1-0.3,0.2-0.3,0.3
		c-0.1,0.1-0.1,0.4-0.1,0.9v4.9c0,0.3,0,0.5,0.1,0.7c0,0.1,0.1,0.1,0.2,0.2c0.1,0,0.4,0.1,0.9,0.1h0.6c0.6,0,1,0,1.3-0.1
		c0.2-0.1,0.5-0.2,0.7-0.5C320.5,49.2,320.7,48.9,320.9,48.4"/>
	<path class="st5" d="M326.8,47.9h-3l-0.5,1.2c-0.1,0.3-0.2,0.5-0.2,0.7c0,0.1,0.1,0.2,0.2,0.3c0.1,0.1,0.4,0.2,0.7,0.2v0.2h-2.5
		v-0.2c0.3-0.1,0.5-0.1,0.6-0.2c0.2-0.2,0.4-0.6,0.7-1.1l2.8-6.5h0.2l2.7,6.5c0.2,0.5,0.4,0.9,0.6,1c0.2,0.2,0.4,0.2,0.8,0.3v0.2
		h-3.1v-0.2c0.3,0,0.5-0.1,0.6-0.2c0.1-0.1,0.2-0.2,0.2-0.3c0-0.2-0.1-0.4-0.2-0.8L326.8,47.9z M326.6,47.5l-1.3-3.2l-1.4,3.2H326.6
		z"/>
	<path class="st5" d="M340.3,50.5h-2.1l-2.7-3.7c-0.2,0-0.4,0-0.5,0c-0.1,0-0.1,0-0.2,0c-0.1,0-0.1,0-0.2,0v2.3
		c0,0.5,0.1,0.8,0.2,0.9c0.1,0.2,0.4,0.3,0.7,0.3h0.3v0.2h-3.4v-0.2h0.3c0.3,0,0.6-0.1,0.7-0.3c0.1-0.1,0.1-0.4,0.1-0.9v-5.1
		c0-0.5-0.1-0.8-0.2-0.9c-0.2-0.2-0.4-0.3-0.7-0.3h-0.3v-0.2h2.9c0.8,0,1.5,0.1,1.8,0.2c0.4,0.1,0.7,0.3,1,0.7
		c0.3,0.3,0.4,0.7,0.4,1.2c0,0.5-0.2,0.9-0.5,1.3c-0.3,0.4-0.8,0.6-1.5,0.8l1.6,2.3c0.4,0.5,0.7,0.9,1,1c0.3,0.2,0.6,0.3,1,0.3V50.5
		z M334.7,46.5c0.1,0,0.1,0,0.2,0c0.1,0,0.1,0,0.1,0c0.8,0,1.3-0.2,1.7-0.5c0.4-0.3,0.6-0.7,0.6-1.2c0-0.5-0.2-0.9-0.5-1.2
		c-0.3-0.3-0.7-0.5-1.2-0.5c-0.2,0-0.5,0-0.9,0.1V46.5z"/>
	<path class="st5" d="M342.7,43.1v3.1h1.7c0.4,0,0.8-0.1,0.9-0.2c0.2-0.2,0.3-0.5,0.3-0.9h0.2v2.7h-0.2c-0.1-0.4-0.1-0.6-0.2-0.7
		c-0.1-0.1-0.2-0.2-0.3-0.3c-0.2-0.1-0.4-0.1-0.7-0.1h-1.7v2.6c0,0.3,0,0.6,0,0.6c0,0.1,0.1,0.1,0.2,0.2c0.1,0,0.2,0.1,0.4,0.1h1.3
		c0.4,0,0.8,0,1-0.1c0.2-0.1,0.4-0.2,0.6-0.4c0.2-0.2,0.5-0.6,0.7-1.1h0.2l-0.7,2h-6.1v-0.2h0.3c0.2,0,0.4,0,0.5-0.1
		c0.1-0.1,0.2-0.2,0.3-0.3c0-0.1,0.1-0.4,0.1-0.8V44c0-0.5-0.1-0.8-0.2-0.9c-0.1-0.2-0.4-0.2-0.7-0.2h-0.3v-0.2h6.1l0.1,1.7h-0.2
		c-0.1-0.4-0.2-0.7-0.3-0.9c-0.1-0.2-0.2-0.3-0.4-0.4c-0.2-0.1-0.4-0.1-0.8-0.1H342.7z"/>
	<path class="st5" d="M354.6,42.5l0.2,2.7h-0.2c-0.2-0.8-0.6-1.4-1-1.7c-0.4-0.4-1-0.5-1.6-0.5c-0.5,0-1,0.1-1.4,0.4
		c-0.4,0.3-0.8,0.7-1,1.3c-0.2,0.6-0.4,1.3-0.4,2.2c0,0.7,0.1,1.3,0.3,1.9c0.2,0.5,0.6,0.9,1,1.2c0.5,0.3,1,0.4,1.6,0.4
		c0.5,0,1-0.1,1.4-0.3c0.4-0.2,0.8-0.7,1.3-1.3l0.2,0.1c-0.4,0.7-0.9,1.2-1.4,1.5c-0.5,0.3-1.2,0.5-1.9,0.5c-1.3,0-2.3-0.5-3-1.5
		c-0.5-0.7-0.8-1.6-0.8-2.5c0-0.8,0.2-1.5,0.5-2.2c0.4-0.7,0.8-1.2,1.5-1.5c0.6-0.4,1.3-0.5,2-0.5c0.6,0,1.1,0.1,1.7,0.4
		c0.2,0.1,0.3,0.1,0.3,0.1c0.1,0,0.2,0,0.3-0.1c0.1-0.1,0.2-0.3,0.2-0.4H354.6z"/>
	<path class="st5" d="M357.8,46.3h3.7v-2.3c0-0.4,0-0.7-0.1-0.8c0-0.1-0.1-0.2-0.2-0.2c-0.2-0.1-0.3-0.1-0.5-0.1h-0.3v-0.2h3.4v0.2
		h-0.3c-0.2,0-0.4,0-0.5,0.1c-0.1,0.1-0.2,0.2-0.3,0.3c0,0.1-0.1,0.4-0.1,0.8v5.1c0,0.4,0,0.7,0.1,0.8c0,0.1,0.1,0.2,0.2,0.2
		c0.2,0.1,0.3,0.1,0.5,0.1h0.3v0.2h-3.4v-0.2h0.3c0.3,0,0.6-0.1,0.7-0.3c0.1-0.1,0.1-0.4,0.1-0.9v-2.4h-3.7v2.4c0,0.4,0,0.7,0.1,0.8
		c0,0.1,0.1,0.2,0.2,0.2c0.2,0.1,0.3,0.1,0.5,0.1h0.3v0.2h-3.4v-0.2h0.3c0.3,0,0.6-0.1,0.7-0.3c0.1-0.1,0.1-0.4,0.1-0.9v-5.1
		c0-0.4,0-0.7-0.1-0.8c0-0.1-0.1-0.2-0.2-0.2c-0.2-0.1-0.3-0.1-0.5-0.1h-0.3v-0.2h3.4v0.2h-0.3c-0.2,0-0.4,0-0.5,0.1
		c-0.1,0.1-0.2,0.2-0.3,0.3c0,0.1-0.1,0.4-0.1,0.8V46.3z"/>
	<path class="st5" d="M366.5,43.1v3.1h1.7c0.4,0,0.8-0.1,0.9-0.2c0.2-0.2,0.3-0.5,0.3-0.9h0.2v2.7h-0.2c-0.1-0.4-0.1-0.6-0.2-0.7
		c-0.1-0.1-0.2-0.2-0.3-0.3c-0.2-0.1-0.4-0.1-0.7-0.1h-1.7v2.6c0,0.3,0,0.6,0,0.6c0,0.1,0.1,0.1,0.2,0.2c0.1,0,0.2,0.1,0.4,0.1h1.3
		c0.4,0,0.8,0,1-0.1c0.2-0.1,0.4-0.2,0.6-0.4c0.2-0.2,0.5-0.6,0.7-1.1h0.2l-0.7,2h-6.1v-0.2h0.3c0.2,0,0.4,0,0.5-0.1
		c0.1-0.1,0.2-0.2,0.3-0.3c0-0.1,0.1-0.4,0.1-0.8V44c0-0.5-0.1-0.8-0.2-0.9c-0.1-0.2-0.4-0.2-0.7-0.2h-0.3v-0.2h6.1l0.1,1.7h-0.2
		c-0.1-0.4-0.2-0.7-0.3-0.9c-0.1-0.2-0.2-0.3-0.4-0.4c-0.2-0.1-0.4-0.1-0.8-0.1H366.5z"/>
	<path class="st5" d="M379.3,50.5h-2.1l-2.7-3.7c-0.2,0-0.4,0-0.5,0c-0.1,0-0.1,0-0.2,0c-0.1,0-0.1,0-0.2,0v2.3
		c0,0.5,0.1,0.8,0.2,0.9c0.1,0.2,0.4,0.3,0.7,0.3h0.3v0.2h-3.4v-0.2h0.3c0.3,0,0.6-0.1,0.7-0.3c0.1-0.1,0.1-0.4,0.1-0.9v-5.1
		c0-0.5-0.1-0.8-0.2-0.9c-0.2-0.2-0.4-0.3-0.7-0.3h-0.3v-0.2h2.9c0.8,0,1.5,0.1,1.8,0.2c0.4,0.1,0.7,0.3,1,0.7
		c0.3,0.3,0.4,0.7,0.4,1.2c0,0.5-0.2,0.9-0.5,1.3c-0.3,0.4-0.8,0.6-1.5,0.8l1.6,2.3c0.4,0.5,0.7,0.9,1,1c0.3,0.2,0.6,0.3,1,0.3V50.5
		z M373.7,46.5c0.1,0,0.1,0,0.2,0c0.1,0,0.1,0,0.1,0c0.8,0,1.3-0.2,1.7-0.5c0.4-0.3,0.6-0.7,0.6-1.2c0-0.5-0.2-0.9-0.5-1.2
		c-0.3-0.3-0.7-0.5-1.2-0.5c-0.2,0-0.5,0-0.9,0.1V46.5z"/>
	<path class="st5" d="M386.3,42.5l0.2,2.7h-0.2c-0.2-0.8-0.6-1.4-1-1.7c-0.4-0.4-1-0.5-1.6-0.5c-0.5,0-1,0.1-1.4,0.4
		c-0.4,0.3-0.8,0.7-1,1.3c-0.2,0.6-0.4,1.3-0.4,2.2c0,0.7,0.1,1.3,0.3,1.9c0.2,0.5,0.6,0.9,1,1.2c0.5,0.3,1,0.4,1.6,0.4
		c0.5,0,1-0.1,1.4-0.3c0.4-0.2,0.8-0.7,1.3-1.3l0.2,0.1c-0.4,0.7-0.9,1.2-1.4,1.5c-0.5,0.3-1.2,0.5-1.9,0.5c-1.3,0-2.3-0.5-3-1.5
		c-0.5-0.7-0.8-1.6-0.8-2.5c0-0.8,0.2-1.5,0.5-2.2c0.4-0.7,0.8-1.2,1.5-1.5c0.6-0.4,1.3-0.5,2-0.5c0.6,0,1.1,0.1,1.7,0.4
		c0.2,0.1,0.3,0.1,0.3,0.1c0.1,0,0.2,0,0.3-0.1c0.1-0.1,0.2-0.3,0.2-0.4H386.3z"/>
	<path class="st5" d="M389.5,46.3h3.7v-2.3c0-0.4,0-0.7-0.1-0.8c0-0.1-0.1-0.2-0.2-0.2c-0.2-0.1-0.3-0.1-0.5-0.1h-0.3v-0.2h3.4v0.2
		h-0.3c-0.2,0-0.4,0-0.5,0.1c-0.1,0.1-0.2,0.2-0.3,0.3c0,0.1-0.1,0.4-0.1,0.8v5.1c0,0.4,0,0.7,0.1,0.8c0,0.1,0.1,0.2,0.2,0.2
		c0.2,0.1,0.3,0.1,0.5,0.1h0.3v0.2h-3.4v-0.2h0.3c0.3,0,0.6-0.1,0.7-0.3c0.1-0.1,0.1-0.4,0.1-0.9v-2.4h-3.7v2.4c0,0.4,0,0.7,0.1,0.8
		c0,0.1,0.1,0.2,0.2,0.2c0.2,0.1,0.3,0.1,0.5,0.1h0.3v0.2h-3.4v-0.2h0.3c0.3,0,0.6-0.1,0.7-0.3c0.1-0.1,0.1-0.4,0.1-0.9v-5.1
		c0-0.4,0-0.7-0.1-0.8c0-0.1-0.1-0.2-0.2-0.2c-0.2-0.1-0.3-0.1-0.5-0.1h-0.3v-0.2h3.4v0.2h-0.3c-0.2,0-0.4,0-0.5,0.1
		c-0.1,0.1-0.2,0.2-0.3,0.3c0,0.1-0.1,0.4-0.1,0.8V46.3z"/>
	<path class="st5" d="M398.2,43.1v3.1h1.7c0.4,0,0.7-0.1,0.9-0.2c0.2-0.2,0.3-0.5,0.3-0.9h0.2v2.7h-0.2c-0.1-0.4-0.1-0.6-0.2-0.7
		c-0.1-0.1-0.2-0.2-0.3-0.3c-0.2-0.1-0.4-0.1-0.7-0.1h-1.7v2.6c0,0.3,0,0.6,0,0.6c0,0.1,0.1,0.1,0.2,0.2c0.1,0,0.2,0.1,0.4,0.1h1.3
		c0.4,0,0.8,0,1-0.1c0.2-0.1,0.4-0.2,0.6-0.4c0.2-0.2,0.5-0.6,0.7-1.1h0.2l-0.7,2h-6.1v-0.2h0.3c0.2,0,0.4,0,0.5-0.1
		c0.1-0.1,0.2-0.2,0.3-0.3c0-0.1,0.1-0.4,0.1-0.8V44c0-0.5-0.1-0.8-0.2-0.9c-0.1-0.2-0.4-0.2-0.7-0.2h-0.3v-0.2h6.1l0.1,1.7h-0.2
		c-0.1-0.4-0.2-0.7-0.3-0.9c-0.1-0.2-0.2-0.3-0.4-0.4c-0.2-0.1-0.4-0.1-0.8-0.1H398.2z"/>
	<path class="st5" d="M292.3,56.1v3.1h1.7c0.4,0,0.7-0.1,0.9-0.2c0.2-0.2,0.3-0.5,0.3-0.9h0.2v2.7h-0.2c-0.1-0.4-0.1-0.6-0.2-0.7
		c-0.1-0.1-0.2-0.2-0.3-0.3c-0.2-0.1-0.4-0.1-0.7-0.1h-1.7v2.6c0,0.3,0,0.6,0,0.6c0,0.1,0.1,0.1,0.2,0.2c0.1,0,0.2,0.1,0.4,0.1h1.3
		c0.4,0,0.8,0,1-0.1c0.2-0.1,0.4-0.2,0.6-0.4c0.2-0.2,0.5-0.6,0.7-1.1h0.2l-0.7,2H290v-0.2h0.3c0.2,0,0.4,0,0.5-0.1
		c0.1-0.1,0.2-0.2,0.3-0.3c0-0.1,0.1-0.4,0.1-0.8V57c0-0.5-0.1-0.8-0.2-0.9c-0.1-0.2-0.4-0.2-0.7-0.2H290v-0.2h6.1l0.1,1.7H296
		c-0.1-0.4-0.2-0.7-0.3-0.9c-0.1-0.2-0.2-0.3-0.4-0.4c-0.2-0.1-0.4-0.1-0.8-0.1H292.3z"/>
	<path class="st5" d="M303.9,55.6l0.1,1.8h-0.2c0-0.3-0.1-0.6-0.2-0.7c-0.1-0.2-0.3-0.4-0.5-0.5c-0.2-0.1-0.5-0.2-0.8-0.2h-1.1v6
		c0,0.5,0.1,0.8,0.2,0.9c0.1,0.2,0.4,0.2,0.7,0.2h0.3v0.2H299v-0.2h0.3c0.3,0,0.6-0.1,0.7-0.3c0.1-0.1,0.1-0.4,0.1-0.8v-6h-0.9
		c-0.4,0-0.6,0-0.8,0.1c-0.2,0.1-0.4,0.2-0.5,0.4c-0.1,0.2-0.2,0.5-0.3,0.8h-0.2l0.1-1.8H303.9z"/>
	<path class="st5" d="M307.3,63.5v-0.2h0.3c0.3,0,0.6-0.1,0.7-0.3c0.1-0.1,0.1-0.4,0.1-0.9V57c0-0.5-0.1-0.8-0.2-0.9
		c-0.2-0.2-0.4-0.3-0.7-0.3h-0.3v-0.2h3.2c1.2,0,2.1,0.1,2.7,0.4c0.6,0.3,1.1,0.7,1.5,1.3c0.4,0.6,0.6,1.3,0.6,2.2
		c0,1.1-0.3,2-1,2.7c-0.7,0.8-1.9,1.2-3.4,1.2H307.3z M309.5,62.9c0.5,0.1,0.9,0.2,1.2,0.2c0.9,0,1.6-0.3,2.2-0.9
		c0.6-0.6,0.9-1.5,0.9-2.6c0-1.1-0.3-1.9-0.9-2.6c-0.6-0.6-1.4-0.9-2.3-0.9c-0.3,0-0.7,0.1-1.2,0.2V62.9z"/>
	<path class="st5" d="M318.1,56.1v3.1h1.7c0.4,0,0.8-0.1,0.9-0.2c0.2-0.2,0.3-0.5,0.3-0.9h0.2v2.7h-0.2c-0.1-0.4-0.1-0.6-0.2-0.7
		c-0.1-0.1-0.2-0.2-0.3-0.3c-0.2-0.1-0.4-0.1-0.7-0.1h-1.7v2.6c0,0.3,0,0.6,0,0.6c0,0.1,0.1,0.1,0.2,0.2c0.1,0,0.2,0.1,0.4,0.1h1.3
		c0.4,0,0.8,0,1-0.1c0.2-0.1,0.4-0.2,0.6-0.4c0.2-0.2,0.5-0.6,0.7-1.1h0.2l-0.7,2h-6.1v-0.2h0.3c0.2,0,0.4,0,0.5-0.1
		c0.1-0.1,0.2-0.2,0.3-0.3c0-0.1,0.1-0.4,0.1-0.8V57c0-0.5-0.1-0.8-0.2-0.9c-0.1-0.2-0.4-0.2-0.7-0.2h-0.3v-0.2h6.1l0.1,1.7h-0.2
		c-0.1-0.4-0.2-0.7-0.3-0.9s-0.2-0.3-0.4-0.4c-0.2-0.1-0.4-0.1-0.8-0.1H318.1z"/>
	<path class="st5" d="M332.7,61.3l0.2,0l-0.7,2.1h-6.1v-0.2h0.3c0.3,0,0.6-0.1,0.7-0.3c0.1-0.1,0.1-0.4,0.1-0.9V57
		c0-0.5-0.1-0.8-0.2-0.9c-0.2-0.2-0.4-0.3-0.7-0.3h-0.3v-0.2h3.6v0.2c-0.4,0-0.7,0-0.9,0.1c-0.2,0.1-0.3,0.2-0.3,0.3
		c-0.1,0.1-0.1,0.4-0.1,0.9v4.9c0,0.3,0,0.5,0.1,0.7c0,0.1,0.1,0.1,0.2,0.2c0.1,0,0.4,0.1,0.9,0.1h0.6c0.6,0,1,0,1.3-0.1
		c0.2-0.1,0.5-0.2,0.7-0.5C332.3,62.2,332.5,61.8,332.7,61.3"/>
	<path class="st5" d="M333.4,58.5v-0.3c0.4-0.2,0.7-0.5,0.8-0.7c0.1-0.1,0.2-0.3,0.2-0.5c0-0.1,0-0.2-0.1-0.3c0-0.1-0.1-0.1-0.2-0.1
		c0,0-0.1,0-0.2,0c-0.1,0-0.2,0.1-0.3,0.1c-0.2,0-0.3-0.1-0.4-0.2c-0.1-0.1-0.2-0.3-0.2-0.4c0-0.2,0.1-0.3,0.2-0.5
		c0.2-0.1,0.4-0.2,0.6-0.2c0.3,0,0.5,0.1,0.7,0.3c0.2,0.2,0.3,0.5,0.3,0.8c0,0.5-0.2,0.9-0.5,1.2C334.2,58.1,333.9,58.3,333.4,58.5"
		/>
	<path class="st5" d="M339.7,63.3v0.2h-3.4v-0.2h0.3c0.3,0,0.6-0.1,0.7-0.3c0.1-0.1,0.1-0.4,0.1-0.9V57c0-0.4,0-0.7-0.1-0.8
		c0-0.1-0.1-0.2-0.2-0.2c-0.2-0.1-0.3-0.1-0.5-0.1h-0.3v-0.2h3.4v0.2h-0.3c-0.3,0-0.6,0.1-0.7,0.3c-0.1,0.1-0.1,0.4-0.1,0.9v5.1
		c0,0.4,0,0.7,0.1,0.8c0,0.1,0.1,0.2,0.2,0.2c0.2,0.1,0.3,0.1,0.5,0.1H339.7z"/>
	<path class="st5" d="M339.8,55.6h2.1l4.8,5.9V57c0-0.5-0.1-0.8-0.2-0.9c-0.1-0.2-0.4-0.2-0.7-0.2h-0.3v-0.2h2.7v0.2h-0.3
		c-0.3,0-0.6,0.1-0.7,0.3c-0.1,0.1-0.1,0.4-0.1,0.8v6.6h-0.2l-5.2-6.3v4.8c0,0.5,0.1,0.8,0.2,0.9c0.1,0.2,0.4,0.2,0.7,0.2h0.3v0.2
		h-2.7v-0.2h0.3c0.3,0,0.6-0.1,0.7-0.3c0.1-0.1,0.1-0.4,0.1-0.8v-5.5c-0.2-0.3-0.4-0.4-0.5-0.5c-0.1-0.1-0.3-0.2-0.5-0.2
		c-0.1,0-0.3-0.1-0.5-0.1V55.6z"/>
	<path class="st5" d="M348.4,55.6h2.1l4.8,5.9V57c0-0.5-0.1-0.8-0.2-0.9c-0.1-0.2-0.4-0.2-0.7-0.2h-0.3v-0.2h2.7v0.2h-0.3
		c-0.3,0-0.6,0.1-0.7,0.3c-0.1,0.1-0.1,0.4-0.1,0.8v6.6h-0.2l-5.2-6.3v4.8c0,0.5,0.1,0.8,0.2,0.9c0.1,0.2,0.4,0.2,0.7,0.2h0.3v0.2
		h-2.7v-0.2h0.3c0.3,0,0.6-0.1,0.7-0.3c0.1-0.1,0.1-0.4,0.1-0.8v-5.5c-0.2-0.3-0.4-0.4-0.5-0.5c-0.1-0.1-0.3-0.2-0.5-0.2
		c-0.1,0-0.3-0.1-0.5-0.1V55.6z"/>
	<path class="st5" d="M361.5,55.5c1,0,1.9,0.4,2.7,1.2c0.7,0.8,1.1,1.7,1.1,2.9c0,1.2-0.4,2.2-1.1,3c-0.8,0.8-1.7,1.2-2.7,1.2
		c-1.1,0-2-0.4-2.7-1.2c-0.7-0.8-1.1-1.8-1.1-3c0-1.3,0.4-2.3,1.3-3.1C359.6,55.8,360.5,55.5,361.5,55.5 M361.4,55.9
		c-0.7,0-1.3,0.3-1.7,0.8c-0.5,0.7-0.8,1.6-0.8,2.9c0,1.3,0.3,2.3,0.8,3c0.4,0.5,1,0.8,1.7,0.8c0.7,0,1.4-0.3,1.8-0.9
		c0.5-0.6,0.7-1.5,0.7-2.7c0-1.3-0.3-2.4-0.8-3C362.7,56.2,362.1,55.9,361.4,55.9"/>
	<path class="st5" d="M374.2,55.6v0.2c-0.3,0.1-0.5,0.1-0.6,0.3c-0.2,0.2-0.4,0.5-0.5,0.9l-2.7,6.7H370l-2.9-6.8
		c-0.2-0.3-0.3-0.6-0.3-0.6c-0.1-0.1-0.2-0.2-0.4-0.3c-0.1-0.1-0.3-0.1-0.6-0.1v-0.2h3.2v0.2c-0.4,0-0.6,0.1-0.7,0.2
		c-0.1,0.1-0.2,0.2-0.2,0.3c0,0.2,0.1,0.5,0.3,0.9l2,4.6l1.9-4.6c0.2-0.4,0.3-0.8,0.3-0.9c0-0.1-0.1-0.2-0.2-0.3
		c-0.1-0.1-0.3-0.2-0.6-0.2c0,0-0.1,0-0.1,0v-0.2H374.2z"/>
	<path class="st5" d="M378.2,60.9h-3l-0.5,1.2c-0.1,0.3-0.2,0.5-0.2,0.7c0,0.1,0.1,0.2,0.2,0.3c0.1,0.1,0.4,0.2,0.7,0.2v0.2h-2.5
		v-0.2c0.3-0.1,0.5-0.1,0.6-0.2c0.2-0.2,0.4-0.6,0.7-1.1l2.8-6.5h0.2l2.7,6.5c0.2,0.5,0.4,0.9,0.6,1c0.2,0.2,0.4,0.2,0.8,0.3v0.2
		h-3.1v-0.2c0.3,0,0.5-0.1,0.6-0.2c0.1-0.1,0.2-0.2,0.2-0.3c0-0.2-0.1-0.4-0.2-0.8L378.2,60.9z M378.1,60.5l-1.3-3.2l-1.4,3.2H378.1
		z"/>
	<path class="st5" d="M386.9,55.6l0.1,1.8h-0.2c0-0.3-0.1-0.6-0.2-0.7c-0.1-0.2-0.3-0.4-0.5-0.5c-0.2-0.1-0.5-0.2-0.8-0.2h-1.1v6
		c0,0.5,0.1,0.8,0.2,0.9c0.1,0.2,0.4,0.2,0.7,0.2h0.3v0.2H382v-0.2h0.3c0.3,0,0.6-0.1,0.7-0.3c0.1-0.1,0.1-0.4,0.1-0.8v-6h-0.9
		c-0.4,0-0.6,0-0.8,0.1c-0.2,0.1-0.4,0.2-0.5,0.4c-0.1,0.2-0.2,0.5-0.3,0.8h-0.2l0.1-1.8H386.9z"/>
	<path class="st5" d="M391,63.3v0.2h-3.4v-0.2h0.3c0.3,0,0.6-0.1,0.7-0.3c0.1-0.1,0.1-0.4,0.1-0.9V57c0-0.4,0-0.7-0.1-0.8
		c0-0.1-0.1-0.2-0.2-0.2c-0.2-0.1-0.3-0.1-0.5-0.1h-0.3v-0.2h3.4v0.2h-0.3c-0.3,0-0.6,0.1-0.7,0.3c-0.1,0.1-0.1,0.4-0.1,0.9v5.1
		c0,0.4,0,0.7,0.1,0.8c0,0.1,0.1,0.2,0.2,0.2c0.2,0.1,0.3,0.1,0.5,0.1H391z"/>
	<path class="st5" d="M395.6,55.5c1,0,1.9,0.4,2.7,1.2c0.7,0.8,1.1,1.7,1.1,2.9c0,1.2-0.4,2.2-1.1,3c-0.8,0.8-1.7,1.2-2.7,1.2
		c-1.1,0-2-0.4-2.7-1.2c-0.7-0.8-1.1-1.8-1.1-3c0-1.3,0.4-2.3,1.3-3.1C393.7,55.8,394.6,55.5,395.6,55.5 M395.5,55.9
		c-0.7,0-1.3,0.3-1.7,0.8c-0.5,0.7-0.8,1.6-0.8,2.9c0,1.3,0.3,2.3,0.8,3c0.4,0.5,1,0.8,1.7,0.8c0.7,0,1.3-0.3,1.8-0.9
		c0.5-0.6,0.7-1.5,0.7-2.7c0-1.3-0.3-2.4-0.8-3C396.9,56.2,396.3,55.9,395.5,55.9"/>
	<path class="st5" d="M399.7,55.6h2.1l4.8,5.9V57c0-0.5-0.1-0.8-0.2-0.9c-0.1-0.2-0.4-0.2-0.7-0.2h-0.3v-0.2h2.7v0.2H408
		c-0.3,0-0.6,0.1-0.7,0.3c-0.1,0.1-0.1,0.4-0.1,0.8v6.6H407l-5.2-6.3v4.8c0,0.5,0.1,0.8,0.2,0.9c0.1,0.2,0.4,0.2,0.7,0.2h0.3v0.2
		h-2.7v-0.2h0.3c0.3,0,0.6-0.1,0.7-0.3c0.1-0.1,0.1-0.4,0.1-0.8v-5.5c-0.2-0.3-0.4-0.4-0.5-0.5c-0.1-0.1-0.3-0.2-0.5-0.2
		c-0.1,0-0.3-0.1-0.5-0.1V55.6z"/>
	<path class="st5" d="M153.2,32.2l-3-6.6v5.3c0,0.5,0.1,0.8,0.2,0.9c0.1,0.2,0.4,0.2,0.7,0.2h0.3v0.2h-2.7V32h0.3
		c0.3,0,0.6-0.1,0.7-0.3c0.1-0.1,0.1-0.4,0.1-0.8v-5.1c0-0.3,0-0.6-0.1-0.8c-0.1-0.1-0.2-0.2-0.3-0.3c-0.1-0.1-0.4-0.1-0.7-0.1v-0.2
		h2.2l2.9,6.2l2.8-6.2h2.2v0.2h-0.3c-0.3,0-0.6,0.1-0.7,0.3c-0.1,0.1-0.1,0.4-0.1,0.8v5.1c0,0.5,0.1,0.8,0.2,0.9
		c0.1,0.2,0.4,0.2,0.7,0.2h0.3v0.2h-3.3V32h0.3c0.3,0,0.6-0.1,0.7-0.3c0.1-0.1,0.1-0.4,0.1-0.8v-5.3l-3,6.6H153.2z"/>
	<path class="st5" d="M162.6,32v0.2h-3.4V32h0.3c0.3,0,0.6-0.1,0.7-0.3c0.1-0.1,0.1-0.4,0.1-0.9v-5.1c0-0.4,0-0.7-0.1-0.8
		c0-0.1-0.1-0.2-0.2-0.3c-0.2-0.1-0.3-0.1-0.5-0.1h-0.3v-0.2h3.4v0.2h-0.3c-0.3,0-0.6,0.1-0.7,0.3c-0.1,0.1-0.1,0.4-0.1,0.9v5.1
		c0,0.4,0,0.7,0.1,0.8c0,0.1,0.1,0.2,0.2,0.3c0.2,0.1,0.3,0.1,0.5,0.1H162.6z"/>
	<path class="st5" d="M162.8,24.4h2.1l4.8,5.9v-4.5c0-0.5-0.1-0.8-0.2-0.9c-0.1-0.2-0.4-0.2-0.7-0.2h-0.3v-0.2h2.7v0.2h-0.3
		c-0.3,0-0.6,0.1-0.7,0.3c-0.1,0.1-0.1,0.4-0.1,0.8v6.6H170l-5.2-6.3v4.8c0,0.5,0.1,0.8,0.2,0.9c0.1,0.2,0.4,0.2,0.7,0.2h0.3v0.2
		h-2.7V32h0.3c0.3,0,0.6-0.1,0.7-0.3c0.1-0.1,0.1-0.4,0.1-0.8v-5.5c-0.2-0.3-0.4-0.4-0.5-0.5c-0.1-0.1-0.3-0.2-0.5-0.2
		c-0.1,0-0.3-0.1-0.5-0.1V24.4z"/>
	<path class="st5" d="M175.2,32v0.2h-3.4V32h0.3c0.3,0,0.6-0.1,0.7-0.3c0.1-0.1,0.1-0.4,0.1-0.9v-5.1c0-0.4,0-0.7-0.1-0.8
		c0-0.1-0.1-0.2-0.2-0.3c-0.2-0.1-0.3-0.1-0.5-0.1h-0.3v-0.2h3.4v0.2h-0.3c-0.3,0-0.6,0.1-0.7,0.3c-0.1,0.1-0.1,0.4-0.1,0.9v5.1
		c0,0.4,0,0.7,0.1,0.8c0,0.1,0.1,0.2,0.2,0.3c0.2,0.1,0.3,0.1,0.5,0.1H175.2z"/>
	<path class="st5" d="M180.9,24.2v2.7h-0.2c-0.1-0.5-0.2-0.9-0.4-1.2c-0.2-0.3-0.4-0.6-0.8-0.7c-0.3-0.2-0.7-0.3-1-0.3
		c-0.4,0-0.7,0.1-1,0.4c-0.3,0.2-0.4,0.5-0.4,0.8c0,0.2,0.1,0.5,0.2,0.7c0.2,0.3,0.8,0.7,1.7,1.2c0.7,0.4,1.2,0.7,1.5,0.9
		c0.3,0.2,0.5,0.5,0.6,0.7c0.1,0.3,0.2,0.6,0.2,0.9c0,0.6-0.2,1.1-0.7,1.5c-0.5,0.4-1.1,0.6-1.8,0.6c-0.2,0-0.4,0-0.6-0.1
		c-0.1,0-0.4-0.1-0.7-0.2c-0.4-0.1-0.6-0.2-0.7-0.2c-0.1,0-0.2,0-0.2,0.1c-0.1,0.1-0.1,0.2-0.1,0.4h-0.2v-2.7h0.2
		c0.1,0.6,0.2,1,0.4,1.3c0.2,0.3,0.4,0.5,0.8,0.7c0.4,0.2,0.7,0.3,1.2,0.3c0.5,0,0.9-0.1,1.1-0.4c0.3-0.3,0.4-0.6,0.4-0.9
		c0-0.2-0.1-0.4-0.2-0.6c-0.1-0.2-0.3-0.4-0.5-0.6c-0.2-0.1-0.6-0.4-1.2-0.7c-0.7-0.4-1.2-0.7-1.4-0.9c-0.3-0.2-0.5-0.5-0.6-0.7
		c-0.1-0.3-0.2-0.6-0.2-0.9c0-0.6,0.2-1.1,0.6-1.5c0.4-0.4,1-0.6,1.7-0.6c0.4,0,0.9,0.1,1.3,0.3c0.2,0.1,0.4,0.1,0.5,0.1
		c0.1,0,0.2,0,0.2-0.1c0.1-0.1,0.1-0.2,0.2-0.4H180.9z"/>
	<path class="st5" d="M189,24.4l0.1,1.8h-0.2c0-0.3-0.1-0.6-0.2-0.7c-0.1-0.2-0.3-0.4-0.5-0.5c-0.2-0.1-0.5-0.2-0.8-0.2h-1.1v6
		c0,0.5,0.1,0.8,0.2,0.9c0.1,0.2,0.4,0.2,0.7,0.2h0.3v0.2H184V32h0.3c0.3,0,0.6-0.1,0.7-0.3c0.1-0.1,0.1-0.4,0.1-0.8v-6h-0.9
		c-0.4,0-0.6,0-0.8,0.1c-0.2,0.1-0.4,0.2-0.5,0.4c-0.1,0.2-0.2,0.5-0.3,0.8h-0.2l0.1-1.8H189z"/>
	<path class="st5" d="M191.8,24.8v3.1h1.7c0.4,0,0.7-0.1,0.9-0.2c0.2-0.2,0.3-0.5,0.3-0.9h0.2v2.7h-0.2c-0.1-0.4-0.1-0.6-0.2-0.7
		c-0.1-0.1-0.2-0.2-0.3-0.3c-0.2-0.1-0.4-0.1-0.7-0.1h-1.7v2.6c0,0.3,0,0.6,0,0.6c0,0.1,0.1,0.1,0.2,0.2c0.1,0,0.2,0.1,0.4,0.1h1.3
		c0.4,0,0.8,0,1-0.1c0.2-0.1,0.4-0.2,0.6-0.4c0.2-0.2,0.5-0.6,0.7-1.1h0.2l-0.7,2h-6.1V32h0.3c0.2,0,0.4,0,0.5-0.1
		c0.1-0.1,0.2-0.2,0.3-0.3c0-0.1,0.1-0.4,0.1-0.8v-5.1c0-0.5-0.1-0.8-0.2-0.9c-0.1-0.2-0.4-0.2-0.7-0.2h-0.3v-0.2h6.1l0.1,1.7h-0.2
		c-0.1-0.4-0.2-0.7-0.3-0.9c-0.1-0.2-0.2-0.3-0.4-0.4c-0.2-0.1-0.4-0.1-0.8-0.1H191.8z M191.7,21.8h1.3l0.6,2h-0.2L191.7,21.8z"/>
	<path class="st5" d="M204.6,32.2h-2.1l-2.7-3.7c-0.2,0-0.4,0-0.5,0c-0.1,0-0.1,0-0.2,0c-0.1,0-0.1,0-0.2,0v2.3
		c0,0.5,0.1,0.8,0.2,0.9c0.1,0.2,0.4,0.3,0.7,0.3h0.3v0.2h-3.4V32h0.3c0.3,0,0.6-0.1,0.7-0.3c0.1-0.1,0.1-0.4,0.1-0.9v-5.1
		c0-0.5-0.1-0.8-0.2-0.9c-0.2-0.2-0.4-0.3-0.7-0.3h-0.3v-0.2h2.9c0.8,0,1.5,0.1,1.8,0.2c0.4,0.1,0.7,0.3,1,0.7
		c0.3,0.3,0.4,0.7,0.4,1.2c0,0.5-0.2,0.9-0.5,1.3c-0.3,0.4-0.8,0.6-1.5,0.8l1.6,2.3c0.4,0.5,0.7,0.9,1,1c0.3,0.2,0.6,0.3,1,0.3V32.2
		z M199,28.2c0.1,0,0.1,0,0.2,0c0.1,0,0.1,0,0.1,0c0.8,0,1.3-0.2,1.7-0.5c0.4-0.3,0.6-0.7,0.6-1.2c0-0.5-0.2-0.9-0.5-1.2
		c-0.3-0.3-0.7-0.5-1.2-0.5c-0.2,0-0.5,0-0.9,0.1V28.2z"/>
	<path class="st5" d="M207,24.8v3.1h1.7c0.4,0,0.7-0.1,0.9-0.2c0.2-0.2,0.3-0.5,0.3-0.9h0.2v2.7H210c-0.1-0.4-0.1-0.6-0.2-0.7
		c-0.1-0.1-0.2-0.2-0.3-0.3c-0.2-0.1-0.4-0.1-0.7-0.1H207v2.6c0,0.3,0,0.6,0,0.6c0,0.1,0.1,0.1,0.2,0.2c0.1,0,0.2,0.1,0.4,0.1h1.3
		c0.4,0,0.8,0,1-0.1c0.2-0.1,0.4-0.2,0.6-0.4c0.2-0.2,0.5-0.6,0.7-1.1h0.2l-0.7,2h-6.1V32h0.3c0.2,0,0.4,0,0.5-0.1
		c0.1-0.1,0.2-0.2,0.3-0.3c0-0.1,0.1-0.4,0.1-0.8v-5.1c0-0.5-0.1-0.8-0.2-0.9c-0.1-0.2-0.4-0.2-0.7-0.2h-0.3v-0.2h6.1l0.1,1.7h-0.2
		c-0.1-0.4-0.2-0.7-0.3-0.9c-0.1-0.2-0.2-0.3-0.4-0.4c-0.2-0.1-0.4-0.1-0.8-0.1H207z"/>
	<path class="st5" d="M131.8,45.2V45h0.3c0.3,0,0.6-0.1,0.7-0.3c0.1-0.1,0.1-0.4,0.1-0.9v-5.1c0-0.5-0.1-0.8-0.2-0.9
		c-0.2-0.2-0.4-0.3-0.7-0.3h-0.3v-0.2h3.2c1.2,0,2.1,0.1,2.7,0.4c0.6,0.3,1.1,0.7,1.5,1.3c0.4,0.6,0.6,1.3,0.6,2.2
		c0,1.1-0.3,2-1,2.7c-0.7,0.8-1.9,1.2-3.4,1.2H131.8z M134,44.6c0.5,0.1,0.9,0.2,1.2,0.2c0.9,0,1.6-0.3,2.2-0.9
		c0.6-0.6,0.9-1.5,0.9-2.6c0-1.1-0.3-1.9-0.9-2.6c-0.6-0.6-1.4-0.9-2.3-0.9c-0.3,0-0.7,0.1-1.2,0.2V44.6z"/>
	<path class="st5" d="M142.7,37.8v3.1h1.7c0.4,0,0.7-0.1,0.9-0.2c0.2-0.2,0.3-0.5,0.3-0.9h0.2v2.7h-0.2c-0.1-0.4-0.1-0.6-0.2-0.7
		c-0.1-0.1-0.2-0.2-0.3-0.3c-0.2-0.1-0.4-0.1-0.7-0.1h-1.7v2.6c0,0.3,0,0.6,0,0.6c0,0.1,0.1,0.1,0.2,0.2c0.1,0,0.2,0.1,0.4,0.1h1.3
		c0.4,0,0.8,0,1-0.1c0.2-0.1,0.4-0.2,0.6-0.4c0.2-0.2,0.5-0.6,0.7-1.1h0.2l-0.7,2h-6.1V45h0.3c0.2,0,0.4,0,0.5-0.1
		c0.1-0.1,0.2-0.2,0.3-0.3c0-0.1,0.1-0.4,0.1-0.8v-5.1c0-0.5-0.1-0.8-0.2-0.9c-0.1-0.2-0.4-0.2-0.7-0.2h-0.3v-0.2h6.1l0.1,1.7h-0.2
		c-0.1-0.4-0.2-0.7-0.3-0.9c-0.1-0.2-0.2-0.3-0.4-0.4c-0.2-0.1-0.4-0.1-0.8-0.1H142.7z"/>
	<path class="st5" d="M157.2,43l0.2,0l-0.7,2.1h-6.1V45h0.3c0.3,0,0.6-0.1,0.7-0.3c0.1-0.1,0.1-0.4,0.1-0.9v-5.1
		c0-0.5-0.1-0.8-0.2-0.9c-0.2-0.2-0.4-0.3-0.7-0.3h-0.3v-0.2h3.6v0.2c-0.4,0-0.7,0-0.9,0.1c-0.2,0.1-0.3,0.2-0.3,0.3
		c-0.1,0.1-0.1,0.4-0.1,0.9v4.9c0,0.3,0,0.5,0.1,0.7c0,0.1,0.1,0.1,0.2,0.2c0.1,0,0.4,0.1,0.9,0.1h0.6c0.6,0,1,0,1.3-0.1
		c0.2-0.1,0.5-0.2,0.7-0.5C156.8,43.9,157,43.5,157.2,43"/>
	<path class="st5" d="M158,40.2v-0.3c0.4-0.2,0.7-0.5,0.8-0.7c0.1-0.1,0.2-0.3,0.2-0.5c0-0.1,0-0.2-0.1-0.3c0-0.1-0.1-0.1-0.2-0.1
		c0,0-0.1,0-0.2,0c-0.1,0-0.2,0.1-0.3,0.1c-0.2,0-0.3-0.1-0.4-0.2c-0.1-0.1-0.2-0.3-0.2-0.4c0-0.2,0.1-0.3,0.2-0.5
		c0.2-0.1,0.4-0.2,0.6-0.2c0.3,0,0.5,0.1,0.7,0.3c0.2,0.2,0.3,0.5,0.3,0.8c0,0.5-0.2,0.9-0.5,1.2C158.7,39.8,158.4,40,158,40.2"/>
	<path class="st5" d="M163,37.8v3.1h1.7c0.4,0,0.7-0.1,0.9-0.2c0.2-0.2,0.3-0.5,0.3-0.9h0.2v2.7H166c-0.1-0.4-0.1-0.6-0.2-0.7
		c-0.1-0.1-0.2-0.2-0.3-0.3c-0.2-0.1-0.4-0.1-0.7-0.1H163v2.6c0,0.3,0,0.6,0,0.6c0,0.1,0.1,0.1,0.2,0.2c0.1,0,0.2,0.1,0.4,0.1h1.3
		c0.4,0,0.8,0,1-0.1c0.2-0.1,0.4-0.2,0.6-0.4c0.2-0.2,0.5-0.6,0.7-1.1h0.2l-0.7,2h-6.1V45h0.3c0.2,0,0.4,0,0.5-0.1
		c0.1-0.1,0.2-0.2,0.3-0.3c0-0.1,0.1-0.4,0.1-0.8v-5.1c0-0.5-0.1-0.8-0.2-0.9c-0.1-0.2-0.4-0.2-0.7-0.2h-0.3v-0.2h6.1l0.1,1.7h-0.2
		c-0.1-0.4-0.2-0.7-0.3-0.9c-0.1-0.2-0.2-0.3-0.4-0.4c-0.2-0.1-0.4-0.1-0.8-0.1H163z M165.5,34.8l-1.7,2h-0.2l0.6-2H165.5z"/>
	<path class="st5" d="M168,45.2V45h0.3c0.3,0,0.6-0.1,0.7-0.3c0.1-0.1,0.1-0.4,0.1-0.9v-5.1c0-0.5-0.1-0.8-0.2-0.9
		c-0.2-0.2-0.4-0.3-0.7-0.3H168v-0.2h3.2c1.2,0,2.1,0.1,2.7,0.4c0.6,0.3,1.1,0.7,1.5,1.3c0.4,0.6,0.6,1.3,0.6,2.2c0,1.1-0.3,2-1,2.7
		c-0.7,0.8-1.9,1.2-3.4,1.2H168z M170.3,44.6c0.5,0.1,0.9,0.2,1.2,0.2c0.9,0,1.6-0.3,2.2-0.9c0.6-0.6,0.9-1.5,0.9-2.6
		c0-1.1-0.3-1.9-0.9-2.6c-0.6-0.6-1.4-0.9-2.3-0.9c-0.3,0-0.7,0.1-1.2,0.2V44.6z"/>
	<path class="st5" d="M182.1,37.5v-0.2h2.8v0.2h-0.3c-0.3,0-0.5,0.1-0.7,0.4c-0.1,0.1-0.1,0.4-0.1,0.8V42c0,0.8-0.1,1.4-0.2,1.8
		c-0.2,0.4-0.5,0.8-0.9,1.1c-0.5,0.3-1.1,0.5-1.9,0.5c-0.9,0-1.5-0.1-2-0.4c-0.4-0.3-0.8-0.7-0.9-1.2c-0.1-0.3-0.2-1-0.2-1.9v-3.1
		c0-0.5-0.1-0.8-0.2-1c-0.1-0.2-0.3-0.2-0.6-0.2h-0.3v-0.2h3.4v0.2h-0.3c-0.3,0-0.6,0.1-0.7,0.3c-0.1,0.1-0.1,0.4-0.1,0.9v3.4
		c0,0.3,0,0.7,0.1,1.1c0.1,0.4,0.2,0.7,0.3,0.9c0.1,0.2,0.4,0.4,0.6,0.5c0.3,0.1,0.6,0.2,1,0.2c0.5,0,1-0.1,1.4-0.3
		c0.4-0.2,0.7-0.5,0.8-0.9c0.1-0.4,0.2-0.9,0.2-1.8v-3.2c0-0.5-0.1-0.8-0.2-0.9c-0.2-0.2-0.4-0.3-0.7-0.3H182.1z"/>
	<path class="st5" d="M192.1,37.2l0.2,2.7h-0.2c-0.2-0.8-0.6-1.4-1-1.7c-0.4-0.4-1-0.5-1.6-0.5c-0.5,0-1,0.1-1.4,0.4
		c-0.4,0.3-0.8,0.7-1,1.3c-0.2,0.6-0.4,1.3-0.4,2.2c0,0.7,0.1,1.3,0.3,1.9c0.2,0.5,0.6,0.9,1,1.2c0.5,0.3,1,0.4,1.6,0.4
		c0.5,0,1-0.1,1.4-0.3c0.4-0.2,0.8-0.7,1.3-1.3l0.2,0.1c-0.4,0.7-0.9,1.2-1.4,1.5c-0.5,0.3-1.2,0.5-1.9,0.5c-1.3,0-2.3-0.5-3-1.5
		c-0.5-0.7-0.8-1.6-0.8-2.5c0-0.8,0.2-1.5,0.5-2.2c0.4-0.7,0.8-1.2,1.5-1.5c0.6-0.4,1.3-0.5,2-0.5c0.6,0,1.1,0.1,1.7,0.4
		c0.2,0.1,0.3,0.1,0.3,0.1c0.1,0,0.2,0,0.3-0.1c0.1-0.1,0.2-0.3,0.2-0.4H192.1z"/>
	<path class="st5" d="M198.4,42.6h-3l-0.5,1.2c-0.1,0.3-0.2,0.5-0.2,0.7c0,0.1,0.1,0.2,0.2,0.3c0.1,0.1,0.4,0.2,0.7,0.2v0.2H193V45
		c0.3-0.1,0.5-0.1,0.6-0.2c0.2-0.2,0.4-0.6,0.7-1.1l2.8-6.5h0.2l2.7,6.5c0.2,0.5,0.4,0.9,0.6,1c0.2,0.2,0.4,0.2,0.8,0.3v0.2h-3.1V45
		c0.3,0,0.5-0.1,0.6-0.2c0.1-0.1,0.2-0.2,0.2-0.3c0-0.2-0.1-0.4-0.2-0.8L198.4,42.6z M198.2,42.1l-1.3-3.2l-1.4,3.2H198.2z"/>
	<path class="st5" d="M207.1,37.3l0.1,1.8h-0.2c0-0.3-0.1-0.6-0.2-0.7c-0.1-0.2-0.3-0.4-0.5-0.5c-0.2-0.1-0.5-0.2-0.8-0.2h-1.1v6
		c0,0.5,0.1,0.8,0.2,0.9c0.1,0.2,0.4,0.2,0.7,0.2h0.3v0.2h-3.3V45h0.3c0.3,0,0.6-0.1,0.7-0.3c0.1-0.1,0.1-0.4,0.1-0.8v-6h-0.9
		c-0.4,0-0.6,0-0.8,0.1c-0.2,0.1-0.4,0.2-0.5,0.4c-0.1,0.2-0.2,0.5-0.3,0.8h-0.2l0.1-1.8H207.1z"/>
	<path class="st5" d="M211.1,45v0.2h-3.4V45h0.3c0.3,0,0.6-0.1,0.7-0.3c0.1-0.1,0.1-0.4,0.1-0.9v-5.1c0-0.4,0-0.7-0.1-0.8
		c0-0.1-0.1-0.2-0.2-0.2c-0.2-0.1-0.3-0.1-0.5-0.1h-0.3v-0.2h3.4v0.2h-0.3c-0.3,0-0.6,0.1-0.7,0.3c-0.1,0.1-0.1,0.4-0.1,0.9v5.1
		c0,0.4,0,0.7,0.1,0.8c0,0.1,0.1,0.2,0.2,0.2c0.2,0.1,0.3,0.1,0.5,0.1H211.1z"/>
	<path class="st5" d="M215.8,37.2c1,0,1.9,0.4,2.7,1.2c0.7,0.8,1.1,1.7,1.1,2.9c0,1.2-0.4,2.2-1.1,3c-0.8,0.8-1.7,1.2-2.7,1.2
		c-1.1,0-2-0.4-2.7-1.2c-0.7-0.8-1.1-1.8-1.1-3c0-1.2,0.4-2.3,1.3-3.1C213.8,37.5,214.7,37.2,215.8,37.2 M215.6,37.6
		c-0.7,0-1.3,0.3-1.7,0.8c-0.5,0.7-0.8,1.6-0.8,2.9c0,1.3,0.3,2.3,0.8,3c0.4,0.5,1,0.8,1.7,0.8c0.7,0,1.3-0.3,1.8-0.9
		c0.5-0.6,0.7-1.5,0.7-2.7c0-1.3-0.3-2.4-0.8-3C217,37.8,216.4,37.6,215.6,37.6"/>
	<path class="st5" d="M219.8,37.3h2.1l4.8,5.9v-4.5c0-0.5-0.1-0.8-0.2-0.9c-0.1-0.2-0.4-0.2-0.7-0.2h-0.3v-0.2h2.7v0.2h-0.3
		c-0.3,0-0.6,0.1-0.7,0.3c-0.1,0.1-0.1,0.4-0.1,0.8v6.6h-0.2l-5.2-6.3v4.8c0,0.5,0.1,0.8,0.2,0.9c0.1,0.2,0.4,0.2,0.7,0.2h0.3v0.2
		h-2.7V45h0.3c0.3,0,0.6-0.1,0.7-0.3c0.1-0.1,0.1-0.4,0.1-0.8v-5.5c-0.2-0.3-0.4-0.4-0.5-0.5c-0.1-0.1-0.3-0.2-0.5-0.2
		c-0.1,0-0.3-0.1-0.5-0.1V37.3z"/>
	<path class="st5" d="M146.3,50.3h2.1l4.8,5.9v-4.5c0-0.5-0.1-0.8-0.2-0.9c-0.1-0.2-0.4-0.2-0.7-0.2h-0.3v-0.2h2.7v0.2h-0.3
		c-0.3,0-0.6,0.1-0.7,0.3c-0.1,0.1-0.1,0.4-0.1,0.8v6.6h-0.2l-5.2-6.3v4.8c0,0.5,0.1,0.8,0.2,0.9c0.1,0.2,0.4,0.2,0.7,0.2h0.3v0.2
		h-2.7V58h0.3c0.3,0,0.6-0.1,0.7-0.3c0.1-0.1,0.1-0.4,0.1-0.8v-5.5c-0.2-0.3-0.4-0.4-0.5-0.5c-0.1-0.1-0.3-0.2-0.5-0.2
		c-0.1,0-0.3-0.1-0.5-0.1V50.3z"/>
	<path class="st5" d="M160.4,55.5h-3l-0.5,1.2c-0.1,0.3-0.2,0.5-0.2,0.7c0,0.1,0.1,0.2,0.2,0.3c0.1,0.1,0.4,0.2,0.7,0.2v0.2h-2.5V58
		c0.3-0.1,0.5-0.1,0.6-0.2c0.2-0.2,0.4-0.6,0.7-1.1l2.8-6.5h0.2l2.7,6.5c0.2,0.5,0.4,0.9,0.6,1c0.2,0.2,0.4,0.2,0.8,0.3v0.2h-3.1V58
		c0.3,0,0.5-0.1,0.6-0.2c0.1-0.1,0.2-0.2,0.2-0.3c0-0.2-0.1-0.4-0.2-0.8L160.4,55.5z M160.3,55.1l-1.3-3.2l-1.4,3.2H160.3z"/>
	<path class="st5" d="M169.1,50.3l0.1,1.8H169c0-0.3-0.1-0.6-0.2-0.7c-0.1-0.2-0.3-0.4-0.5-0.5c-0.2-0.1-0.5-0.2-0.8-0.2h-1.1v6
		c0,0.5,0.1,0.8,0.2,0.9c0.1,0.2,0.4,0.2,0.7,0.2h0.3v0.2h-3.3V58h0.3c0.3,0,0.6-0.1,0.7-0.3c0.1-0.1,0.1-0.4,0.1-0.8v-6h-0.9
		c-0.4,0-0.6,0-0.8,0.1c-0.2,0.1-0.4,0.2-0.5,0.4c-0.1,0.2-0.2,0.5-0.3,0.8h-0.2l0.1-1.8H169.1z"/>
	<path class="st5" d="M173.2,58v0.2h-3.4V58h0.3c0.3,0,0.6-0.1,0.7-0.3c0.1-0.1,0.1-0.4,0.1-0.9v-5.1c0-0.4,0-0.7-0.1-0.8
		c0-0.1-0.1-0.2-0.2-0.2c-0.2-0.1-0.3-0.1-0.5-0.1h-0.3v-0.2h3.4v0.2h-0.3c-0.3,0-0.6,0.1-0.7,0.3c-0.1,0.1-0.1,0.4-0.1,0.9v5.1
		c0,0.4,0,0.7,0.1,0.8c0,0.1,0.1,0.2,0.2,0.2c0.2,0.1,0.3,0.1,0.5,0.1H173.2z"/>
	<path class="st5" d="M177.8,50.1c1,0,1.9,0.4,2.7,1.2c0.7,0.8,1.1,1.7,1.1,2.9c0,1.2-0.4,2.2-1.1,3c-0.8,0.8-1.7,1.2-2.7,1.2
		c-1.1,0-2-0.4-2.7-1.2c-0.7-0.8-1.1-1.8-1.1-3c0-1.3,0.4-2.3,1.3-3.1C175.9,50.5,176.8,50.1,177.8,50.1 M177.7,50.5
		c-0.7,0-1.3,0.3-1.7,0.8c-0.5,0.7-0.8,1.6-0.8,2.9c0,1.3,0.3,2.3,0.8,3c0.4,0.5,1,0.8,1.7,0.8c0.7,0,1.3-0.3,1.8-0.9
		c0.5-0.6,0.7-1.5,0.7-2.7c0-1.3-0.3-2.4-0.8-3C179.1,50.8,178.5,50.5,177.7,50.5"/>
	<path class="st5" d="M181.9,50.3h2.1l4.8,5.9v-4.5c0-0.5-0.1-0.8-0.2-0.9c-0.1-0.2-0.4-0.2-0.7-0.2h-0.3v-0.2h2.7v0.2h-0.3
		c-0.3,0-0.6,0.1-0.7,0.3c-0.1,0.1-0.1,0.4-0.1,0.8v6.6h-0.2L184,52v4.8c0,0.5,0.1,0.8,0.2,0.9c0.1,0.2,0.4,0.2,0.7,0.2h0.3v0.2
		h-2.7V58h0.3c0.3,0,0.6-0.1,0.7-0.3c0.1-0.1,0.1-0.4,0.1-0.8v-5.5c-0.2-0.3-0.4-0.4-0.5-0.5c-0.1-0.1-0.3-0.2-0.5-0.2
		c-0.1,0-0.3-0.1-0.5-0.1V50.3z"/>
	<path class="st5" d="M196.1,55.5h-3l-0.5,1.2c-0.1,0.3-0.2,0.5-0.2,0.7c0,0.1,0.1,0.2,0.2,0.3c0.1,0.1,0.4,0.2,0.7,0.2v0.2h-2.5V58
		c0.3-0.1,0.5-0.1,0.6-0.2c0.2-0.2,0.4-0.6,0.7-1.1l2.8-6.5h0.2l2.7,6.5c0.2,0.5,0.4,0.9,0.6,1c0.2,0.2,0.4,0.2,0.8,0.3v0.2H196V58
		c0.3,0,0.5-0.1,0.6-0.2c0.1-0.1,0.2-0.2,0.2-0.3c0-0.2-0.1-0.4-0.2-0.8L196.1,55.5z M195.9,55.1l-1.3-3.2l-1.4,3.2H195.9z"/>
	<path class="st5" d="M206.1,56l0.2,0l-0.7,2.1h-6.1V58h0.3c0.3,0,0.6-0.1,0.7-0.3c0.1-0.1,0.1-0.4,0.1-0.9v-5.1
		c0-0.5-0.1-0.8-0.2-0.9c-0.2-0.2-0.4-0.3-0.7-0.3h-0.3v-0.2h3.6v0.2c-0.4,0-0.7,0-0.9,0.1c-0.2,0.1-0.3,0.2-0.3,0.3
		c-0.1,0.1-0.1,0.4-0.1,0.9v4.9c0,0.3,0,0.5,0.1,0.7c0,0.1,0.1,0.1,0.2,0.2c0.1,0,0.4,0.1,0.9,0.1h0.6c0.6,0,1,0,1.3-0.1
		c0.2-0.1,0.5-0.2,0.7-0.5C205.7,56.8,205.9,56.5,206.1,56"/>
	<path class="st5" d="M209,50.7v3.1h1.7c0.4,0,0.7-0.1,0.9-0.2c0.2-0.2,0.3-0.5,0.3-0.9h0.2v2.7H212c-0.1-0.4-0.1-0.6-0.2-0.7
		c-0.1-0.1-0.2-0.2-0.3-0.3c-0.2-0.1-0.4-0.1-0.7-0.1H209v2.6c0,0.3,0,0.6,0,0.6c0,0.1,0.1,0.1,0.2,0.2c0.1,0,0.2,0.1,0.4,0.1h1.3
		c0.4,0,0.8,0,1-0.1c0.2-0.1,0.4-0.2,0.6-0.4c0.2-0.2,0.5-0.6,0.7-1.1h0.2l-0.7,2h-6.1V58h0.3c0.2,0,0.4,0,0.5-0.1
		c0.1-0.1,0.2-0.2,0.3-0.3c0-0.1,0.1-0.4,0.1-0.8v-5.1c0-0.5-0.1-0.8-0.2-0.9c-0.1-0.2-0.4-0.2-0.7-0.2h-0.3v-0.2h6.1l0.1,1.7h-0.2
		c-0.1-0.4-0.2-0.7-0.3-0.9c-0.1-0.2-0.2-0.3-0.4-0.4c-0.2-0.1-0.4-0.1-0.8-0.1H209z"/>
</g>
</svg>
